M48
; DRILL file {KiCad 9.0.7-9.0.7~ubuntu24.04.1} date 2026-02-20T10:34:44-0700
; FORMAT={-:-/ absolute / metric / decimal}
; #@! TF.CreationDate,2026-02-20T10:34:44-07:00
; #@! TF.GenerationSoftware,Kicad,Pcbnew,9.0.7-9.0.7~ubuntu24.04.1
; #@! TF.FileFunction,MixedPlating,1,2
FMAT,2
METRIC
; #@! TA.AperFunction,Plated,PTH,ComponentDrill
T1C0.800
; #@! TA.AperFunction,Plated,PTH,ComponentDrill
T2C1.000
; #@! TA.AperFunction,NonPlated,NPTH,ComponentDrill
T3C1.780
; #@! TA.AperFunction,NonPlated,NPTH,ComponentDrill
T4C2.100
%
G90
G05
T1
X156.5Y-67.6
X158.5Y-67.6
X160.5Y-67.6
X162.5Y-67.6
X176.5Y-67.6
X178.5Y-67.6
X180.5Y-67.6
X182.5Y-67.6
T2
X151.89Y-74.95
X151.89Y-77.49
X151.89Y-80.03
X151.89Y-82.57
X151.89Y-85.11
X151.89Y-87.65
X151.89Y-90.19
X151.89Y-92.73
X151.89Y-95.27
X151.89Y-97.81
X151.89Y-100.35
X151.89Y-102.89
X151.89Y-105.43
X151.89Y-107.97
X151.89Y-110.51
X167.13Y-74.95
X167.13Y-77.49
X167.13Y-80.03
X167.13Y-82.57
X167.13Y-85.11
X167.13Y-87.65
X167.13Y-90.19
X167.13Y-92.73
X167.13Y-95.27
X167.13Y-97.81
X167.13Y-100.35
X167.13Y-102.89
X167.13Y-105.43
X167.13Y-107.97
X167.13Y-110.51
X172.0Y-74.96
X172.0Y-77.5
X172.0Y-80.04
X172.0Y-82.58
X172.0Y-85.12
X172.0Y-87.66
X172.0Y-90.2
X172.0Y-92.74
X172.0Y-95.28
X172.0Y-97.82
X172.0Y-100.36
X172.0Y-102.9
X172.0Y-105.44
X172.0Y-107.98
X172.0Y-110.52
X187.24Y-74.96
X187.24Y-77.5
X187.24Y-80.04
X187.24Y-82.58
X187.24Y-85.12
X187.24Y-87.66
X187.24Y-90.2
X187.24Y-92.74
X187.24Y-95.28
X187.24Y-97.82
X187.24Y-100.36
X187.24Y-102.9
X187.24Y-105.44
X187.24Y-107.98
X187.24Y-110.52
T3
X151.89Y-72.41
X151.89Y-113.05
X167.13Y-72.41
X167.13Y-113.05
X172.0Y-72.42
X172.0Y-113.06
X187.24Y-72.42
X187.24Y-113.06
T4
X151.0Y-61.0
X151.0Y-120.0
X188.0Y-61.0
X188.0Y-120.0
M30
