%TF.GenerationSoftware,KiCad,Pcbnew,9.0.7-9.0.7~ubuntu24.04.1*%
%TF.CreationDate,2026-02-20T10:35:12-07:00*%
%TF.ProjectId,gazelem_main_motors_pcb_design,67617a65-6c65-46d5-9f6d-61696e5f6d6f,rev?*%
%TF.SameCoordinates,Original*%
%TF.FileFunction,Copper,L2,Bot*%
%TF.FilePolarity,Positive*%
%FSLAX46Y46*%
G04 Gerber Fmt 4.6, Leading zero omitted, Abs format (unit mm)*
G04 Created by KiCad (PCBNEW 9.0.7-9.0.7~ubuntu24.04.1) date 2026-02-20 10:35:12*
%MOMM*%
%LPD*%
G01*
G04 APERTURE LIST*
%TA.AperFunction,ComponentPad*%
%ADD10R,1.600000X1.600000*%
%TD*%
%TA.AperFunction,ComponentPad*%
%ADD11O,1.600000X1.600000*%
%TD*%
%TA.AperFunction,ComponentPad*%
%ADD12R,1.350000X1.350000*%
%TD*%
%TA.AperFunction,ComponentPad*%
%ADD13C,1.350000*%
%TD*%
G04 APERTURE END LIST*
D10*
%TO.P,A1,1,D1/TX*%
%TO.N,unconnected-(A1-D1{slash}TX-Pad1)*%
X151890000Y-74950000D03*
D11*
%TO.P,A1,2,D0/RX*%
%TO.N,unconnected-(A1-D0{slash}RX-Pad2)*%
X151890000Y-77490000D03*
%TO.P,A1,3,~{RESET}*%
%TO.N,unconnected-(A1-~{RESET}-Pad3)*%
X151890000Y-80030000D03*
%TO.P,A1,4,GND*%
%TO.N,DIR- 1*%
X151890000Y-82570000D03*
%TO.P,A1,5,D2*%
%TO.N,DIR+ 1*%
X151890000Y-85110000D03*
%TO.P,A1,6,D3*%
%TO.N,unconnected-(A1-D3-Pad6)*%
X151890000Y-87650000D03*
%TO.P,A1,7,D4*%
%TO.N,unconnected-(A1-D4-Pad7)*%
X151890000Y-90190000D03*
%TO.P,A1,8,D5*%
%TO.N,unconnected-(A1-D5-Pad8)*%
X151890000Y-92730000D03*
%TO.P,A1,9,D6*%
%TO.N,unconnected-(A1-D6-Pad9)*%
X151890000Y-95270000D03*
%TO.P,A1,10,D7*%
%TO.N,unconnected-(A1-D7-Pad10)*%
X151890000Y-97810000D03*
%TO.P,A1,11,D8*%
%TO.N,unconnected-(A1-D8-Pad11)*%
X151890000Y-100350000D03*
%TO.P,A1,12,D9*%
%TO.N,PUL+ 1*%
X151890000Y-102890000D03*
%TO.P,A1,13,D10*%
%TO.N,unconnected-(A1-D10-Pad13)*%
X151890000Y-105430000D03*
%TO.P,A1,14,D11*%
%TO.N,unconnected-(A1-D11-Pad14)*%
X151890000Y-107970000D03*
%TO.P,A1,15,D12*%
%TO.N,unconnected-(A1-D12-Pad15)*%
X151890000Y-110510000D03*
%TO.P,A1,16,D13*%
%TO.N,unconnected-(A1-D13-Pad16)*%
X167130000Y-110510000D03*
%TO.P,A1,17,3V3*%
%TO.N,unconnected-(A1-3V3-Pad17)*%
X167130000Y-107970000D03*
%TO.P,A1,18,AREF*%
%TO.N,unconnected-(A1-AREF-Pad18)*%
X167130000Y-105430000D03*
%TO.P,A1,19,A0*%
%TO.N,unconnected-(A1-A0-Pad19)*%
X167130000Y-102890000D03*
%TO.P,A1,20,A1*%
%TO.N,unconnected-(A1-A1-Pad20)*%
X167130000Y-100350000D03*
%TO.P,A1,21,A2*%
%TO.N,unconnected-(A1-A2-Pad21)*%
X167130000Y-97810000D03*
%TO.P,A1,22,A3*%
%TO.N,unconnected-(A1-A3-Pad22)*%
X167130000Y-95270000D03*
%TO.P,A1,23,A4*%
%TO.N,unconnected-(A1-A4-Pad23)*%
X167130000Y-92730000D03*
%TO.P,A1,24,A5*%
%TO.N,unconnected-(A1-A5-Pad24)*%
X167130000Y-90190000D03*
%TO.P,A1,25,A6*%
%TO.N,unconnected-(A1-A6-Pad25)*%
X167130000Y-87650000D03*
%TO.P,A1,26,A7*%
%TO.N,unconnected-(A1-A7-Pad26)*%
X167130000Y-85110000D03*
%TO.P,A1,27,+5V*%
%TO.N,unconnected-(A1-+5V-Pad27)*%
X167130000Y-82570000D03*
%TO.P,A1,28,~{RESET}*%
%TO.N,unconnected-(A1-~{RESET}-Pad28)*%
X167130000Y-80030000D03*
%TO.P,A1,29,GND*%
%TO.N,unconnected-(A1-GND-Pad29)*%
X167130000Y-77490000D03*
%TO.P,A1,30,VIN*%
%TO.N,unconnected-(A1-VIN-Pad30)*%
X167130000Y-74950000D03*
%TD*%
D12*
%TO.P,J1,1,Pin_1*%
%TO.N,DIR- 1*%
X156500000Y-67600000D03*
D13*
%TO.P,J1,2,Pin_2*%
X158500000Y-67600000D03*
%TO.P,J1,3,Pin_3*%
%TO.N,DIR+ 1*%
X160500000Y-67600000D03*
%TO.P,J1,4,Pin_4*%
%TO.N,PUL+ 1*%
X162500000Y-67600000D03*
%TD*%
D12*
%TO.P,J2,1,Pin_1*%
%TO.N,DIR- 1*%
X176500000Y-67600000D03*
D13*
%TO.P,J2,2,Pin_2*%
X178500000Y-67600000D03*
%TO.P,J2,3,Pin_3*%
%TO.N,DIR+ 2*%
X180500000Y-67600000D03*
%TO.P,J2,4,Pin_4*%
%TO.N,PUL+ 2*%
X182500000Y-67600000D03*
%TD*%
D10*
%TO.P,A2,1,D1/TX*%
%TO.N,unconnected-(A2-D1{slash}TX-Pad1)*%
X172000000Y-74960000D03*
D11*
%TO.P,A2,2,D0/RX*%
%TO.N,unconnected-(A2-D0{slash}RX-Pad2)*%
X172000000Y-77500000D03*
%TO.P,A2,3,~{RESET}*%
%TO.N,unconnected-(A2-~{RESET}-Pad3)*%
X172000000Y-80040000D03*
%TO.P,A2,4,GND*%
%TO.N,DIR- 1*%
X172000000Y-82580000D03*
%TO.P,A2,5,D2*%
%TO.N,DIR+ 2*%
X172000000Y-85120000D03*
%TO.P,A2,6,D3*%
%TO.N,unconnected-(A2-D3-Pad6)*%
X172000000Y-87660000D03*
%TO.P,A2,7,D4*%
%TO.N,unconnected-(A2-D4-Pad7)*%
X172000000Y-90200000D03*
%TO.P,A2,8,D5*%
%TO.N,unconnected-(A2-D5-Pad8)*%
X172000000Y-92740000D03*
%TO.P,A2,9,D6*%
%TO.N,unconnected-(A2-D6-Pad9)*%
X172000000Y-95280000D03*
%TO.P,A2,10,D7*%
%TO.N,unconnected-(A2-D7-Pad10)*%
X172000000Y-97820000D03*
%TO.P,A2,11,D8*%
%TO.N,unconnected-(A2-D8-Pad11)*%
X172000000Y-100360000D03*
%TO.P,A2,12,D9*%
%TO.N,PUL+ 2*%
X172000000Y-102900000D03*
%TO.P,A2,13,D10*%
%TO.N,unconnected-(A2-D10-Pad13)*%
X172000000Y-105440000D03*
%TO.P,A2,14,D11*%
%TO.N,unconnected-(A2-D11-Pad14)*%
X172000000Y-107980000D03*
%TO.P,A2,15,D12*%
%TO.N,unconnected-(A2-D12-Pad15)*%
X172000000Y-110520000D03*
%TO.P,A2,16,D13*%
%TO.N,unconnected-(A2-D13-Pad16)*%
X187240000Y-110520000D03*
%TO.P,A2,17,3V3*%
%TO.N,unconnected-(A2-3V3-Pad17)*%
X187240000Y-107980000D03*
%TO.P,A2,18,AREF*%
%TO.N,unconnected-(A2-AREF-Pad18)*%
X187240000Y-105440000D03*
%TO.P,A2,19,A0*%
%TO.N,unconnected-(A2-A0-Pad19)*%
X187240000Y-102900000D03*
%TO.P,A2,20,A1*%
%TO.N,unconnected-(A2-A1-Pad20)*%
X187240000Y-100360000D03*
%TO.P,A2,21,A2*%
%TO.N,unconnected-(A2-A2-Pad21)*%
X187240000Y-97820000D03*
%TO.P,A2,22,A3*%
%TO.N,unconnected-(A2-A3-Pad22)*%
X187240000Y-95280000D03*
%TO.P,A2,23,A4*%
%TO.N,unconnected-(A2-A4-Pad23)*%
X187240000Y-92740000D03*
%TO.P,A2,24,A5*%
%TO.N,unconnected-(A2-A5-Pad24)*%
X187240000Y-90200000D03*
%TO.P,A2,25,A6*%
%TO.N,unconnected-(A2-A6-Pad25)*%
X187240000Y-87660000D03*
%TO.P,A2,26,A7*%
%TO.N,unconnected-(A2-A7-Pad26)*%
X187240000Y-85120000D03*
%TO.P,A2,27,+5V*%
%TO.N,unconnected-(A2-+5V-Pad27)*%
X187240000Y-82580000D03*
%TO.P,A2,28,~{RESET}*%
%TO.N,unconnected-(A2-~{RESET}-Pad28)*%
X187240000Y-80040000D03*
%TO.P,A2,29,GND*%
%TO.N,unconnected-(A2-GND-Pad29)*%
X187240000Y-77500000D03*
%TO.P,A2,30,VIN*%
%TO.N,unconnected-(A2-VIN-Pad30)*%
X187240000Y-74960000D03*
%TD*%
M02*
