M48
; DRILL file {KiCad 9.0.7-9.0.7~ubuntu24.04.1} date 2026-03-04T09:40:44-0700
; FORMAT={-:-/ absolute / metric / decimal}
; #@! TF.CreationDate,2026-03-04T09:40:44-07:00
; #@! TF.GenerationSoftware,Kicad,Pcbnew,9.0.7-9.0.7~ubuntu24.04.1
; #@! TF.FileFunction,MixedPlating,1,2
FMAT,2
METRIC
; #@! TA.AperFunction,Plated,PTH,ComponentDrill
T1C0.800
; #@! TA.AperFunction,Plated,PTH,ComponentDrill
T2C1.000
; #@! TA.AperFunction,NonPlated,NPTH,ComponentDrill
T3C1.780
; #@! TA.AperFunction,NonPlated,NPTH,ComponentDrill
T4C2.100
%
G90
G05
T1
X156.5Y-67.6
X158.5Y-67.6
X160.5Y-67.6
X162.5Y-67.6
X176.5Y-67.6
X178.5Y-67.6
X180.5Y-67.6
X182.5Y-67.6
T2
X151.76Y-74.96
X151.76Y-77.5
X151.76Y-80.04
X151.76Y-82.58
X151.76Y-85.12
X151.76Y-87.66
X151.76Y-90.2
X151.76Y-92.74
X151.76Y-95.28
X151.76Y-97.82
X151.76Y-100.36
X151.76Y-102.9
X151.76Y-105.44
X151.76Y-107.98
X151.76Y-110.52
X167.0Y-74.96
X167.0Y-77.5
X167.0Y-80.04
X167.0Y-82.58
X167.0Y-85.12
X167.0Y-87.66
X167.0Y-90.2
X167.0Y-92.74
X167.0Y-95.28
X167.0Y-97.82
X167.0Y-100.36
X167.0Y-102.9
X167.0Y-105.44
X167.0Y-107.98
X167.0Y-110.52
X171.87Y-74.95
X171.87Y-77.49
X171.87Y-80.03
X171.87Y-82.57
X171.87Y-85.11
X171.87Y-87.65
X171.87Y-90.19
X171.87Y-92.73
X171.87Y-95.27
X171.87Y-97.81
X171.87Y-100.35
X171.87Y-102.89
X171.87Y-105.43
X171.87Y-107.97
X171.87Y-110.51
X187.11Y-74.95
X187.11Y-77.49
X187.11Y-80.03
X187.11Y-82.57
X187.11Y-85.11
X187.11Y-87.65
X187.11Y-90.19
X187.11Y-92.73
X187.11Y-95.27
X187.11Y-97.81
X187.11Y-100.35
X187.11Y-102.89
X187.11Y-105.43
X187.11Y-107.97
X187.11Y-110.51
T3
X151.76Y-72.42
X151.76Y-113.06
X167.0Y-72.42
X167.0Y-113.06
X171.87Y-72.41
X171.87Y-113.05
X187.11Y-72.41
X187.11Y-113.05
T4
X151.0Y-61.0
X151.0Y-120.0
X188.0Y-61.0
X188.0Y-120.0
M30
