%TF.GenerationSoftware,KiCad,Pcbnew,9.0.7-9.0.7~ubuntu24.04.1*%
%TF.CreationDate,2026-02-20T10:35:13-07:00*%
%TF.ProjectId,gazelem_main_motors_pcb_design,67617a65-6c65-46d5-9f6d-61696e5f6d6f,rev?*%
%TF.SameCoordinates,Original*%
%TF.FileFunction,Legend,Top*%
%TF.FilePolarity,Positive*%
%FSLAX46Y46*%
G04 Gerber Fmt 4.6, Leading zero omitted, Abs format (unit mm)*
G04 Created by KiCad (PCBNEW 9.0.7-9.0.7~ubuntu24.04.1) date 2026-02-20 10:35:13*
%MOMM*%
%LPD*%
G01*
G04 APERTURE LIST*
%ADD10C,0.100000*%
%ADD11C,0.150000*%
%ADD12C,0.300000*%
%ADD13C,0.120000*%
%ADD14C,0.000000*%
G04 APERTURE END LIST*
D10*
X180443734Y-118013295D02*
X179967544Y-118013295D01*
X180538972Y-117727580D02*
X180205639Y-118727580D01*
X180205639Y-118727580D02*
X179872306Y-117727580D01*
X179586591Y-118632342D02*
X179538972Y-118679961D01*
X179538972Y-118679961D02*
X179443734Y-118727580D01*
X179443734Y-118727580D02*
X179205639Y-118727580D01*
X179205639Y-118727580D02*
X179110401Y-118679961D01*
X179110401Y-118679961D02*
X179062782Y-118632342D01*
X179062782Y-118632342D02*
X179015163Y-118537104D01*
X179015163Y-118537104D02*
X179015163Y-118441866D01*
X179015163Y-118441866D02*
X179062782Y-118299009D01*
X179062782Y-118299009D02*
X179634210Y-117727580D01*
X179634210Y-117727580D02*
X179015163Y-117727580D01*
X160043734Y-118313295D02*
X159567544Y-118313295D01*
X160138972Y-118027580D02*
X159805639Y-119027580D01*
X159805639Y-119027580D02*
X159472306Y-118027580D01*
X158615163Y-118027580D02*
X159186591Y-118027580D01*
X158900877Y-118027580D02*
X158900877Y-119027580D01*
X158900877Y-119027580D02*
X158996115Y-118884723D01*
X158996115Y-118884723D02*
X159091353Y-118789485D01*
X159091353Y-118789485D02*
X159186591Y-118741866D01*
D11*
X160771904Y-111055180D02*
X160771904Y-110245657D01*
X160771904Y-110245657D02*
X160724285Y-110150419D01*
X160724285Y-110150419D02*
X160676666Y-110102800D01*
X160676666Y-110102800D02*
X160581428Y-110055180D01*
X160581428Y-110055180D02*
X160390952Y-110055180D01*
X160390952Y-110055180D02*
X160295714Y-110102800D01*
X160295714Y-110102800D02*
X160248095Y-110150419D01*
X160248095Y-110150419D02*
X160200476Y-110245657D01*
X160200476Y-110245657D02*
X160200476Y-111055180D01*
X159771904Y-110102800D02*
X159629047Y-110055180D01*
X159629047Y-110055180D02*
X159390952Y-110055180D01*
X159390952Y-110055180D02*
X159295714Y-110102800D01*
X159295714Y-110102800D02*
X159248095Y-110150419D01*
X159248095Y-110150419D02*
X159200476Y-110245657D01*
X159200476Y-110245657D02*
X159200476Y-110340895D01*
X159200476Y-110340895D02*
X159248095Y-110436133D01*
X159248095Y-110436133D02*
X159295714Y-110483752D01*
X159295714Y-110483752D02*
X159390952Y-110531371D01*
X159390952Y-110531371D02*
X159581428Y-110578990D01*
X159581428Y-110578990D02*
X159676666Y-110626609D01*
X159676666Y-110626609D02*
X159724285Y-110674228D01*
X159724285Y-110674228D02*
X159771904Y-110769466D01*
X159771904Y-110769466D02*
X159771904Y-110864704D01*
X159771904Y-110864704D02*
X159724285Y-110959942D01*
X159724285Y-110959942D02*
X159676666Y-111007561D01*
X159676666Y-111007561D02*
X159581428Y-111055180D01*
X159581428Y-111055180D02*
X159343333Y-111055180D01*
X159343333Y-111055180D02*
X159200476Y-111007561D01*
X158438571Y-110578990D02*
X158295714Y-110531371D01*
X158295714Y-110531371D02*
X158248095Y-110483752D01*
X158248095Y-110483752D02*
X158200476Y-110388514D01*
X158200476Y-110388514D02*
X158200476Y-110245657D01*
X158200476Y-110245657D02*
X158248095Y-110150419D01*
X158248095Y-110150419D02*
X158295714Y-110102800D01*
X158295714Y-110102800D02*
X158390952Y-110055180D01*
X158390952Y-110055180D02*
X158771904Y-110055180D01*
X158771904Y-110055180D02*
X158771904Y-111055180D01*
X158771904Y-111055180D02*
X158438571Y-111055180D01*
X158438571Y-111055180D02*
X158343333Y-111007561D01*
X158343333Y-111007561D02*
X158295714Y-110959942D01*
X158295714Y-110959942D02*
X158248095Y-110864704D01*
X158248095Y-110864704D02*
X158248095Y-110769466D01*
X158248095Y-110769466D02*
X158295714Y-110674228D01*
X158295714Y-110674228D02*
X158343333Y-110626609D01*
X158343333Y-110626609D02*
X158438571Y-110578990D01*
X158438571Y-110578990D02*
X158771904Y-110578990D01*
X180881904Y-111065180D02*
X180881904Y-110255657D01*
X180881904Y-110255657D02*
X180834285Y-110160419D01*
X180834285Y-110160419D02*
X180786666Y-110112800D01*
X180786666Y-110112800D02*
X180691428Y-110065180D01*
X180691428Y-110065180D02*
X180500952Y-110065180D01*
X180500952Y-110065180D02*
X180405714Y-110112800D01*
X180405714Y-110112800D02*
X180358095Y-110160419D01*
X180358095Y-110160419D02*
X180310476Y-110255657D01*
X180310476Y-110255657D02*
X180310476Y-111065180D01*
X179881904Y-110112800D02*
X179739047Y-110065180D01*
X179739047Y-110065180D02*
X179500952Y-110065180D01*
X179500952Y-110065180D02*
X179405714Y-110112800D01*
X179405714Y-110112800D02*
X179358095Y-110160419D01*
X179358095Y-110160419D02*
X179310476Y-110255657D01*
X179310476Y-110255657D02*
X179310476Y-110350895D01*
X179310476Y-110350895D02*
X179358095Y-110446133D01*
X179358095Y-110446133D02*
X179405714Y-110493752D01*
X179405714Y-110493752D02*
X179500952Y-110541371D01*
X179500952Y-110541371D02*
X179691428Y-110588990D01*
X179691428Y-110588990D02*
X179786666Y-110636609D01*
X179786666Y-110636609D02*
X179834285Y-110684228D01*
X179834285Y-110684228D02*
X179881904Y-110779466D01*
X179881904Y-110779466D02*
X179881904Y-110874704D01*
X179881904Y-110874704D02*
X179834285Y-110969942D01*
X179834285Y-110969942D02*
X179786666Y-111017561D01*
X179786666Y-111017561D02*
X179691428Y-111065180D01*
X179691428Y-111065180D02*
X179453333Y-111065180D01*
X179453333Y-111065180D02*
X179310476Y-111017561D01*
X178548571Y-110588990D02*
X178405714Y-110541371D01*
X178405714Y-110541371D02*
X178358095Y-110493752D01*
X178358095Y-110493752D02*
X178310476Y-110398514D01*
X178310476Y-110398514D02*
X178310476Y-110255657D01*
X178310476Y-110255657D02*
X178358095Y-110160419D01*
X178358095Y-110160419D02*
X178405714Y-110112800D01*
X178405714Y-110112800D02*
X178500952Y-110065180D01*
X178500952Y-110065180D02*
X178881904Y-110065180D01*
X178881904Y-110065180D02*
X178881904Y-111065180D01*
X178881904Y-111065180D02*
X178548571Y-111065180D01*
X178548571Y-111065180D02*
X178453333Y-111017561D01*
X178453333Y-111017561D02*
X178405714Y-110969942D01*
X178405714Y-110969942D02*
X178358095Y-110874704D01*
X178358095Y-110874704D02*
X178358095Y-110779466D01*
X178358095Y-110779466D02*
X178405714Y-110684228D01*
X178405714Y-110684228D02*
X178453333Y-110636609D01*
X178453333Y-110636609D02*
X178548571Y-110588990D01*
X178548571Y-110588990D02*
X178881904Y-110588990D01*
D12*
X167678572Y-118649757D02*
X167535715Y-118578328D01*
X167535715Y-118578328D02*
X167321429Y-118578328D01*
X167321429Y-118578328D02*
X167107143Y-118649757D01*
X167107143Y-118649757D02*
X166964286Y-118792614D01*
X166964286Y-118792614D02*
X166892857Y-118935471D01*
X166892857Y-118935471D02*
X166821429Y-119221185D01*
X166821429Y-119221185D02*
X166821429Y-119435471D01*
X166821429Y-119435471D02*
X166892857Y-119721185D01*
X166892857Y-119721185D02*
X166964286Y-119864042D01*
X166964286Y-119864042D02*
X167107143Y-120006900D01*
X167107143Y-120006900D02*
X167321429Y-120078328D01*
X167321429Y-120078328D02*
X167464286Y-120078328D01*
X167464286Y-120078328D02*
X167678572Y-120006900D01*
X167678572Y-120006900D02*
X167750000Y-119935471D01*
X167750000Y-119935471D02*
X167750000Y-119435471D01*
X167750000Y-119435471D02*
X167464286Y-119435471D01*
X168607143Y-118578328D02*
X168607143Y-118935471D01*
X168250000Y-118792614D02*
X168607143Y-118935471D01*
X168607143Y-118935471D02*
X168964286Y-118792614D01*
X168392857Y-119221185D02*
X168607143Y-118935471D01*
X168607143Y-118935471D02*
X168821429Y-119221185D01*
X169750000Y-118578328D02*
X169750000Y-118935471D01*
X169392857Y-118792614D02*
X169750000Y-118935471D01*
X169750000Y-118935471D02*
X170107143Y-118792614D01*
X169535714Y-119221185D02*
X169750000Y-118935471D01*
X169750000Y-118935471D02*
X169964286Y-119221185D01*
X170892857Y-118578328D02*
X170892857Y-118935471D01*
X170535714Y-118792614D02*
X170892857Y-118935471D01*
X170892857Y-118935471D02*
X171250000Y-118792614D01*
X170678571Y-119221185D02*
X170892857Y-118935471D01*
X170892857Y-118935471D02*
X171107143Y-119221185D01*
D13*
%TO.C,A1*%
X150490000Y-71010000D02*
X150490000Y-73680000D01*
X150490000Y-76220000D02*
X150490000Y-114450000D01*
X150490000Y-114450000D02*
X155570000Y-114450000D01*
X153160000Y-73680000D02*
X150490000Y-73680000D01*
X153160000Y-76220000D02*
X150490000Y-76220000D01*
X153160000Y-76220000D02*
X153160000Y-73680000D01*
X153160000Y-76220000D02*
X153160000Y-111780000D01*
X153160000Y-111780000D02*
X150490000Y-111780000D01*
X155570000Y-106570000D02*
X163450000Y-106570000D01*
X155570000Y-116990000D02*
X155570000Y-106570000D01*
X163450000Y-106570000D02*
X163450000Y-116990000D01*
X163450000Y-116990000D02*
X155570000Y-116990000D01*
X165860000Y-73680000D02*
X165860000Y-111780000D01*
X165860000Y-73680000D02*
X168530000Y-73680000D01*
X165860000Y-111780000D02*
X168530000Y-111780000D01*
X168530000Y-71010000D02*
X150490000Y-71010000D01*
X168530000Y-114450000D02*
X163450000Y-114450000D01*
X168530000Y-114450000D02*
X168530000Y-71010000D01*
%TO.C,J1*%
X155500000Y-68600000D02*
X155500000Y-67600000D01*
X156140000Y-66615000D02*
X156140000Y-66210000D01*
X156500000Y-68600000D02*
X155500000Y-68600000D01*
X156860000Y-66615000D02*
X156860000Y-66210000D01*
X157500000Y-66210000D02*
X157500000Y-64490000D01*
X158140000Y-60290000D02*
X158860000Y-60290000D01*
X158140000Y-64490000D02*
X158140000Y-60290000D01*
X158140000Y-66683144D02*
X158140000Y-66210000D01*
X158860000Y-60290000D02*
X158860000Y-64490000D01*
X158860000Y-66683144D02*
X158860000Y-66210000D01*
X159500000Y-66210000D02*
X159500000Y-64490000D01*
X160140000Y-60290000D02*
X160860000Y-60290000D01*
X160140000Y-64490000D02*
X160140000Y-60290000D01*
X160140000Y-66683144D02*
X160140000Y-66210000D01*
X160860000Y-60290000D02*
X160860000Y-64490000D01*
X160860000Y-66683144D02*
X160860000Y-66210000D01*
X161500000Y-66210000D02*
X161500000Y-64490000D01*
X162140000Y-60290000D02*
X162860000Y-60290000D01*
X162140000Y-64490000D02*
X162140000Y-60290000D01*
X162140000Y-66683144D02*
X162140000Y-66210000D01*
X162860000Y-60290000D02*
X162860000Y-64490000D01*
X162860000Y-66683144D02*
X162860000Y-66210000D01*
X155390000Y-66210000D02*
X163610000Y-66210000D01*
X163610000Y-64490000D01*
X155390000Y-64490000D01*
X155390000Y-66210000D01*
X156140000Y-64490000D02*
X156860000Y-64490000D01*
X156860000Y-60290000D01*
X156140000Y-60290000D01*
X156140000Y-64490000D01*
G36*
X156140000Y-64490000D02*
G01*
X156860000Y-64490000D01*
X156860000Y-60290000D01*
X156140000Y-60290000D01*
X156140000Y-64490000D01*
G37*
%TO.C,J2*%
X175500000Y-68600000D02*
X175500000Y-67600000D01*
X176140000Y-66615000D02*
X176140000Y-66210000D01*
X176500000Y-68600000D02*
X175500000Y-68600000D01*
X176860000Y-66615000D02*
X176860000Y-66210000D01*
X177500000Y-66210000D02*
X177500000Y-64490000D01*
X178140000Y-60290000D02*
X178860000Y-60290000D01*
X178140000Y-64490000D02*
X178140000Y-60290000D01*
X178140000Y-66683144D02*
X178140000Y-66210000D01*
X178860000Y-60290000D02*
X178860000Y-64490000D01*
X178860000Y-66683144D02*
X178860000Y-66210000D01*
X179500000Y-66210000D02*
X179500000Y-64490000D01*
X180140000Y-60290000D02*
X180860000Y-60290000D01*
X180140000Y-64490000D02*
X180140000Y-60290000D01*
X180140000Y-66683144D02*
X180140000Y-66210000D01*
X180860000Y-60290000D02*
X180860000Y-64490000D01*
X180860000Y-66683144D02*
X180860000Y-66210000D01*
X181500000Y-66210000D02*
X181500000Y-64490000D01*
X182140000Y-60290000D02*
X182860000Y-60290000D01*
X182140000Y-64490000D02*
X182140000Y-60290000D01*
X182140000Y-66683144D02*
X182140000Y-66210000D01*
X182860000Y-60290000D02*
X182860000Y-64490000D01*
X182860000Y-66683144D02*
X182860000Y-66210000D01*
X175390000Y-66210000D02*
X183610000Y-66210000D01*
X183610000Y-64490000D01*
X175390000Y-64490000D01*
X175390000Y-66210000D01*
X176140000Y-64490000D02*
X176860000Y-64490000D01*
X176860000Y-60290000D01*
X176140000Y-60290000D01*
X176140000Y-64490000D01*
G36*
X176140000Y-64490000D02*
G01*
X176860000Y-64490000D01*
X176860000Y-60290000D01*
X176140000Y-60290000D01*
X176140000Y-64490000D01*
G37*
%TO.C,A2*%
X170600000Y-71020000D02*
X170600000Y-73690000D01*
X170600000Y-76230000D02*
X170600000Y-114460000D01*
X170600000Y-114460000D02*
X175680000Y-114460000D01*
X173270000Y-73690000D02*
X170600000Y-73690000D01*
X173270000Y-76230000D02*
X170600000Y-76230000D01*
X173270000Y-76230000D02*
X173270000Y-73690000D01*
X173270000Y-76230000D02*
X173270000Y-111790000D01*
X173270000Y-111790000D02*
X170600000Y-111790000D01*
X175680000Y-106580000D02*
X183560000Y-106580000D01*
X175680000Y-117000000D02*
X175680000Y-106580000D01*
X183560000Y-106580000D02*
X183560000Y-117000000D01*
X183560000Y-117000000D02*
X175680000Y-117000000D01*
X185970000Y-73690000D02*
X185970000Y-111790000D01*
X185970000Y-73690000D02*
X188640000Y-73690000D01*
X185970000Y-111790000D02*
X188640000Y-111790000D01*
X188640000Y-71020000D02*
X170600000Y-71020000D01*
X188640000Y-114460000D02*
X183560000Y-114460000D01*
X188640000Y-114460000D02*
X188640000Y-71020000D01*
D14*
%TO.C,G\u002A\u002A\u002A*%
G36*
X174507955Y-115367928D02*
G01*
X174488631Y-115479861D01*
X174467792Y-115598560D01*
X174446052Y-115720469D01*
X174424028Y-115842032D01*
X174402335Y-115959691D01*
X174381589Y-116069889D01*
X174374810Y-116105290D01*
X174353773Y-116215624D01*
X174330886Y-116337377D01*
X174308090Y-116460108D01*
X174287328Y-116573374D01*
X174273791Y-116648452D01*
X174221897Y-116905792D01*
X174159804Y-117155478D01*
X174088726Y-117394089D01*
X174009872Y-117618201D01*
X173924456Y-117824392D01*
X173858700Y-117958304D01*
X173833688Y-118009241D01*
X173738780Y-118169324D01*
X173731474Y-118180317D01*
X173619935Y-118333133D01*
X173501424Y-118467025D01*
X173367379Y-118591609D01*
X173358582Y-118599060D01*
X173222328Y-118713900D01*
X173198482Y-118828250D01*
X173164100Y-118946491D01*
X173144990Y-118990328D01*
X173112021Y-119065955D01*
X173047430Y-119176172D01*
X172987902Y-119253277D01*
X172945230Y-119298180D01*
X172889226Y-119353237D01*
X172828426Y-119410189D01*
X172790464Y-119444240D01*
X172692792Y-119534089D01*
X172615036Y-119615769D01*
X172552296Y-119695302D01*
X172499670Y-119778713D01*
X172465996Y-119843106D01*
X172425410Y-119931770D01*
X172391093Y-120020016D01*
X172362425Y-120111411D01*
X172338786Y-120209521D01*
X172319557Y-120317912D01*
X172304118Y-120440150D01*
X172291849Y-120579801D01*
X172282130Y-120740431D01*
X172274342Y-120925606D01*
X172273466Y-120950872D01*
X172269536Y-121061299D01*
X172265549Y-121163793D01*
X172261682Y-121254503D01*
X172258110Y-121329577D01*
X172255010Y-121385165D01*
X172252559Y-121417415D01*
X172251870Y-121422566D01*
X172246602Y-121452210D01*
X172238195Y-121501585D01*
X172228086Y-121562203D01*
X172223064Y-121592717D01*
X172168172Y-121842273D01*
X172087737Y-122079945D01*
X171982777Y-122304342D01*
X171854314Y-122514078D01*
X171703367Y-122707764D01*
X171530956Y-122884011D01*
X171338101Y-123041433D01*
X171125823Y-123178639D01*
X171013616Y-123238778D01*
X170881639Y-123298874D01*
X170732637Y-123356412D01*
X170578131Y-123407353D01*
X170429647Y-123447658D01*
X170395249Y-123455504D01*
X170345366Y-123465723D01*
X170298117Y-123473511D01*
X170248463Y-123479190D01*
X170191367Y-123483087D01*
X170121788Y-123485524D01*
X170034688Y-123486827D01*
X169925028Y-123487319D01*
X169900506Y-123487349D01*
X169786691Y-123487191D01*
X169696379Y-123486288D01*
X169624488Y-123484310D01*
X169565937Y-123480928D01*
X169515646Y-123475812D01*
X169468531Y-123468632D01*
X169419512Y-123459060D01*
X169400225Y-123454922D01*
X169192093Y-123401707D01*
X168989445Y-123334705D01*
X168794601Y-123255476D01*
X168609879Y-123165582D01*
X168437598Y-123066582D01*
X168280076Y-122960037D01*
X168164579Y-122867499D01*
X168614088Y-122867499D01*
X168626620Y-122878689D01*
X168661171Y-122898225D01*
X168713128Y-122924058D01*
X168777879Y-122954140D01*
X168850811Y-122986424D01*
X168927312Y-123018861D01*
X169002769Y-123049405D01*
X169072569Y-123076006D01*
X169124766Y-123094237D01*
X169253668Y-123134989D01*
X169364501Y-123165742D01*
X169465451Y-123187817D01*
X169564700Y-123202532D01*
X169670434Y-123211208D01*
X169790835Y-123215162D01*
X169879066Y-123215824D01*
X170013362Y-123214555D01*
X170126139Y-123209828D01*
X170224358Y-123200659D01*
X170314981Y-123186064D01*
X170404969Y-123165059D01*
X170501283Y-123136660D01*
X170548575Y-123121196D01*
X170781173Y-123029588D01*
X170994936Y-122916990D01*
X171189224Y-122784040D01*
X171363394Y-122631380D01*
X171516804Y-122459650D01*
X171648812Y-122269489D01*
X171758778Y-122061538D01*
X171846058Y-121836437D01*
X171850456Y-121822724D01*
X171876949Y-121734304D01*
X171899532Y-121646955D01*
X171918651Y-121557081D01*
X171934749Y-121461085D01*
X171948272Y-121355369D01*
X171959663Y-121236336D01*
X171969367Y-121100389D01*
X171977829Y-120943932D01*
X171985492Y-120763367D01*
X171987299Y-120715025D01*
X171994970Y-120546577D01*
X172004863Y-120404059D01*
X172017290Y-120284878D01*
X172032565Y-120186440D01*
X172051000Y-120106151D01*
X172066633Y-120057513D01*
X172064328Y-120050245D01*
X172046529Y-120061441D01*
X172016419Y-120087919D01*
X171977179Y-120126499D01*
X171931990Y-120173999D01*
X171884035Y-120227238D01*
X171836494Y-120283034D01*
X171816464Y-120307653D01*
X171697603Y-120466743D01*
X171586760Y-120638026D01*
X171479702Y-120828244D01*
X171434981Y-120915138D01*
X171399018Y-120986443D01*
X171367518Y-121048354D01*
X171342702Y-121096550D01*
X171326790Y-121126712D01*
X171322044Y-121134889D01*
X171319290Y-121127997D01*
X171322922Y-121097221D01*
X171332214Y-121046365D01*
X171346443Y-120979235D01*
X171364885Y-120899635D01*
X171373759Y-120863208D01*
X171425070Y-120684915D01*
X171491430Y-120500321D01*
X171569266Y-120317654D01*
X171655008Y-120145136D01*
X171745082Y-119990995D01*
X171767082Y-119957450D01*
X171834078Y-119865790D01*
X171910912Y-119776700D01*
X172001071Y-119686829D01*
X172108040Y-119592828D01*
X172235306Y-119491345D01*
X172312955Y-119432804D01*
X172433628Y-119340920D01*
X172538077Y-119256553D01*
X172625057Y-119180927D01*
X172693325Y-119115267D01*
X172741637Y-119060797D01*
X172768748Y-119018743D01*
X172773415Y-118990328D01*
X172769290Y-118983603D01*
X172752911Y-118983214D01*
X172717303Y-118989150D01*
X172678649Y-118998046D01*
X172487036Y-119034004D01*
X172290753Y-119046736D01*
X172097056Y-119036155D01*
X171932446Y-119006993D01*
X171838161Y-118980225D01*
X171729098Y-118942921D01*
X171615212Y-118898885D01*
X171506454Y-118851923D01*
X171429938Y-118814861D01*
X171384009Y-118792152D01*
X171348744Y-118780163D01*
X171317914Y-118780511D01*
X171285292Y-118794817D01*
X171244647Y-118824700D01*
X171189751Y-118871778D01*
X171180823Y-118879614D01*
X171054312Y-119004737D01*
X170929400Y-119155613D01*
X170807818Y-119329409D01*
X170691472Y-119522998D01*
X170691297Y-119523290D01*
X170581570Y-119734423D01*
X170480367Y-119959973D01*
X170408758Y-120143275D01*
X170314377Y-120399555D01*
X170227999Y-120630837D01*
X170157309Y-120816615D01*
X170148687Y-120839274D01*
X170075504Y-121027022D01*
X170007510Y-121196234D01*
X169943769Y-121349066D01*
X169883342Y-121487672D01*
X169825292Y-121614206D01*
X169768682Y-121730822D01*
X169712572Y-121839676D01*
X169656027Y-121942922D01*
X169630232Y-121987366D01*
X169598107Y-122042715D01*
X169542024Y-122134570D01*
X169415126Y-122316810D01*
X169277264Y-122474973D01*
X169129422Y-122608239D01*
X168972584Y-122715789D01*
X168807733Y-122796804D01*
X168703424Y-122832912D01*
X168657853Y-122847452D01*
X168625663Y-122859983D01*
X168614088Y-122867499D01*
X168164579Y-122867499D01*
X168139631Y-122847510D01*
X168018583Y-122730559D01*
X167919250Y-122610746D01*
X167843951Y-122489631D01*
X167797099Y-122375808D01*
X167780936Y-122296848D01*
X168073579Y-122296848D01*
X168084753Y-122335810D01*
X168120571Y-122416245D01*
X168177727Y-122493377D01*
X168249272Y-122559774D01*
X168328255Y-122608007D01*
X168346496Y-122615656D01*
X168434998Y-122634920D01*
X168534691Y-122631524D01*
X168642099Y-122607349D01*
X168753748Y-122564275D01*
X168866164Y-122504181D01*
X168975871Y-122428948D01*
X169079394Y-122340455D01*
X169173260Y-122240583D01*
X169253992Y-122131211D01*
X169260318Y-122121249D01*
X169300836Y-122055807D01*
X169325981Y-122011967D01*
X169335968Y-121987366D01*
X169331009Y-121979640D01*
X169311320Y-121986427D01*
X169277112Y-122005363D01*
X169270441Y-122009283D01*
X169223160Y-122035208D01*
X169159983Y-122067225D01*
X169091284Y-122100154D01*
X169057815Y-122115471D01*
X168863654Y-122193858D01*
X168679060Y-122249492D01*
X168498195Y-122283700D01*
X168315224Y-122297812D01*
X168254488Y-122298294D01*
X168073579Y-122296848D01*
X167780936Y-122296848D01*
X167774037Y-122263143D01*
X167776394Y-122161255D01*
X167803882Y-122071284D01*
X167856213Y-121994372D01*
X167904028Y-121951462D01*
X167940294Y-121920399D01*
X167964562Y-121892098D01*
X167970850Y-121877111D01*
X167966641Y-121854957D01*
X167955122Y-121811525D01*
X167937952Y-121752681D01*
X167916792Y-121684293D01*
X167912176Y-121669825D01*
X167880869Y-121565628D01*
X167861358Y-121482571D01*
X167853305Y-121415905D01*
X167856376Y-121360886D01*
X167870233Y-121312766D01*
X167884789Y-121283074D01*
X167912317Y-121241799D01*
X167941594Y-121208962D01*
X167952113Y-121200556D01*
X167976634Y-121177451D01*
X167985144Y-121157701D01*
X167980787Y-121132991D01*
X167969055Y-121089516D01*
X167951951Y-121033203D01*
X167931480Y-120969975D01*
X167909646Y-120905757D01*
X167888452Y-120846473D01*
X167869904Y-120798047D01*
X167856006Y-120766405D01*
X167849642Y-120757173D01*
X167829032Y-120751782D01*
X167789385Y-120742045D01*
X167742150Y-120730749D01*
X167695774Y-120719531D01*
X167675844Y-120713681D01*
X167680915Y-120712302D01*
X167709542Y-120714496D01*
X167717126Y-120715205D01*
X167765990Y-120720963D01*
X167808256Y-120727819D01*
X167819500Y-120730279D01*
X167832393Y-120732779D01*
X167839937Y-120730029D01*
X167841422Y-120718199D01*
X167836138Y-120693461D01*
X167823375Y-120651983D01*
X167802424Y-120589936D01*
X167783128Y-120534014D01*
X167755384Y-120452400D01*
X167736350Y-120391790D01*
X167724766Y-120346400D01*
X167719369Y-120310443D01*
X167718896Y-120278134D01*
X167719161Y-120275057D01*
X167957950Y-120275057D01*
X167958778Y-120291771D01*
X167963077Y-120314051D01*
X167971852Y-120345558D01*
X167986106Y-120389954D01*
X168006843Y-120450900D01*
X168035067Y-120532058D01*
X168066008Y-120620572D01*
X168107765Y-120742411D01*
X168145227Y-120856361D01*
X168177502Y-120959368D01*
X168203697Y-121048376D01*
X168222921Y-121120333D01*
X168234283Y-121172184D01*
X168236890Y-121200875D01*
X168236257Y-121203631D01*
X168238838Y-121214355D01*
X168260291Y-121209638D01*
X168287340Y-121193030D01*
X168297247Y-121179503D01*
X168294180Y-121167017D01*
X168280116Y-121169699D01*
X168260510Y-121171603D01*
X168256725Y-121166359D01*
X168269025Y-121151095D01*
X168298040Y-121139611D01*
X168322216Y-121136691D01*
X168340340Y-121148089D01*
X168342487Y-121157288D01*
X168351066Y-121182546D01*
X168373640Y-121185794D01*
X168405468Y-121166611D01*
X168409235Y-121163203D01*
X168431372Y-121137376D01*
X168463369Y-121093540D01*
X168500570Y-121038311D01*
X168530930Y-120990394D01*
X168587051Y-120904319D01*
X168635044Y-120842585D01*
X168677180Y-120802906D01*
X168715730Y-120782992D01*
X168740236Y-120779566D01*
X168780185Y-120783580D01*
X168799368Y-120792845D01*
X168795293Y-120804053D01*
X168765978Y-120813796D01*
X168722440Y-120831224D01*
X168688068Y-120861164D01*
X168671626Y-120895538D01*
X168671244Y-120901114D01*
X168684306Y-120910258D01*
X168718957Y-120920784D01*
X168768393Y-120930740D01*
X168782020Y-120932875D01*
X168850725Y-120945135D01*
X168922332Y-120961187D01*
X168978559Y-120976727D01*
X169064322Y-121004168D01*
X168985706Y-121039843D01*
X168931996Y-121061740D01*
X168864556Y-121085828D01*
X168797334Y-121107145D01*
X168792741Y-121108480D01*
X168708145Y-121134759D01*
X168648272Y-121157577D01*
X168614190Y-121176442D01*
X168606966Y-121190862D01*
X168608853Y-121193183D01*
X168639199Y-121209920D01*
X168688360Y-121226472D01*
X168746653Y-121240383D01*
X168804396Y-121249202D01*
X168837202Y-121251041D01*
X168881764Y-121247369D01*
X168944813Y-121237419D01*
X169017352Y-121222788D01*
X169078616Y-121208160D01*
X169148856Y-121191116D01*
X169213744Y-121177282D01*
X169265622Y-121168176D01*
X169294857Y-121165279D01*
X169344789Y-121165279D01*
X169281041Y-121220452D01*
X169225796Y-121265580D01*
X169160573Y-121314736D01*
X169091901Y-121363416D01*
X169026307Y-121407118D01*
X168970318Y-121441339D01*
X168932994Y-121460539D01*
X168859243Y-121479364D01*
X168763631Y-121483747D01*
X168648888Y-121473827D01*
X168517745Y-121449745D01*
X168463056Y-121436624D01*
X168371473Y-121415053D01*
X168301374Y-121403487D01*
X168247396Y-121402112D01*
X168204173Y-121411115D01*
X168166341Y-121430682D01*
X168143797Y-121447738D01*
X168113854Y-121472594D01*
X168156792Y-121605093D01*
X168178853Y-121683946D01*
X168198947Y-121774540D01*
X168213449Y-121860074D01*
X168215731Y-121878302D01*
X168231731Y-122019013D01*
X168333564Y-122027419D01*
X168452433Y-122028883D01*
X168578763Y-122016293D01*
X168696363Y-121991349D01*
X168707404Y-121988126D01*
X168741562Y-121975375D01*
X168796314Y-121951990D01*
X168866728Y-121920210D01*
X168947875Y-121882277D01*
X169034822Y-121840429D01*
X169064748Y-121825748D01*
X169150522Y-121783641D01*
X169230128Y-121744906D01*
X169299137Y-121711671D01*
X169353122Y-121686063D01*
X169387655Y-121670209D01*
X169394894Y-121667130D01*
X169416542Y-121655253D01*
X169436625Y-121635224D01*
X169458457Y-121602208D01*
X169485352Y-121551369D01*
X169511804Y-121496602D01*
X169579046Y-121348395D01*
X169636147Y-121210037D01*
X169682112Y-121084450D01*
X169715948Y-120974555D01*
X169736660Y-120883271D01*
X169743275Y-120816615D01*
X169736387Y-120733636D01*
X169714067Y-120652079D01*
X169673833Y-120564647D01*
X169634889Y-120497976D01*
X169592816Y-120427986D01*
X169563723Y-120370661D01*
X169545224Y-120317396D01*
X169534935Y-120259587D01*
X169530472Y-120188628D01*
X169529496Y-120117692D01*
X169528331Y-120041152D01*
X169523840Y-119981085D01*
X169513563Y-119930589D01*
X169495035Y-119882762D01*
X169465794Y-119830703D01*
X169423378Y-119767509D01*
X169385613Y-119714463D01*
X169346867Y-119659045D01*
X169311951Y-119606430D01*
X169286172Y-119564728D01*
X169278523Y-119550815D01*
X169253613Y-119501518D01*
X169229265Y-119579403D01*
X169208535Y-119637929D01*
X169183705Y-119697612D01*
X169172297Y-119721609D01*
X169096098Y-119844150D01*
X168999353Y-119950268D01*
X168879796Y-120042170D01*
X168788039Y-120095717D01*
X168739158Y-120122975D01*
X168708136Y-120146852D01*
X168686868Y-120175937D01*
X168667252Y-120218816D01*
X168663770Y-120227420D01*
X168638665Y-120280522D01*
X168609379Y-120329205D01*
X168589856Y-120354298D01*
X168561891Y-120378161D01*
X168522690Y-120404657D01*
X168479654Y-120429689D01*
X168440184Y-120449160D01*
X168411681Y-120458970D01*
X168402395Y-120458088D01*
X168406678Y-120444466D01*
X168424137Y-120417006D01*
X168432973Y-120405012D01*
X168472639Y-120344103D01*
X168489766Y-120292637D01*
X168486063Y-120244914D01*
X168483469Y-120236719D01*
X168473534Y-120212844D01*
X168459704Y-120199858D01*
X168434124Y-120194454D01*
X168388941Y-120193326D01*
X168380397Y-120193322D01*
X168321353Y-120191167D01*
X168249185Y-120185484D01*
X168178966Y-120177475D01*
X168175315Y-120176971D01*
X168092785Y-120168935D01*
X168033489Y-120172187D01*
X167993960Y-120187818D01*
X167970725Y-120216914D01*
X167962695Y-120243678D01*
X167959590Y-120260246D01*
X167957950Y-120275057D01*
X167719161Y-120275057D01*
X167721278Y-120250478D01*
X167743800Y-120147005D01*
X167785659Y-120063756D01*
X167832284Y-120011838D01*
X167881883Y-119977606D01*
X167939971Y-119950806D01*
X167993874Y-119936943D01*
X168006584Y-119936129D01*
X168013551Y-119922605D01*
X168016853Y-119884901D01*
X168016482Y-119855620D01*
X168234182Y-119855620D01*
X168234656Y-119859038D01*
X168241527Y-119902388D01*
X168249212Y-119951232D01*
X168249627Y-119953883D01*
X168256979Y-119988295D01*
X168270790Y-120003533D01*
X168300580Y-120007385D01*
X168315150Y-120007485D01*
X168369772Y-120003341D01*
X168440969Y-119992342D01*
X168518181Y-119976636D01*
X168590851Y-119958372D01*
X168648420Y-119939700D01*
X168648619Y-119939621D01*
X168737120Y-119896655D01*
X168818578Y-119841706D01*
X168884114Y-119781140D01*
X168904085Y-119756487D01*
X168928974Y-119715779D01*
X168959244Y-119656707D01*
X168990711Y-119587845D01*
X169014171Y-119530863D01*
X169051992Y-119435474D01*
X169082977Y-119362064D01*
X169109592Y-119305580D01*
X169134304Y-119260970D01*
X169159579Y-119223181D01*
X169172976Y-119205548D01*
X169201198Y-119174442D01*
X169239350Y-119138473D01*
X169281708Y-119102251D01*
X169322548Y-119070387D01*
X169356144Y-119047492D01*
X169376773Y-119038177D01*
X169379827Y-119038934D01*
X169386228Y-119054974D01*
X169397944Y-119092855D01*
X169413243Y-119146717D01*
X169428492Y-119203439D01*
X169461510Y-119319030D01*
X169495293Y-119412906D01*
X169533233Y-119491820D01*
X169578720Y-119562525D01*
X169635143Y-119631773D01*
X169653935Y-119652439D01*
X169693462Y-119695801D01*
X169723191Y-119732477D01*
X169744427Y-119767494D01*
X169758472Y-119805878D01*
X169766629Y-119852658D01*
X169770202Y-119912859D01*
X169770495Y-119991510D01*
X169768810Y-120093637D01*
X169768776Y-120095395D01*
X169764716Y-120304803D01*
X169807597Y-120365443D01*
X169842468Y-120408912D01*
X169880418Y-120447839D01*
X169894569Y-120459786D01*
X169938659Y-120493489D01*
X170093452Y-120125416D01*
X170145341Y-120001890D01*
X170187213Y-119901067D01*
X170220088Y-119819281D01*
X170244987Y-119752865D01*
X170262930Y-119698153D01*
X170274939Y-119651477D01*
X170282033Y-119609170D01*
X170285234Y-119567566D01*
X170285560Y-119522998D01*
X170284035Y-119471799D01*
X170282970Y-119444462D01*
X170270521Y-119299206D01*
X170244114Y-119173076D01*
X170201683Y-119059204D01*
X170141163Y-118950719D01*
X170128973Y-118932387D01*
X170091480Y-118879392D01*
X170052659Y-118828097D01*
X170016709Y-118783650D01*
X169987830Y-118751200D01*
X169970219Y-118735895D01*
X169968278Y-118735340D01*
X169968123Y-118748542D01*
X169970931Y-118784208D01*
X169976179Y-118836426D01*
X169981278Y-118881851D01*
X169988612Y-118958597D01*
X169994122Y-119044024D01*
X169997686Y-119131818D01*
X169999183Y-119215665D01*
X169998492Y-119289250D01*
X169995492Y-119346260D01*
X169990816Y-119377806D01*
X169985260Y-119383972D01*
X169976560Y-119369711D01*
X169964046Y-119333085D01*
X169947045Y-119272156D01*
X169927144Y-119194102D01*
X169895899Y-119078445D01*
X169862133Y-118977416D01*
X169822835Y-118885628D01*
X169774993Y-118797698D01*
X169715595Y-118708239D01*
X169641630Y-118611867D01*
X169550087Y-118503195D01*
X169524243Y-118473637D01*
X169475290Y-118422808D01*
X169416045Y-118371040D01*
X169341686Y-118314458D01*
X169247392Y-118249188D01*
X169232739Y-118239411D01*
X169107739Y-118152009D01*
X169038231Y-118098104D01*
X169929094Y-118098104D01*
X169929094Y-118304200D01*
X170125633Y-118478246D01*
X170242229Y-118584106D01*
X170337828Y-118677026D01*
X170415132Y-118760058D01*
X170476842Y-118836253D01*
X170525658Y-118908663D01*
X170557165Y-118965761D01*
X170611942Y-119075204D01*
X170733391Y-118901699D01*
X170784247Y-118831875D01*
X170837727Y-118763223D01*
X170888098Y-118702816D01*
X170929629Y-118657727D01*
X170936588Y-118650963D01*
X170978122Y-118609796D01*
X170999504Y-118583058D01*
X171003016Y-118567461D01*
X170998076Y-118562393D01*
X170981153Y-118551320D01*
X170944274Y-118526176D01*
X170890865Y-118489332D01*
X170824356Y-118443159D01*
X170748175Y-118390029D01*
X170685728Y-118346325D01*
X170538955Y-118244798D01*
X170403934Y-118154107D01*
X170282298Y-118075245D01*
X170175682Y-118009205D01*
X170085722Y-117956981D01*
X170014051Y-117919568D01*
X169962304Y-117897958D01*
X169939814Y-117892832D01*
X169936016Y-117905982D01*
X169932809Y-117942705D01*
X169930456Y-117997989D01*
X169929218Y-118066821D01*
X169929094Y-118098104D01*
X169038231Y-118098104D01*
X168995303Y-118064813D01*
X168898664Y-117980664D01*
X168821058Y-117902405D01*
X168765717Y-117832878D01*
X168759868Y-117823904D01*
X168731002Y-117771748D01*
X168701752Y-117708842D01*
X168685129Y-117666882D01*
X168667593Y-117621654D01*
X168652595Y-117589520D01*
X168643518Y-117577546D01*
X168627050Y-117585308D01*
X168597217Y-117604779D01*
X168584685Y-117613781D01*
X168511748Y-117684761D01*
X168451667Y-117780235D01*
X168404764Y-117899000D01*
X168371360Y-118039858D01*
X168351775Y-118201609D01*
X168346332Y-118383051D01*
X168349558Y-118492347D01*
X168357558Y-118616022D01*
X168369161Y-118718632D01*
X168385868Y-118807620D01*
X168409177Y-118890431D01*
X168440587Y-118974507D01*
X168452206Y-119001997D01*
X168488390Y-119097275D01*
X168505843Y-119173918D01*
X168504753Y-119234722D01*
X168485307Y-119282481D01*
X168472213Y-119298792D01*
X168444148Y-119323611D01*
X168421366Y-119335501D01*
X168419422Y-119335678D01*
X168393150Y-119348818D01*
X168372022Y-119383759D01*
X168359189Y-119433787D01*
X168356781Y-119469125D01*
X168356781Y-119539037D01*
X168424115Y-119528939D01*
X168537743Y-119502228D01*
X168639218Y-119456520D01*
X168733405Y-119388872D01*
X168825169Y-119296339D01*
X168842769Y-119275658D01*
X168878571Y-119233665D01*
X168906900Y-119202283D01*
X168923356Y-119186308D01*
X168925644Y-119185320D01*
X168923316Y-119199697D01*
X168913293Y-119234110D01*
X168897604Y-119281714D01*
X168893939Y-119292289D01*
X168839203Y-119417953D01*
X168770523Y-119519158D01*
X168686204Y-119597209D01*
X168584548Y-119653413D01*
X168463859Y-119689075D01*
X168360350Y-119703085D01*
X168256715Y-119711443D01*
X168242397Y-119764619D01*
X168234429Y-119811807D01*
X168234182Y-119855620D01*
X168016482Y-119855620D01*
X168016123Y-119827232D01*
X168016103Y-119826772D01*
X168014538Y-119744280D01*
X168019359Y-119683259D01*
X168032328Y-119636970D01*
X168055208Y-119598675D01*
X168083980Y-119567164D01*
X168110946Y-119539557D01*
X168127575Y-119515471D01*
X168136937Y-119486364D01*
X168142103Y-119443696D01*
X168145098Y-119397196D01*
X168150499Y-119332091D01*
X168159437Y-119285772D01*
X168174463Y-119248455D01*
X168191103Y-119220729D01*
X168230354Y-119161416D01*
X168178464Y-119040628D01*
X168144710Y-118959326D01*
X168118405Y-118887675D01*
X168098577Y-118820057D01*
X168084252Y-118750857D01*
X168074456Y-118674457D01*
X168068215Y-118585242D01*
X168064555Y-118477594D01*
X168062822Y-118373598D01*
X168058830Y-118047591D01*
X167953916Y-117937639D01*
X167891675Y-117869266D01*
X167831642Y-117796200D01*
X167770812Y-117714205D01*
X167706176Y-117619046D01*
X167634729Y-117506488D01*
X167558323Y-117380453D01*
X167509385Y-117298924D01*
X167459063Y-117216007D01*
X167411781Y-117138928D01*
X167371964Y-117074917D01*
X167353555Y-117045880D01*
X167279120Y-116929842D01*
X167225100Y-116990715D01*
X167196973Y-117027060D01*
X167172703Y-117070491D01*
X167149092Y-117127806D01*
X167122945Y-117205804D01*
X167120927Y-117212245D01*
X167084855Y-117322638D01*
X167050864Y-117413566D01*
X167015140Y-117493538D01*
X166973868Y-117571061D01*
X166923233Y-117654644D01*
X166920888Y-117658344D01*
X166885798Y-117714374D01*
X166864170Y-117752418D01*
X166853906Y-117778474D01*
X166852907Y-117798536D01*
X166859073Y-117818601D01*
X166862208Y-117825981D01*
X166874455Y-117853231D01*
X166896429Y-117901229D01*
X166925755Y-117964822D01*
X166960059Y-118038860D01*
X166991478Y-118106415D01*
X167045369Y-118222130D01*
X167088501Y-118315385D01*
X167122120Y-118389665D01*
X167147469Y-118448455D01*
X167165794Y-118495240D01*
X167178340Y-118533506D01*
X167186352Y-118566737D01*
X167191074Y-118598419D01*
X167193752Y-118632037D01*
X167195630Y-118671076D01*
X167195978Y-118678918D01*
X167196954Y-118762047D01*
X167190904Y-118838452D01*
X167176311Y-118915950D01*
X167151662Y-119002360D01*
X167115443Y-119105499D01*
X167111078Y-119117160D01*
X167066954Y-119234546D01*
X166941215Y-119117669D01*
X166815475Y-119000793D01*
X166856442Y-118954135D01*
X166886431Y-118910982D01*
X166904509Y-118860183D01*
X166911940Y-118795474D01*
X166909986Y-118710590D01*
X166908854Y-118694269D01*
X166903389Y-118640634D01*
X166894317Y-118588597D01*
X166880200Y-118534348D01*
X166859603Y-118474074D01*
X166831088Y-118403964D01*
X166793220Y-118320208D01*
X166744562Y-118218994D01*
X166683678Y-118096511D01*
X166683228Y-118095615D01*
X166634672Y-117998651D01*
X166597667Y-117923596D01*
X166570829Y-117866866D01*
X166552774Y-117824875D01*
X166542120Y-117794040D01*
X166537483Y-117770776D01*
X166537480Y-117751496D01*
X166540727Y-117732617D01*
X166541626Y-117728654D01*
X166551871Y-117656750D01*
X166555180Y-117567750D01*
X166551882Y-117472207D01*
X166542307Y-117380673D01*
X166528589Y-117310425D01*
X166482563Y-117174006D01*
X166414217Y-117028801D01*
X166326463Y-116879455D01*
X166222217Y-116730616D01*
X166104392Y-116586927D01*
X166014724Y-116491221D01*
X165851674Y-116326843D01*
X165836602Y-116369724D01*
X165832820Y-116394795D01*
X165829516Y-116444584D01*
X165826705Y-116515226D01*
X165824402Y-116602855D01*
X165822625Y-116703606D01*
X165821388Y-116813613D01*
X165820708Y-116929010D01*
X165820600Y-117045932D01*
X165821081Y-117160513D01*
X165822166Y-117268889D01*
X165823872Y-117367193D01*
X165826213Y-117451559D01*
X165829206Y-117518123D01*
X165831743Y-117552532D01*
X165843647Y-117677603D01*
X165904303Y-117677603D01*
X165943785Y-117679499D01*
X165969814Y-117684249D01*
X165973715Y-117686358D01*
X165967809Y-117698352D01*
X165943500Y-117720384D01*
X165915349Y-117741152D01*
X165844802Y-117803610D01*
X165776958Y-117890079D01*
X165713498Y-117996006D01*
X165656099Y-118116833D01*
X165606442Y-118248004D01*
X165566204Y-118384963D01*
X165537065Y-118523154D01*
X165520704Y-118658020D01*
X165518799Y-118785005D01*
X165520571Y-118812480D01*
X165530262Y-118931913D01*
X165446251Y-118990449D01*
X165397877Y-119024545D01*
X165353573Y-119056435D01*
X165324485Y-119078042D01*
X165304606Y-119092259D01*
X165290569Y-119096280D01*
X165280337Y-119086370D01*
X165271876Y-119058794D01*
X165263149Y-119009817D01*
X165254031Y-118948765D01*
X165245180Y-118851421D01*
X165243286Y-118736650D01*
X165247945Y-118614650D01*
X165258756Y-118495618D01*
X165275317Y-118389751D01*
X165276256Y-118385144D01*
X165306915Y-118260501D01*
X165348040Y-118127859D01*
X165395790Y-117998258D01*
X165446324Y-117882737D01*
X165461770Y-117851865D01*
X165490798Y-117795117D01*
X165508037Y-117757177D01*
X165515092Y-117731599D01*
X165513569Y-117711933D01*
X165505073Y-117691734D01*
X165502766Y-117687233D01*
X165483595Y-117657240D01*
X165451128Y-117613387D01*
X165411041Y-117563194D01*
X165392241Y-117540793D01*
X165316430Y-117438742D01*
X165246604Y-117316670D01*
X165181954Y-117172676D01*
X165121670Y-117004861D01*
X165064943Y-116811327D01*
X165039936Y-116713609D01*
X165002332Y-116544887D01*
X164975807Y-116386118D01*
X164959121Y-116226756D01*
X164951030Y-116056253D01*
X164949786Y-115948059D01*
X164950956Y-115908767D01*
X165244326Y-115908767D01*
X165248833Y-116040314D01*
X165260863Y-116186289D01*
X165279591Y-116340370D01*
X165304195Y-116496232D01*
X165333852Y-116647552D01*
X165367737Y-116788004D01*
X165384921Y-116848565D01*
X165403807Y-116907069D01*
X165427575Y-116974129D01*
X165454256Y-117044932D01*
X165481878Y-117114671D01*
X165508471Y-117178534D01*
X165532065Y-117231713D01*
X165550689Y-117269397D01*
X165562373Y-117286777D01*
X165564558Y-117287084D01*
X165563975Y-117271913D01*
X165559040Y-117232844D01*
X165550388Y-117174128D01*
X165538652Y-117100016D01*
X165524467Y-117014759D01*
X165520216Y-116989897D01*
X165492616Y-116824857D01*
X165470695Y-116682338D01*
X165453897Y-116556959D01*
X165441669Y-116443342D01*
X165433454Y-116336106D01*
X165428698Y-116229872D01*
X165426845Y-116119261D01*
X165426772Y-116084276D01*
X165427191Y-115979076D01*
X165429104Y-115899048D01*
X165433789Y-115840776D01*
X165442523Y-115800845D01*
X165456585Y-115775841D01*
X165477252Y-115762347D01*
X165505801Y-115756950D01*
X165543510Y-115756232D01*
X165549467Y-115756309D01*
X165617142Y-115762965D01*
X165684838Y-115782195D01*
X165755362Y-115815813D01*
X165831520Y-115865633D01*
X165916117Y-115933468D01*
X166011959Y-116021132D01*
X166110663Y-116119003D01*
X166212270Y-116227116D01*
X166312026Y-116341686D01*
X166404090Y-116455629D01*
X166482620Y-116561862D01*
X166513115Y-116606994D01*
X166578602Y-116716419D01*
X166640476Y-116836350D01*
X166695860Y-116959950D01*
X166741877Y-117080383D01*
X166775650Y-117190812D01*
X166792446Y-117270791D01*
X166799142Y-117310352D01*
X166804705Y-117324795D01*
X166811293Y-117317396D01*
X166815752Y-117306238D01*
X166822036Y-117281906D01*
X166832083Y-117234264D01*
X166844946Y-117168200D01*
X166859678Y-117088601D01*
X166875331Y-117000355D01*
X166877979Y-116985058D01*
X166897496Y-116872672D01*
X166916247Y-116766530D01*
X166935287Y-116660887D01*
X166955673Y-116549998D01*
X166978459Y-116428116D01*
X167004703Y-116289497D01*
X167023496Y-116191052D01*
X167317549Y-116191052D01*
X167317719Y-116207238D01*
X167330635Y-116201440D01*
X167354533Y-116176306D01*
X167387647Y-116134482D01*
X167428211Y-116078616D01*
X167474459Y-116011353D01*
X167524626Y-115935341D01*
X167576946Y-115853227D01*
X167629655Y-115767657D01*
X167680986Y-115681279D01*
X167729174Y-115596738D01*
X167772453Y-115516682D01*
X167789510Y-115483512D01*
X167811160Y-115440630D01*
X167821396Y-115481173D01*
X167826245Y-115527592D01*
X167824194Y-115594661D01*
X167815931Y-115675470D01*
X167802148Y-115763107D01*
X167785128Y-115844068D01*
X167722238Y-116046174D01*
X167631820Y-116242031D01*
X167514491Y-116430377D01*
X167463708Y-116498778D01*
X167432347Y-116540427D01*
X167409382Y-116573336D01*
X167399244Y-116591110D01*
X167399100Y-116591965D01*
X167407298Y-116606672D01*
X167429533Y-116638943D01*
X167462267Y-116683794D01*
X167496274Y-116728831D01*
X167538441Y-116784539D01*
X167574468Y-116834096D01*
X167607940Y-116883031D01*
X167642442Y-116936872D01*
X167681559Y-117001149D01*
X167728875Y-117081390D01*
X167763904Y-117141587D01*
X167826927Y-117249788D01*
X167878485Y-117337182D01*
X167921137Y-117407872D01*
X167957447Y-117465960D01*
X167989974Y-117515549D01*
X168021281Y-117560742D01*
X168051943Y-117602959D01*
X168131314Y-117710286D01*
X168175074Y-117633196D01*
X168223346Y-117562717D01*
X168289160Y-117486576D01*
X168365331Y-117411617D01*
X168444671Y-117344682D01*
X168519995Y-117292616D01*
X168549984Y-117276194D01*
X168608956Y-117249352D01*
X168657007Y-117234457D01*
X168707428Y-117228258D01*
X168749559Y-117227349D01*
X168806509Y-117228870D01*
X168845799Y-117235339D01*
X168878278Y-117249619D01*
X168907091Y-117268913D01*
X168947548Y-117302720D01*
X168994156Y-117348004D01*
X169028588Y-117385590D01*
X169060789Y-117422471D01*
X169084681Y-117448471D01*
X169095349Y-117458252D01*
X169095457Y-117458211D01*
X169093573Y-117444190D01*
X169086369Y-117408844D01*
X169075197Y-117358642D01*
X169069577Y-117334388D01*
X169041942Y-117209090D01*
X169017284Y-117080751D01*
X168995332Y-116946619D01*
X168975812Y-116803945D01*
X168958452Y-116649979D01*
X168942981Y-116481970D01*
X168929125Y-116297168D01*
X168916612Y-116092824D01*
X168905170Y-115866186D01*
X168894527Y-115614506D01*
X168891576Y-115537113D01*
X168885095Y-115363419D01*
X169205720Y-115363419D01*
X169206174Y-115427188D01*
X169207525Y-115508827D01*
X169209667Y-115604773D01*
X169212490Y-115711462D01*
X169215888Y-115825331D01*
X169219752Y-115942817D01*
X169223975Y-116060355D01*
X169228449Y-116174381D01*
X169233068Y-116281333D01*
X169237722Y-116377647D01*
X169242304Y-116459759D01*
X169243379Y-116476927D01*
X169250528Y-116574289D01*
X169259564Y-116675967D01*
X169269974Y-116778005D01*
X169281242Y-116876445D01*
X169292855Y-116967329D01*
X169304300Y-117046698D01*
X169315061Y-117110597D01*
X169324624Y-117155065D01*
X169332477Y-117176147D01*
X169334354Y-117177321D01*
X169348025Y-117172978D01*
X169381185Y-117161646D01*
X169422129Y-117147364D01*
X169556063Y-117114744D01*
X169692280Y-117110349D01*
X169831175Y-117134221D01*
X169973143Y-117186401D01*
X170018720Y-117208788D01*
X170069168Y-117238173D01*
X170124735Y-117275538D01*
X170180281Y-117316767D01*
X170230669Y-117357744D01*
X170270758Y-117394351D01*
X170295409Y-117422473D01*
X170300732Y-117434670D01*
X170288056Y-117434681D01*
X170253382Y-117426709D01*
X170201732Y-117412092D01*
X170138135Y-117392167D01*
X170125633Y-117388063D01*
X170048219Y-117363214D01*
X169988637Y-117346624D01*
X169937899Y-117336651D01*
X169887022Y-117331651D01*
X169827018Y-117329980D01*
X169807597Y-117329886D01*
X169731001Y-117331231D01*
X169672947Y-117336584D01*
X169623508Y-117347364D01*
X169578897Y-117362602D01*
X169485985Y-117410841D01*
X169433832Y-117458211D01*
X169416737Y-117473738D01*
X169371526Y-117549377D01*
X169350724Y-117635840D01*
X169354704Y-117731212D01*
X169383837Y-117833576D01*
X169438496Y-117941015D01*
X169460097Y-117974198D01*
X169486182Y-118008769D01*
X169507463Y-118030773D01*
X169515262Y-118034947D01*
X169525532Y-118022474D01*
X169528417Y-117990188D01*
X169524300Y-117945786D01*
X169513564Y-117896968D01*
X169507428Y-117877715D01*
X169488453Y-117799324D01*
X169492535Y-117733180D01*
X169518671Y-117676143D01*
X169561510Y-117631879D01*
X169620281Y-117605184D01*
X169698139Y-117595046D01*
X169765074Y-117597211D01*
X169856751Y-117609895D01*
X169955860Y-117634405D01*
X170064275Y-117671642D01*
X170183869Y-117722505D01*
X170316516Y-117787893D01*
X170464089Y-117868708D01*
X170628462Y-117965848D01*
X170811509Y-118080214D01*
X170929657Y-118156547D01*
X171054373Y-118237086D01*
X171176972Y-118314587D01*
X171293510Y-118386653D01*
X171400046Y-118450891D01*
X171492637Y-118504905D01*
X171567341Y-118546301D01*
X171594316Y-118560297D01*
X171610652Y-118567461D01*
X171749912Y-118628532D01*
X171909607Y-118679900D01*
X172067632Y-118713165D01*
X172218216Y-118727088D01*
X172346478Y-118721599D01*
X172551999Y-118683543D01*
X172743661Y-118620889D01*
X172921885Y-118533357D01*
X173087098Y-118420668D01*
X173239722Y-118282542D01*
X173380181Y-118118701D01*
X173480320Y-117974830D01*
X173489616Y-117958304D01*
X173487924Y-117952339D01*
X173471864Y-117958094D01*
X173438054Y-117976730D01*
X173387870Y-118006547D01*
X173210629Y-118098989D01*
X173034058Y-118162879D01*
X172858199Y-118198211D01*
X172683094Y-118204983D01*
X172508784Y-118183190D01*
X172335311Y-118132829D01*
X172274709Y-118108413D01*
X172108410Y-118023476D01*
X171952585Y-117916460D01*
X171805774Y-117785982D01*
X171666517Y-117630663D01*
X171533353Y-117449121D01*
X171465829Y-117343569D01*
X171355994Y-117146312D01*
X171252758Y-116925535D01*
X171157644Y-116685849D01*
X171072174Y-116431867D01*
X170997870Y-116168201D01*
X170936256Y-115899464D01*
X170888852Y-115630268D01*
X170880188Y-115569274D01*
X170870402Y-115497599D01*
X170861325Y-115432062D01*
X170854017Y-115380265D01*
X170849770Y-115351294D01*
X170842599Y-115304840D01*
X170655460Y-115304840D01*
X170468321Y-115304840D01*
X170477471Y-115382698D01*
X170490224Y-115473318D01*
X170509257Y-115584753D01*
X170533226Y-115710264D01*
X170560788Y-115843115D01*
X170590598Y-115976568D01*
X170621310Y-116103885D01*
X170621664Y-116105290D01*
X170718274Y-116443850D01*
X170832320Y-116760796D01*
X170964707Y-117057840D01*
X171116340Y-117336690D01*
X171288126Y-117599058D01*
X171480968Y-117846654D01*
X171633679Y-118017071D01*
X171693004Y-118079760D01*
X171750289Y-118140491D01*
X171800460Y-118193873D01*
X171838444Y-118234511D01*
X171850844Y-118247893D01*
X171908779Y-118310755D01*
X171823016Y-118263537D01*
X171593842Y-118122337D01*
X171381445Y-117960164D01*
X171185606Y-117776651D01*
X171006106Y-117571435D01*
X170842726Y-117344150D01*
X170695247Y-117094430D01*
X170563449Y-116821911D01*
X170447113Y-116526228D01*
X170346021Y-116207014D01*
X170259952Y-115863906D01*
X170199385Y-115558554D01*
X170153312Y-115297693D01*
X171179797Y-115297693D01*
X171184121Y-115376308D01*
X171189364Y-115435589D01*
X171199319Y-115516485D01*
X171212968Y-115612604D01*
X171229292Y-115717552D01*
X171247273Y-115824938D01*
X171265894Y-115928369D01*
X171284136Y-116021453D01*
X171294704Y-116070690D01*
X171364295Y-116337177D01*
X171450593Y-116592904D01*
X171552132Y-116834854D01*
X171667446Y-117060011D01*
X171795071Y-117265360D01*
X171933541Y-117447884D01*
X172000560Y-117523441D01*
X172139678Y-117656618D01*
X172281504Y-117761387D01*
X172425986Y-117837735D01*
X172573073Y-117885650D01*
X172722714Y-117905121D01*
X172874857Y-117896137D01*
X173029452Y-117858685D01*
X173182775Y-117794608D01*
X173292765Y-117733214D01*
X173392600Y-117663828D01*
X173483245Y-117584578D01*
X173565662Y-117493591D01*
X173640814Y-117388995D01*
X173709664Y-117268916D01*
X173773176Y-117131481D01*
X173832313Y-116974818D01*
X173888037Y-116797054D01*
X173941312Y-116596316D01*
X173993100Y-116370732D01*
X174044143Y-116119584D01*
X174064512Y-116012721D01*
X174085358Y-115901148D01*
X174106005Y-115788704D01*
X174125774Y-115679227D01*
X174143988Y-115576555D01*
X174159970Y-115484528D01*
X174173042Y-115406983D01*
X174182527Y-115347760D01*
X174187748Y-115310697D01*
X174188556Y-115301201D01*
X174174584Y-115299766D01*
X174133890Y-115298456D01*
X174068339Y-115297278D01*
X173979796Y-115296241D01*
X173870126Y-115295354D01*
X173741195Y-115294626D01*
X173594868Y-115294066D01*
X173433009Y-115293683D01*
X173257485Y-115293485D01*
X173070160Y-115293482D01*
X172872900Y-115293682D01*
X172684215Y-115294054D01*
X171179797Y-115297693D01*
X170153312Y-115297693D01*
X170152050Y-115290546D01*
X169684072Y-115290546D01*
X169562980Y-115290939D01*
X169454988Y-115292064D01*
X169362957Y-115293842D01*
X169289748Y-115296194D01*
X169238223Y-115299040D01*
X169211242Y-115302302D01*
X169207934Y-115303749D01*
X169206270Y-115321085D01*
X169205720Y-115363419D01*
X168885095Y-115363419D01*
X168882376Y-115290546D01*
X168669879Y-115290546D01*
X168587935Y-115290693D01*
X168530156Y-115291567D01*
X168492119Y-115293816D01*
X168469402Y-115298087D01*
X168457583Y-115305030D01*
X168452240Y-115315291D01*
X168450432Y-115322707D01*
X168446952Y-115346318D01*
X168441272Y-115393552D01*
X168433927Y-115459575D01*
X168425451Y-115539552D01*
X168416379Y-115628649D01*
X168414466Y-115647890D01*
X168393054Y-115864988D01*
X168374387Y-116056253D01*
X168358230Y-116224285D01*
X168344347Y-116371682D01*
X168332503Y-116501044D01*
X168322462Y-116614970D01*
X168313989Y-116716059D01*
X168306847Y-116806909D01*
X168300803Y-116890121D01*
X168297575Y-116937901D01*
X168291658Y-117021814D01*
X168285710Y-117094978D01*
X168280157Y-117152984D01*
X168275421Y-117191424D01*
X168271925Y-117205891D01*
X168271829Y-117205909D01*
X168263232Y-117192714D01*
X168250464Y-117156468D01*
X168234818Y-117102180D01*
X168217588Y-117034861D01*
X168200067Y-116959520D01*
X168183549Y-116881165D01*
X168171528Y-116817443D01*
X168157054Y-116731384D01*
X168144951Y-116648607D01*
X168134951Y-116565141D01*
X168126782Y-116477013D01*
X168120175Y-116380253D01*
X168114859Y-116270888D01*
X168110565Y-116144947D01*
X168107022Y-115998459D01*
X168103960Y-115827451D01*
X168103890Y-115822988D01*
X168095537Y-115290546D01*
X167761612Y-115290546D01*
X167427687Y-115290546D01*
X167427687Y-115304840D01*
X167427687Y-115388120D01*
X167423601Y-115501728D01*
X167412030Y-115635084D01*
X167394011Y-115780646D01*
X167370578Y-115930871D01*
X167342764Y-116078219D01*
X167317549Y-116191052D01*
X167023496Y-116191052D01*
X167034410Y-116133877D01*
X167054918Y-116019493D01*
X167075638Y-115890990D01*
X167095341Y-115757058D01*
X167112798Y-115626383D01*
X167126781Y-115507654D01*
X167135004Y-115422763D01*
X167144787Y-115304840D01*
X166243347Y-115304840D01*
X165341907Y-115304840D01*
X165319488Y-115379882D01*
X165298254Y-115463876D01*
X165278300Y-115566604D01*
X165261305Y-115678214D01*
X165248952Y-115788855D01*
X165248163Y-115797974D01*
X165244326Y-115908767D01*
X164950956Y-115908767D01*
X164955849Y-115744388D01*
X164974921Y-115561929D01*
X165007827Y-115396030D01*
X165055395Y-115242040D01*
X165090730Y-115154755D01*
X165097975Y-115135980D01*
X165103260Y-115119174D01*
X165108112Y-115104226D01*
X165114061Y-115091025D01*
X165122636Y-115079459D01*
X165135366Y-115069416D01*
X165153780Y-115060785D01*
X165179407Y-115053454D01*
X165213775Y-115047311D01*
X165258414Y-115042245D01*
X165314853Y-115038145D01*
X165384620Y-115034898D01*
X165469245Y-115032393D01*
X165570257Y-115030519D01*
X165689185Y-115029163D01*
X165827557Y-115028215D01*
X165986902Y-115027562D01*
X166168750Y-115027094D01*
X166374630Y-115026697D01*
X166606070Y-115026262D01*
X166858882Y-115025690D01*
X167047954Y-115025194D01*
X167263113Y-115024604D01*
X167501856Y-115023928D01*
X167761682Y-115023174D01*
X168040092Y-115022349D01*
X168334582Y-115021462D01*
X168642653Y-115020520D01*
X168961803Y-115019531D01*
X169289531Y-115018502D01*
X169623335Y-115017442D01*
X169960715Y-115016359D01*
X170299169Y-115015259D01*
X170636197Y-115014151D01*
X170969295Y-115013043D01*
X171295965Y-115011943D01*
X171547862Y-115011084D01*
X174560270Y-115000751D01*
X174560270Y-115034265D01*
X174557767Y-115059009D01*
X174550668Y-115108303D01*
X174539589Y-115178593D01*
X174525146Y-115266320D01*
X174519245Y-115301201D01*
X174507955Y-115367928D01*
G37*
G36*
X166288031Y-118054519D02*
G01*
X166291119Y-118088089D01*
X166293887Y-118138890D01*
X166295442Y-118182890D01*
X166299405Y-118254365D01*
X166306577Y-118324227D01*
X166315716Y-118381626D01*
X166320498Y-118401779D01*
X166356948Y-118484828D01*
X166418261Y-118569411D01*
X166501274Y-118651433D01*
X166534080Y-118678165D01*
X166601658Y-118731077D01*
X166649717Y-118770362D01*
X166681560Y-118799609D01*
X166700490Y-118822408D01*
X166709809Y-118842350D01*
X166712821Y-118863022D01*
X166712999Y-118872612D01*
X166710686Y-118905103D01*
X166705019Y-118920875D01*
X166704051Y-118921159D01*
X166687682Y-118916171D01*
X166651201Y-118902792D01*
X166600978Y-118883398D01*
X166571323Y-118871636D01*
X166461502Y-118830719D01*
X166366195Y-118803077D01*
X166275612Y-118786928D01*
X166179963Y-118780491D01*
X166076927Y-118781696D01*
X165995994Y-118785710D01*
X165932905Y-118792055D01*
X165876919Y-118802677D01*
X165817295Y-118819523D01*
X165757315Y-118839639D01*
X165693304Y-118861529D01*
X165652568Y-118874166D01*
X165631561Y-118878186D01*
X165626739Y-118874230D01*
X165634555Y-118862934D01*
X165635818Y-118861511D01*
X165656904Y-118843332D01*
X165697022Y-118813268D01*
X165751171Y-118774910D01*
X165814346Y-118731850D01*
X165843124Y-118712726D01*
X165910872Y-118666431D01*
X165973608Y-118620587D01*
X166025620Y-118579579D01*
X166061199Y-118547790D01*
X166068928Y-118539395D01*
X166115199Y-118472743D01*
X166161781Y-118385989D01*
X166204794Y-118287308D01*
X166240356Y-118184878D01*
X166245435Y-118167493D01*
X166261238Y-118113500D01*
X166274610Y-118071027D01*
X166283386Y-118046834D01*
X166285049Y-118043855D01*
X166288031Y-118054519D01*
G37*
G36*
X167819205Y-118589324D02*
G01*
X167803166Y-118610990D01*
X167774471Y-118646593D01*
X167759468Y-118664960D01*
X167704611Y-118730124D01*
X167643660Y-118799300D01*
X167580356Y-118868573D01*
X167518439Y-118934030D01*
X167461652Y-118991758D01*
X167413737Y-119037841D01*
X167378434Y-119068368D01*
X167365132Y-119077445D01*
X167332691Y-119089689D01*
X167311997Y-119082722D01*
X167310829Y-119081600D01*
X167312924Y-119064413D01*
X167334521Y-119031556D01*
X167373144Y-118985641D01*
X167426317Y-118929281D01*
X167491567Y-118865088D01*
X167566417Y-118795675D01*
X167648392Y-118723655D01*
X167656387Y-118716835D01*
X167726418Y-118657339D01*
X167776195Y-118615604D01*
X167807239Y-118590867D01*
X167821070Y-118582362D01*
X167819205Y-118589324D01*
G37*
G36*
X164658407Y-118797947D02*
G01*
X164692137Y-118821052D01*
X164744588Y-118863295D01*
X164747608Y-118865833D01*
X164817813Y-118927040D01*
X164885184Y-118989603D01*
X164945198Y-119049000D01*
X164993330Y-119100707D01*
X165025055Y-119140203D01*
X165030401Y-119148491D01*
X165045445Y-119178236D01*
X165044295Y-119195710D01*
X165033559Y-119206971D01*
X165020434Y-119212011D01*
X165001998Y-119205607D01*
X164974059Y-119185020D01*
X164932426Y-119147512D01*
X164910215Y-119126407D01*
X164854991Y-119069780D01*
X164795008Y-119002276D01*
X164736582Y-118931545D01*
X164686031Y-118865237D01*
X164649670Y-118811003D01*
X164649302Y-118810383D01*
X164643946Y-118794287D01*
X164658407Y-118797947D01*
G37*
G36*
X167321877Y-120513049D02*
G01*
X167301109Y-120747843D01*
X167261690Y-120943725D01*
X167201679Y-121133717D01*
X167123052Y-121306780D01*
X167027357Y-121461613D01*
X166916144Y-121596913D01*
X166790962Y-121711379D01*
X166653360Y-121803710D01*
X166504887Y-121872604D01*
X166347093Y-121916760D01*
X166181528Y-121934876D01*
X166084123Y-121933041D01*
X165904371Y-121908086D01*
X165737090Y-121857623D01*
X165582865Y-121782143D01*
X165442286Y-121682141D01*
X165315938Y-121558107D01*
X165204409Y-121410536D01*
X165108287Y-121239918D01*
X165028497Y-121047711D01*
X164993937Y-120940993D01*
X164968548Y-120839905D01*
X164951214Y-120736907D01*
X164940817Y-120624455D01*
X164936239Y-120495010D01*
X164935783Y-120422003D01*
X164936896Y-120387029D01*
X165184639Y-120387029D01*
X165190113Y-120583583D01*
X165204556Y-120700732D01*
X165215613Y-120765775D01*
X165226338Y-120818602D01*
X165239112Y-120867937D01*
X165256314Y-120922502D01*
X165280325Y-120991020D01*
X165294261Y-121029488D01*
X165363576Y-121183222D01*
X165452750Y-121321129D01*
X165559347Y-121440791D01*
X165680934Y-121539787D01*
X165815074Y-121615697D01*
X165925864Y-121657036D01*
X166023798Y-121675692D01*
X166136015Y-121680569D01*
X166251920Y-121671973D01*
X166360916Y-121650208D01*
X166382181Y-121643916D01*
X166521573Y-121585504D01*
X166646598Y-121502803D01*
X166757375Y-121395668D01*
X166854022Y-121263954D01*
X166936654Y-121107515D01*
X167005391Y-120926207D01*
X167029853Y-120843669D01*
X167041298Y-120798529D01*
X167049637Y-120754975D01*
X167055346Y-120707214D01*
X167058897Y-120649454D01*
X167060765Y-120575903D01*
X167061425Y-120480768D01*
X167061455Y-120457738D01*
X167060034Y-120330404D01*
X167054837Y-120224364D01*
X167044727Y-120132446D01*
X167028567Y-120047477D01*
X167005222Y-119962285D01*
X166973554Y-119869700D01*
X166964338Y-119844913D01*
X166895529Y-119694906D01*
X166808296Y-119558313D01*
X166705571Y-119438062D01*
X166590285Y-119337079D01*
X166465372Y-119258289D01*
X166333762Y-119204619D01*
X166318377Y-119200202D01*
X166241763Y-119186415D01*
X166149668Y-119180682D01*
X166054039Y-119182994D01*
X165966822Y-119193341D01*
X165933913Y-119200508D01*
X165800793Y-119249106D01*
X165673064Y-119322405D01*
X165555578Y-119416522D01*
X165453192Y-119527577D01*
X165371608Y-119650141D01*
X165295353Y-119815534D01*
X165238168Y-119997290D01*
X165200961Y-120189693D01*
X165184639Y-120387029D01*
X164936896Y-120387029D01*
X164941832Y-120231868D01*
X164960536Y-120061801D01*
X164993364Y-119905562D01*
X165041784Y-119756912D01*
X165107264Y-119609611D01*
X165142888Y-119541736D01*
X165238697Y-119387852D01*
X165345095Y-119258422D01*
X165465286Y-119150283D01*
X165602474Y-119060272D01*
X165662409Y-119028841D01*
X165822296Y-118965690D01*
X165988349Y-118930331D01*
X166159494Y-118922902D01*
X166334215Y-118943450D01*
X166401429Y-118961663D01*
X166482664Y-118991518D01*
X166567858Y-119029260D01*
X166580039Y-119035212D01*
X166733969Y-119127176D01*
X166871857Y-119242326D01*
X166992859Y-119379636D01*
X167096133Y-119538080D01*
X167180834Y-119716633D01*
X167213673Y-119806264D01*
X167278127Y-120041512D01*
X167314206Y-120277355D01*
X167320077Y-120457738D01*
X167321877Y-120513049D01*
G37*
G36*
X164199247Y-119071148D02*
G01*
X164231267Y-119088996D01*
X164275662Y-119114456D01*
X164290208Y-119122908D01*
X164344511Y-119155639D01*
X164412142Y-119198048D01*
X164488156Y-119246861D01*
X164567612Y-119298805D01*
X164645566Y-119350605D01*
X164717075Y-119398989D01*
X164777195Y-119440681D01*
X164820984Y-119472409D01*
X164837272Y-119485225D01*
X164866108Y-119513945D01*
X164882193Y-119538617D01*
X164883399Y-119544208D01*
X164873107Y-119562159D01*
X164843728Y-119561765D01*
X164797506Y-119543711D01*
X164736687Y-119508682D01*
X164710846Y-119491497D01*
X164657946Y-119453909D01*
X164596219Y-119407991D01*
X164528996Y-119356453D01*
X164459610Y-119302005D01*
X164391392Y-119247359D01*
X164327674Y-119195224D01*
X164271789Y-119148311D01*
X164227069Y-119109331D01*
X164196845Y-119080993D01*
X164184449Y-119066008D01*
X164185735Y-119064350D01*
X164199247Y-119071148D01*
G37*
G36*
X167872584Y-119270852D02*
G01*
X167850024Y-119288246D01*
X167812172Y-119312855D01*
X167806472Y-119316338D01*
X167736559Y-119356742D01*
X167665058Y-119394560D01*
X167597049Y-119427476D01*
X167537611Y-119453175D01*
X167491824Y-119469342D01*
X167464767Y-119473662D01*
X167462526Y-119473103D01*
X167445447Y-119457304D01*
X167454564Y-119434652D01*
X167488892Y-119407150D01*
X167497608Y-119401876D01*
X167527500Y-119387401D01*
X167575450Y-119367392D01*
X167634928Y-119344229D01*
X167699403Y-119320292D01*
X167762347Y-119297962D01*
X167817229Y-119279620D01*
X167857520Y-119267644D01*
X167875140Y-119264246D01*
X167872584Y-119270852D01*
G37*
G36*
X164029026Y-119598668D02*
G01*
X164066059Y-119611186D01*
X164122144Y-119630179D01*
X164193272Y-119654291D01*
X164275435Y-119682163D01*
X164304502Y-119692027D01*
X164433959Y-119736235D01*
X164538630Y-119772778D01*
X164620930Y-119802783D01*
X164683275Y-119827378D01*
X164728081Y-119847693D01*
X164757762Y-119864855D01*
X164774734Y-119879992D01*
X164781413Y-119894232D01*
X164780213Y-119908704D01*
X164778599Y-119913467D01*
X164765199Y-119929881D01*
X164739543Y-119934297D01*
X164697816Y-119926277D01*
X164636199Y-119905380D01*
X164605704Y-119893545D01*
X164563226Y-119875490D01*
X164505552Y-119849313D01*
X164436996Y-119817147D01*
X164361873Y-119781122D01*
X164284497Y-119743369D01*
X164209183Y-119706021D01*
X164140246Y-119671207D01*
X164082002Y-119641059D01*
X164038764Y-119617710D01*
X164014848Y-119603289D01*
X164011480Y-119600033D01*
X164015053Y-119593983D01*
X164029026Y-119598668D01*
G37*
G36*
X167900421Y-119764735D02*
G01*
X167822325Y-119797655D01*
X167743938Y-119824953D01*
X167670188Y-119845514D01*
X167606003Y-119858224D01*
X167556312Y-119861965D01*
X167526041Y-119855625D01*
X167520838Y-119850644D01*
X167520668Y-119827655D01*
X167529626Y-119814495D01*
X167555119Y-119801514D01*
X167602671Y-119787084D01*
X167665889Y-119772555D01*
X167738382Y-119759281D01*
X167813756Y-119748611D01*
X167866435Y-119743283D01*
X167963703Y-119735413D01*
X167900421Y-119764735D01*
G37*
G36*
X164023507Y-120126773D02*
G01*
X164083497Y-120132767D01*
X164154052Y-120141586D01*
X164211593Y-120149929D01*
X164317959Y-120167191D01*
X164416498Y-120184717D01*
X164502931Y-120201634D01*
X164572981Y-120217068D01*
X164622372Y-120230146D01*
X164643979Y-120238241D01*
X164664774Y-120256348D01*
X164668993Y-120267398D01*
X164655865Y-120277018D01*
X164619001Y-120279547D01*
X164562176Y-120275657D01*
X164489168Y-120266019D01*
X164403751Y-120251303D01*
X164309704Y-120232183D01*
X164210803Y-120209329D01*
X164110823Y-120183412D01*
X164013543Y-120155104D01*
X163982893Y-120145422D01*
X163918571Y-120124661D01*
X163982893Y-120124581D01*
X164023507Y-120126773D01*
G37*
G36*
X164615584Y-120594490D02*
G01*
X164650262Y-120596363D01*
X164672230Y-120599667D01*
X164684659Y-120604514D01*
X164690722Y-120611020D01*
X164691868Y-120613552D01*
X164694903Y-120638975D01*
X164691011Y-120647746D01*
X164673348Y-120651417D01*
X164631518Y-120654218D01*
X164569928Y-120656169D01*
X164492985Y-120657289D01*
X164405094Y-120657598D01*
X164310663Y-120657115D01*
X164214099Y-120655860D01*
X164119808Y-120653851D01*
X164032197Y-120651108D01*
X163955673Y-120647650D01*
X163904277Y-120644295D01*
X163833325Y-120638542D01*
X163788404Y-120634249D01*
X163767037Y-120630757D01*
X163766746Y-120627412D01*
X163785054Y-120623556D01*
X163811367Y-120619671D01*
X163846566Y-120616383D01*
X163905688Y-120612762D01*
X163984075Y-120609009D01*
X164077069Y-120605327D01*
X164180011Y-120601918D01*
X164286303Y-120599032D01*
X164403553Y-120596319D01*
X164495402Y-120594582D01*
X164565021Y-120593934D01*
X164615584Y-120594490D01*
G37*
G36*
X164730094Y-120932693D02*
G01*
X164734655Y-120938747D01*
X164736776Y-120953207D01*
X164723609Y-120968696D01*
X164692526Y-120986525D01*
X164640898Y-121008002D01*
X164566098Y-121034438D01*
X164497515Y-121056926D01*
X164403637Y-121086034D01*
X164323198Y-121108894D01*
X164258930Y-121124894D01*
X164213562Y-121133420D01*
X164189828Y-121133861D01*
X164190152Y-121125891D01*
X164212797Y-121111920D01*
X164256915Y-121090789D01*
X164316955Y-121064658D01*
X164387366Y-121035691D01*
X164462597Y-121006051D01*
X164537097Y-120977898D01*
X164605313Y-120953397D01*
X164661696Y-120934708D01*
X164700694Y-120923995D01*
X164712855Y-120922285D01*
X164730094Y-120932693D01*
G37*
G36*
X167618418Y-120996287D02*
G01*
X167699268Y-121020437D01*
X167775575Y-121047552D01*
X167844069Y-121075001D01*
X167900097Y-121100628D01*
X167939006Y-121122274D01*
X167956142Y-121137784D01*
X167956556Y-121139708D01*
X167943566Y-121145645D01*
X167906893Y-121143149D01*
X167849981Y-121132808D01*
X167776275Y-121115207D01*
X167716126Y-121098766D01*
X167625896Y-121071620D01*
X167561723Y-121049021D01*
X167521601Y-121030082D01*
X167503521Y-121013921D01*
X167502573Y-121004677D01*
X167520108Y-120988056D01*
X167558246Y-120985221D01*
X167618418Y-120996287D01*
G37*
G36*
X164818666Y-121253998D02*
G01*
X164826382Y-121265630D01*
X164834639Y-121284215D01*
X164835562Y-121300937D01*
X164826253Y-121318666D01*
X164803810Y-121340273D01*
X164765333Y-121368627D01*
X164707922Y-121406599D01*
X164640528Y-121449557D01*
X164583488Y-121484676D01*
X164512107Y-121527050D01*
X164429548Y-121574942D01*
X164338970Y-121626618D01*
X164243535Y-121680344D01*
X164146404Y-121734385D01*
X164050737Y-121787005D01*
X163959695Y-121836471D01*
X163876440Y-121881048D01*
X163804132Y-121919000D01*
X163745932Y-121948593D01*
X163705001Y-121968093D01*
X163684500Y-121975764D01*
X163682724Y-121975210D01*
X163694112Y-121961213D01*
X163726290Y-121933454D01*
X163776273Y-121894049D01*
X163841080Y-121845116D01*
X163917727Y-121788773D01*
X164003233Y-121727137D01*
X164094614Y-121662324D01*
X164188888Y-121596453D01*
X164283072Y-121531640D01*
X164374183Y-121470003D01*
X164459239Y-121413660D01*
X164535258Y-121364726D01*
X164592723Y-121329228D01*
X164670326Y-121284282D01*
X164728271Y-121255225D01*
X164770009Y-121241118D01*
X164798991Y-121241023D01*
X164818666Y-121253998D01*
G37*
G36*
X167440078Y-121451784D02*
G01*
X167470568Y-121467124D01*
X167499601Y-121488552D01*
X167540116Y-121523188D01*
X167588117Y-121567066D01*
X167639611Y-121616221D01*
X167690602Y-121666685D01*
X167737097Y-121714495D01*
X167775099Y-121755683D01*
X167800615Y-121786284D01*
X167809649Y-121802333D01*
X167809241Y-121803346D01*
X167793105Y-121800555D01*
X167759582Y-121782252D01*
X167712858Y-121751681D01*
X167657119Y-121712089D01*
X167596551Y-121666719D01*
X167535341Y-121618817D01*
X167477674Y-121571627D01*
X167427737Y-121528396D01*
X167389716Y-121492367D01*
X167367797Y-121466786D01*
X167364119Y-121458301D01*
X167374333Y-121443500D01*
X167402181Y-121441537D01*
X167440078Y-121451784D01*
G37*
G36*
X164978269Y-121556805D02*
G01*
X164983455Y-121564407D01*
X164971436Y-121591973D01*
X164936619Y-121632387D01*
X164880866Y-121684033D01*
X164806040Y-121745297D01*
X164714003Y-121814565D01*
X164611818Y-121886657D01*
X164490321Y-121970015D01*
X164611818Y-121844938D01*
X164694353Y-121762067D01*
X164770320Y-121689855D01*
X164837157Y-121630492D01*
X164892306Y-121586166D01*
X164933207Y-121559068D01*
X164955235Y-121551210D01*
X164978269Y-121556805D01*
G37*
G36*
X167181544Y-121758003D02*
G01*
X167207142Y-121776654D01*
X167227451Y-121795747D01*
X167251503Y-121822988D01*
X167281383Y-121861213D01*
X167319176Y-121913262D01*
X167366965Y-121981972D01*
X167426836Y-122070181D01*
X167470047Y-122134578D01*
X167515978Y-122204160D01*
X167555225Y-122265400D01*
X167585425Y-122314460D01*
X167604215Y-122347503D01*
X167609274Y-122360657D01*
X167595736Y-122355261D01*
X167567473Y-122331479D01*
X167527936Y-122292987D01*
X167480578Y-122243460D01*
X167428851Y-122186575D01*
X167376207Y-122126009D01*
X167326100Y-122065438D01*
X167295701Y-122026730D01*
X167232915Y-121942553D01*
X167188070Y-121877175D01*
X167159824Y-121828286D01*
X167146837Y-121793579D01*
X167147476Y-121771473D01*
X167160508Y-121753913D01*
X167181544Y-121758003D01*
G37*
G36*
X165173607Y-121769201D02*
G01*
X165189084Y-121787962D01*
X165188890Y-121815455D01*
X165176585Y-121851045D01*
X165175959Y-121852272D01*
X165151044Y-121893456D01*
X165109928Y-121953081D01*
X165055113Y-122027966D01*
X164989099Y-122114932D01*
X164914387Y-122210798D01*
X164833478Y-122312384D01*
X164748875Y-122416510D01*
X164663077Y-122519995D01*
X164578585Y-122619659D01*
X164513431Y-122694710D01*
X164459445Y-122755511D01*
X164403740Y-122817169D01*
X164349560Y-122876216D01*
X164300154Y-122929185D01*
X164258768Y-122972606D01*
X164228649Y-123003011D01*
X164213044Y-123016933D01*
X164211593Y-123017128D01*
X164219327Y-123003840D01*
X164240995Y-122970414D01*
X164274293Y-122920241D01*
X164316917Y-122856714D01*
X164366565Y-122783222D01*
X164420932Y-122703157D01*
X164477715Y-122619911D01*
X164534611Y-122536874D01*
X164589316Y-122457438D01*
X164639527Y-122384994D01*
X164682940Y-122322933D01*
X164687879Y-122315926D01*
X164761179Y-122213336D01*
X164834057Y-122113737D01*
X164903396Y-122021231D01*
X164966076Y-121939925D01*
X165018980Y-121873921D01*
X165058987Y-121827324D01*
X165059868Y-121826365D01*
X165104128Y-121786668D01*
X165143355Y-121767223D01*
X165173607Y-121769201D01*
G37*
G36*
X166970008Y-121932228D02*
G01*
X166987644Y-121947862D01*
X167002361Y-121972805D01*
X167025513Y-122022769D01*
X167056315Y-122095717D01*
X167093979Y-122189610D01*
X167137719Y-122302411D01*
X167186748Y-122432081D01*
X167240279Y-122576584D01*
X167297527Y-122733880D01*
X167357704Y-122901933D01*
X167377980Y-122959145D01*
X167411677Y-123054017D01*
X167451286Y-123164820D01*
X167492891Y-123280639D01*
X167532574Y-123390559D01*
X167551547Y-123442853D01*
X167580164Y-123522720D01*
X167604542Y-123593005D01*
X167623275Y-123649461D01*
X167634956Y-123687841D01*
X167638178Y-123703899D01*
X167638082Y-123704049D01*
X167630442Y-123693524D01*
X167612412Y-123660186D01*
X167585507Y-123607214D01*
X167551239Y-123537787D01*
X167511122Y-123455083D01*
X167466669Y-123362282D01*
X167419394Y-123262563D01*
X167370810Y-123159103D01*
X167322431Y-123055083D01*
X167275769Y-122953680D01*
X167232340Y-122858074D01*
X167193655Y-122771444D01*
X167188460Y-122759659D01*
X167143180Y-122655336D01*
X167097271Y-122547027D01*
X167052292Y-122438640D01*
X167009799Y-122334084D01*
X166971351Y-122237269D01*
X166938505Y-122152102D01*
X166912819Y-122082494D01*
X166895850Y-122032353D01*
X166889880Y-122010375D01*
X166890465Y-121965785D01*
X166908173Y-121935238D01*
X166936766Y-121922723D01*
X166970008Y-121932228D01*
G37*
G36*
X165425678Y-122000489D02*
G01*
X165426562Y-122010734D01*
X165419073Y-122039236D01*
X165397901Y-122087974D01*
X165364989Y-122153242D01*
X165322280Y-122231337D01*
X165271715Y-122318553D01*
X165223749Y-122397513D01*
X165172069Y-122479169D01*
X165129529Y-122542952D01*
X165097378Y-122587151D01*
X165076865Y-122610054D01*
X165069239Y-122609951D01*
X165069218Y-122609255D01*
X165075605Y-122581478D01*
X165093190Y-122533477D01*
X165119606Y-122470192D01*
X165152487Y-122396564D01*
X165189467Y-122317534D01*
X165228179Y-122238041D01*
X165266259Y-122163028D01*
X165301338Y-122097434D01*
X165331052Y-122046200D01*
X165353034Y-122014266D01*
X165355518Y-122011446D01*
X165387524Y-121985986D01*
X165412551Y-121982317D01*
X165425678Y-122000489D01*
G37*
G36*
X165744744Y-122085517D02*
G01*
X165760956Y-122106444D01*
X165763788Y-122115996D01*
X165768003Y-122147300D01*
X165766069Y-122187453D01*
X165757235Y-122239973D01*
X165740755Y-122308377D01*
X165715877Y-122396183D01*
X165681855Y-122506909D01*
X165677874Y-122519525D01*
X165653191Y-122595200D01*
X165623885Y-122681121D01*
X165591084Y-122774350D01*
X165555914Y-122871950D01*
X165519503Y-122970983D01*
X165482978Y-123068514D01*
X165447468Y-123161605D01*
X165414099Y-123247318D01*
X165383999Y-123322718D01*
X165358295Y-123384867D01*
X165338116Y-123430828D01*
X165324587Y-123457664D01*
X165318837Y-123462438D01*
X165319812Y-123452279D01*
X165348643Y-123304753D01*
X165380291Y-123152043D01*
X165413898Y-122997656D01*
X165448603Y-122845100D01*
X165483547Y-122697880D01*
X165517870Y-122559503D01*
X165550712Y-122433477D01*
X165581213Y-122323308D01*
X165608514Y-122232503D01*
X165631755Y-122164568D01*
X165641342Y-122140827D01*
X165660770Y-122102713D01*
X165680199Y-122084850D01*
X165707846Y-122080106D01*
X165711361Y-122080079D01*
X165744744Y-122085517D01*
G37*
G36*
X166622863Y-122163172D02*
G01*
X166640224Y-122191868D01*
X166656898Y-122231190D01*
X166678543Y-122291734D01*
X166703216Y-122366985D01*
X166728971Y-122450426D01*
X166753865Y-122535541D01*
X166775953Y-122615814D01*
X166793290Y-122684730D01*
X166803932Y-122735772D01*
X166805344Y-122745173D01*
X166814620Y-122816207D01*
X166778121Y-122759032D01*
X166753288Y-122713758D01*
X166724390Y-122650980D01*
X166693386Y-122576190D01*
X166662237Y-122494881D01*
X166632903Y-122412545D01*
X166607344Y-122334674D01*
X166587521Y-122266759D01*
X166575394Y-122214294D01*
X166572788Y-122183748D01*
X166582827Y-122150368D01*
X166600282Y-122143601D01*
X166622863Y-122163172D01*
G37*
G36*
X166325788Y-122171454D02*
G01*
X166349024Y-122185891D01*
X166363921Y-122202987D01*
X166374386Y-122232505D01*
X166382047Y-122280525D01*
X166386354Y-122325255D01*
X166389076Y-122374614D01*
X166391296Y-122448167D01*
X166393017Y-122541525D01*
X166394239Y-122650297D01*
X166394966Y-122770096D01*
X166395199Y-122896531D01*
X166394941Y-123025213D01*
X166394192Y-123151753D01*
X166392955Y-123271761D01*
X166391232Y-123380849D01*
X166389025Y-123474627D01*
X166386336Y-123548706D01*
X166385807Y-123559482D01*
X166382052Y-123623292D01*
X166378180Y-123666516D01*
X166373860Y-123688101D01*
X166368762Y-123686997D01*
X166362556Y-123662151D01*
X166354909Y-123612512D01*
X166345493Y-123537028D01*
X166333976Y-123434647D01*
X166327393Y-123373663D01*
X166306093Y-123171665D01*
X166288219Y-122995521D01*
X166273564Y-122842729D01*
X166261925Y-122710788D01*
X166253097Y-122597195D01*
X166246874Y-122499449D01*
X166243054Y-122415049D01*
X166241430Y-122341491D01*
X166241340Y-122321715D01*
X166242765Y-122261845D01*
X166248008Y-122223450D01*
X166258454Y-122199517D01*
X166267445Y-122189497D01*
X166297923Y-122168847D01*
X166325788Y-122171454D01*
G37*
G36*
X166014633Y-122201409D02*
G01*
X166017370Y-122203958D01*
X166025114Y-122228240D01*
X166026574Y-122276751D01*
X166021997Y-122345888D01*
X166011625Y-122432047D01*
X165995703Y-122531626D01*
X165994811Y-122536638D01*
X165962722Y-122716151D01*
X165953948Y-122608948D01*
X165951353Y-122548834D01*
X165951762Y-122477281D01*
X165954726Y-122401827D01*
X165959797Y-122330009D01*
X165966528Y-122269367D01*
X165974470Y-122227438D01*
X165977098Y-122219443D01*
X165993988Y-122196357D01*
X166014633Y-122201409D01*
G37*
G36*
X171844710Y-119247382D02*
G01*
X171832795Y-119268137D01*
X171804783Y-119302971D01*
X171800013Y-119308586D01*
X171687019Y-119444439D01*
X171578952Y-119581659D01*
X171473960Y-119723113D01*
X171370191Y-119871671D01*
X171265793Y-120030199D01*
X171158913Y-120201568D01*
X171047699Y-120388645D01*
X170930299Y-120594297D01*
X170804861Y-120821394D01*
X170711764Y-120993754D01*
X170660902Y-121088827D01*
X170607921Y-121188153D01*
X170556659Y-121284517D01*
X170510954Y-121370705D01*
X170474643Y-121439501D01*
X170472275Y-121444007D01*
X170412579Y-121556931D01*
X170350562Y-121672963D01*
X170287741Y-121789375D01*
X170225634Y-121903437D01*
X170165756Y-122012423D01*
X170109624Y-122113604D01*
X170058755Y-122204253D01*
X170014666Y-122281640D01*
X169978872Y-122343038D01*
X169952890Y-122385719D01*
X169938237Y-122406955D01*
X169935925Y-122408835D01*
X169934268Y-122404399D01*
X169937328Y-122389618D01*
X169945919Y-122362280D01*
X169960858Y-122320175D01*
X169982959Y-122261094D01*
X170013037Y-122182825D01*
X170051909Y-122083157D01*
X170100389Y-121959881D01*
X170117823Y-121915701D01*
X170164406Y-121797626D01*
X170213041Y-121674189D01*
X170261232Y-121551731D01*
X170306486Y-121436592D01*
X170346309Y-121335116D01*
X170378206Y-121253642D01*
X170379223Y-121251041D01*
X170501359Y-120949698D01*
X170621746Y-120675839D01*
X170741057Y-120428464D01*
X170859970Y-120206575D01*
X170979160Y-120009171D01*
X171099302Y-119835253D01*
X171221071Y-119683820D01*
X171345144Y-119553873D01*
X171472196Y-119444412D01*
X171602902Y-119354437D01*
X171695264Y-119303348D01*
X171765805Y-119268689D01*
X171813021Y-119247749D01*
X171838721Y-119240616D01*
X171844710Y-119247382D01*
G37*
G36*
X166147298Y-119285650D02*
G01*
X166173154Y-119353550D01*
X166195815Y-119427486D01*
X166214579Y-119502949D01*
X166228744Y-119575427D01*
X166237607Y-119640411D01*
X166240469Y-119693388D01*
X166236626Y-119729850D01*
X166225377Y-119745284D01*
X166218696Y-119744579D01*
X166193079Y-119740025D01*
X166149122Y-119736883D01*
X166104346Y-119735903D01*
X166012606Y-119735903D01*
X166012606Y-119666267D01*
X166016826Y-119617390D01*
X166028144Y-119550175D01*
X166044545Y-119473381D01*
X166064014Y-119395769D01*
X166084538Y-119326095D01*
X166101788Y-119278503D01*
X166122742Y-119228475D01*
X166147298Y-119285650D01*
G37*
G36*
X166440218Y-120787033D02*
G01*
X166429233Y-120829375D01*
X166409789Y-120887050D01*
X166388275Y-120941179D01*
X166367935Y-120984358D01*
X166352013Y-121009185D01*
X166349493Y-121011402D01*
X166330423Y-121015123D01*
X166288234Y-121018295D01*
X166228394Y-121020659D01*
X166156370Y-121021956D01*
X166122874Y-121022122D01*
X165911533Y-121022341D01*
X165885692Y-120961593D01*
X165854149Y-120869964D01*
X165829708Y-120764018D01*
X165819239Y-120692918D01*
X165992908Y-120692918D01*
X165999684Y-120741975D01*
X166026663Y-120793708D01*
X166069613Y-120826482D01*
X166121835Y-120838748D01*
X166176625Y-120828957D01*
X166227283Y-120795563D01*
X166228111Y-120794740D01*
X166260768Y-120746392D01*
X166269494Y-120696169D01*
X166258245Y-120648480D01*
X166230980Y-120607733D01*
X166191655Y-120578339D01*
X166144227Y-120564705D01*
X166092654Y-120571241D01*
X166049200Y-120595406D01*
X166007531Y-120640959D01*
X165992908Y-120692918D01*
X165819239Y-120692918D01*
X165813138Y-120651486D01*
X165805210Y-120540101D01*
X165806695Y-120437595D01*
X165818363Y-120351700D01*
X165823083Y-120333305D01*
X165838424Y-120280341D01*
X165768678Y-120235586D01*
X165691657Y-120176957D01*
X165636719Y-120115103D01*
X165606699Y-120053358D01*
X165604020Y-120041776D01*
X165601358Y-120010190D01*
X165600895Y-119961743D01*
X165602268Y-119903819D01*
X165605113Y-119843800D01*
X165609068Y-119789070D01*
X165613769Y-119747011D01*
X165618854Y-119725007D01*
X165619656Y-119723863D01*
X165632030Y-119730148D01*
X165660082Y-119751889D01*
X165698651Y-119784977D01*
X165715389Y-119800034D01*
X165763272Y-119841309D01*
X165809497Y-119877201D01*
X165845605Y-119901230D01*
X165851691Y-119904447D01*
X165884125Y-119918057D01*
X165905213Y-119916453D01*
X165928722Y-119898073D01*
X165931591Y-119895388D01*
X165987845Y-119859973D01*
X166065020Y-119840596D01*
X166141155Y-119836273D01*
X166198337Y-119841840D01*
X166256785Y-119856094D01*
X166307531Y-119876008D01*
X166341605Y-119898556D01*
X166347589Y-119905940D01*
X166359184Y-119917783D01*
X166375135Y-119917825D01*
X166398735Y-119903866D01*
X166433273Y-119873709D01*
X166482042Y-119825154D01*
X166506628Y-119799717D01*
X166559714Y-119745889D01*
X166596658Y-119712145D01*
X166619719Y-119696689D01*
X166631156Y-119697728D01*
X166632279Y-119699839D01*
X166640230Y-119732760D01*
X166647689Y-119784656D01*
X166654125Y-119847920D01*
X166659007Y-119914946D01*
X166661803Y-119978125D01*
X166661981Y-120029853D01*
X166659011Y-120062520D01*
X166657887Y-120066382D01*
X166636360Y-120100719D01*
X166594091Y-120148108D01*
X166533974Y-120205525D01*
X166479093Y-120253199D01*
X166438151Y-120287547D01*
X166453884Y-120432160D01*
X166461171Y-120557376D01*
X166456424Y-120678750D01*
X166453817Y-120696169D01*
X166440218Y-120787033D01*
G37*
G36*
X166269823Y-121190293D02*
G01*
X166223813Y-121268177D01*
X166189926Y-121324299D01*
X166166161Y-121361749D01*
X166150518Y-121383620D01*
X166140995Y-121393003D01*
X166138000Y-121393979D01*
X166122564Y-121382568D01*
X166097429Y-121352458D01*
X166066972Y-121309829D01*
X166035570Y-121260864D01*
X166007600Y-121211745D01*
X166003890Y-121204586D01*
X165969243Y-121136691D01*
X166135274Y-121136691D01*
X166301304Y-121136691D01*
X166269823Y-121190293D01*
G37*
%TD*%
M02*
