%TF.GenerationSoftware,KiCad,Pcbnew,9.0.7-9.0.7~ubuntu24.04.1*%
%TF.CreationDate,2026-02-20T10:35:14-07:00*%
%TF.ProjectId,gazelem_main_motors_pcb_design,67617a65-6c65-46d5-9f6d-61696e5f6d6f,rev?*%
%TF.SameCoordinates,Original*%
%TF.FileFunction,Soldermask,Top*%
%TF.FilePolarity,Negative*%
%FSLAX46Y46*%
G04 Gerber Fmt 4.6, Leading zero omitted, Abs format (unit mm)*
G04 Created by KiCad (PCBNEW 9.0.7-9.0.7~ubuntu24.04.1) date 2026-02-20 10:35:14*
%MOMM*%
%LPD*%
G01*
G04 APERTURE LIST*
%ADD10C,1.780000*%
%ADD11R,1.600000X1.600000*%
%ADD12O,1.600000X1.600000*%
%ADD13C,2.100000*%
%ADD14R,1.350000X1.350000*%
%ADD15C,1.350000*%
G04 APERTURE END LIST*
D10*
%TO.C,A1*%
X151890000Y-72410000D03*
X151890000Y-113050000D03*
X167130000Y-72410000D03*
X167130000Y-113050000D03*
D11*
X151890000Y-74950000D03*
D12*
X151890000Y-77490000D03*
X151890000Y-80030000D03*
X151890000Y-82570000D03*
X151890000Y-85110000D03*
X151890000Y-87650000D03*
X151890000Y-90190000D03*
X151890000Y-92730000D03*
X151890000Y-95270000D03*
X151890000Y-97810000D03*
X151890000Y-100350000D03*
X151890000Y-102890000D03*
X151890000Y-105430000D03*
X151890000Y-107970000D03*
X151890000Y-110510000D03*
X167130000Y-110510000D03*
X167130000Y-107970000D03*
X167130000Y-105430000D03*
X167130000Y-102890000D03*
X167130000Y-100350000D03*
X167130000Y-97810000D03*
X167130000Y-95270000D03*
X167130000Y-92730000D03*
X167130000Y-90190000D03*
X167130000Y-87650000D03*
X167130000Y-85110000D03*
X167130000Y-82570000D03*
X167130000Y-80030000D03*
X167130000Y-77490000D03*
X167130000Y-74950000D03*
%TD*%
D13*
%TO.C,H2*%
X151000000Y-61000000D03*
%TD*%
%TO.C,H4*%
X188000000Y-120000000D03*
%TD*%
%TO.C,H3*%
X151000000Y-120000000D03*
%TD*%
%TO.C,H1*%
X188000000Y-61000000D03*
%TD*%
D14*
%TO.C,J1*%
X156500000Y-67600000D03*
D15*
X158500000Y-67600000D03*
X160500000Y-67600000D03*
X162500000Y-67600000D03*
%TD*%
D14*
%TO.C,J2*%
X176500000Y-67600000D03*
D15*
X178500000Y-67600000D03*
X180500000Y-67600000D03*
X182500000Y-67600000D03*
%TD*%
D10*
%TO.C,A2*%
X172000000Y-72420000D03*
X172000000Y-113060000D03*
X187240000Y-72420000D03*
X187240000Y-113060000D03*
D11*
X172000000Y-74960000D03*
D12*
X172000000Y-77500000D03*
X172000000Y-80040000D03*
X172000000Y-82580000D03*
X172000000Y-85120000D03*
X172000000Y-87660000D03*
X172000000Y-90200000D03*
X172000000Y-92740000D03*
X172000000Y-95280000D03*
X172000000Y-97820000D03*
X172000000Y-100360000D03*
X172000000Y-102900000D03*
X172000000Y-105440000D03*
X172000000Y-107980000D03*
X172000000Y-110520000D03*
X187240000Y-110520000D03*
X187240000Y-107980000D03*
X187240000Y-105440000D03*
X187240000Y-102900000D03*
X187240000Y-100360000D03*
X187240000Y-97820000D03*
X187240000Y-95280000D03*
X187240000Y-92740000D03*
X187240000Y-90200000D03*
X187240000Y-87660000D03*
X187240000Y-85120000D03*
X187240000Y-82580000D03*
X187240000Y-80040000D03*
X187240000Y-77500000D03*
X187240000Y-74960000D03*
%TD*%
M02*
