%TF.GenerationSoftware,KiCad,Pcbnew,9.0.7-9.0.7~ubuntu24.04.1*%
%TF.CreationDate,2026-02-20T10:35:12-07:00*%
%TF.ProjectId,gazelem_main_motors_pcb_design,67617a65-6c65-46d5-9f6d-61696e5f6d6f,rev?*%
%TF.SameCoordinates,Original*%
%TF.FileFunction,Copper,L1,Top*%
%TF.FilePolarity,Positive*%
%FSLAX46Y46*%
G04 Gerber Fmt 4.6, Leading zero omitted, Abs format (unit mm)*
G04 Created by KiCad (PCBNEW 9.0.7-9.0.7~ubuntu24.04.1) date 2026-02-20 10:35:12*
%MOMM*%
%LPD*%
G01*
G04 APERTURE LIST*
%TA.AperFunction,ComponentPad*%
%ADD10R,1.600000X1.600000*%
%TD*%
%TA.AperFunction,ComponentPad*%
%ADD11O,1.600000X1.600000*%
%TD*%
%TA.AperFunction,ComponentPad*%
%ADD12R,1.350000X1.350000*%
%TD*%
%TA.AperFunction,ComponentPad*%
%ADD13C,1.350000*%
%TD*%
%TA.AperFunction,Conductor*%
%ADD14C,0.400000*%
%TD*%
G04 APERTURE END LIST*
D10*
%TO.P,A1,1,D1/TX*%
%TO.N,unconnected-(A1-D1{slash}TX-Pad1)*%
X151890000Y-74950000D03*
D11*
%TO.P,A1,2,D0/RX*%
%TO.N,unconnected-(A1-D0{slash}RX-Pad2)*%
X151890000Y-77490000D03*
%TO.P,A1,3,~{RESET}*%
%TO.N,unconnected-(A1-~{RESET}-Pad3)*%
X151890000Y-80030000D03*
%TO.P,A1,4,GND*%
%TO.N,DIR- 1*%
X151890000Y-82570000D03*
%TO.P,A1,5,D2*%
%TO.N,DIR+ 1*%
X151890000Y-85110000D03*
%TO.P,A1,6,D3*%
%TO.N,unconnected-(A1-D3-Pad6)*%
X151890000Y-87650000D03*
%TO.P,A1,7,D4*%
%TO.N,unconnected-(A1-D4-Pad7)*%
X151890000Y-90190000D03*
%TO.P,A1,8,D5*%
%TO.N,unconnected-(A1-D5-Pad8)*%
X151890000Y-92730000D03*
%TO.P,A1,9,D6*%
%TO.N,unconnected-(A1-D6-Pad9)*%
X151890000Y-95270000D03*
%TO.P,A1,10,D7*%
%TO.N,unconnected-(A1-D7-Pad10)*%
X151890000Y-97810000D03*
%TO.P,A1,11,D8*%
%TO.N,unconnected-(A1-D8-Pad11)*%
X151890000Y-100350000D03*
%TO.P,A1,12,D9*%
%TO.N,PUL+ 1*%
X151890000Y-102890000D03*
%TO.P,A1,13,D10*%
%TO.N,unconnected-(A1-D10-Pad13)*%
X151890000Y-105430000D03*
%TO.P,A1,14,D11*%
%TO.N,unconnected-(A1-D11-Pad14)*%
X151890000Y-107970000D03*
%TO.P,A1,15,D12*%
%TO.N,unconnected-(A1-D12-Pad15)*%
X151890000Y-110510000D03*
%TO.P,A1,16,D13*%
%TO.N,unconnected-(A1-D13-Pad16)*%
X167130000Y-110510000D03*
%TO.P,A1,17,3V3*%
%TO.N,unconnected-(A1-3V3-Pad17)*%
X167130000Y-107970000D03*
%TO.P,A1,18,AREF*%
%TO.N,unconnected-(A1-AREF-Pad18)*%
X167130000Y-105430000D03*
%TO.P,A1,19,A0*%
%TO.N,unconnected-(A1-A0-Pad19)*%
X167130000Y-102890000D03*
%TO.P,A1,20,A1*%
%TO.N,unconnected-(A1-A1-Pad20)*%
X167130000Y-100350000D03*
%TO.P,A1,21,A2*%
%TO.N,unconnected-(A1-A2-Pad21)*%
X167130000Y-97810000D03*
%TO.P,A1,22,A3*%
%TO.N,unconnected-(A1-A3-Pad22)*%
X167130000Y-95270000D03*
%TO.P,A1,23,A4*%
%TO.N,unconnected-(A1-A4-Pad23)*%
X167130000Y-92730000D03*
%TO.P,A1,24,A5*%
%TO.N,unconnected-(A1-A5-Pad24)*%
X167130000Y-90190000D03*
%TO.P,A1,25,A6*%
%TO.N,unconnected-(A1-A6-Pad25)*%
X167130000Y-87650000D03*
%TO.P,A1,26,A7*%
%TO.N,unconnected-(A1-A7-Pad26)*%
X167130000Y-85110000D03*
%TO.P,A1,27,+5V*%
%TO.N,unconnected-(A1-+5V-Pad27)*%
X167130000Y-82570000D03*
%TO.P,A1,28,~{RESET}*%
%TO.N,unconnected-(A1-~{RESET}-Pad28)*%
X167130000Y-80030000D03*
%TO.P,A1,29,GND*%
%TO.N,unconnected-(A1-GND-Pad29)*%
X167130000Y-77490000D03*
%TO.P,A1,30,VIN*%
%TO.N,unconnected-(A1-VIN-Pad30)*%
X167130000Y-74950000D03*
%TD*%
D12*
%TO.P,J1,1,Pin_1*%
%TO.N,DIR- 1*%
X156500000Y-67600000D03*
D13*
%TO.P,J1,2,Pin_2*%
X158500000Y-67600000D03*
%TO.P,J1,3,Pin_3*%
%TO.N,DIR+ 1*%
X160500000Y-67600000D03*
%TO.P,J1,4,Pin_4*%
%TO.N,PUL+ 1*%
X162500000Y-67600000D03*
%TD*%
D12*
%TO.P,J2,1,Pin_1*%
%TO.N,DIR- 1*%
X176500000Y-67600000D03*
D13*
%TO.P,J2,2,Pin_2*%
X178500000Y-67600000D03*
%TO.P,J2,3,Pin_3*%
%TO.N,DIR+ 2*%
X180500000Y-67600000D03*
%TO.P,J2,4,Pin_4*%
%TO.N,PUL+ 2*%
X182500000Y-67600000D03*
%TD*%
D10*
%TO.P,A2,1,D1/TX*%
%TO.N,unconnected-(A2-D1{slash}TX-Pad1)*%
X172000000Y-74960000D03*
D11*
%TO.P,A2,2,D0/RX*%
%TO.N,unconnected-(A2-D0{slash}RX-Pad2)*%
X172000000Y-77500000D03*
%TO.P,A2,3,~{RESET}*%
%TO.N,unconnected-(A2-~{RESET}-Pad3)*%
X172000000Y-80040000D03*
%TO.P,A2,4,GND*%
%TO.N,DIR- 1*%
X172000000Y-82580000D03*
%TO.P,A2,5,D2*%
%TO.N,DIR+ 2*%
X172000000Y-85120000D03*
%TO.P,A2,6,D3*%
%TO.N,unconnected-(A2-D3-Pad6)*%
X172000000Y-87660000D03*
%TO.P,A2,7,D4*%
%TO.N,unconnected-(A2-D4-Pad7)*%
X172000000Y-90200000D03*
%TO.P,A2,8,D5*%
%TO.N,unconnected-(A2-D5-Pad8)*%
X172000000Y-92740000D03*
%TO.P,A2,9,D6*%
%TO.N,unconnected-(A2-D6-Pad9)*%
X172000000Y-95280000D03*
%TO.P,A2,10,D7*%
%TO.N,unconnected-(A2-D7-Pad10)*%
X172000000Y-97820000D03*
%TO.P,A2,11,D8*%
%TO.N,unconnected-(A2-D8-Pad11)*%
X172000000Y-100360000D03*
%TO.P,A2,12,D9*%
%TO.N,PUL+ 2*%
X172000000Y-102900000D03*
%TO.P,A2,13,D10*%
%TO.N,unconnected-(A2-D10-Pad13)*%
X172000000Y-105440000D03*
%TO.P,A2,14,D11*%
%TO.N,unconnected-(A2-D11-Pad14)*%
X172000000Y-107980000D03*
%TO.P,A2,15,D12*%
%TO.N,unconnected-(A2-D12-Pad15)*%
X172000000Y-110520000D03*
%TO.P,A2,16,D13*%
%TO.N,unconnected-(A2-D13-Pad16)*%
X187240000Y-110520000D03*
%TO.P,A2,17,3V3*%
%TO.N,unconnected-(A2-3V3-Pad17)*%
X187240000Y-107980000D03*
%TO.P,A2,18,AREF*%
%TO.N,unconnected-(A2-AREF-Pad18)*%
X187240000Y-105440000D03*
%TO.P,A2,19,A0*%
%TO.N,unconnected-(A2-A0-Pad19)*%
X187240000Y-102900000D03*
%TO.P,A2,20,A1*%
%TO.N,unconnected-(A2-A1-Pad20)*%
X187240000Y-100360000D03*
%TO.P,A2,21,A2*%
%TO.N,unconnected-(A2-A2-Pad21)*%
X187240000Y-97820000D03*
%TO.P,A2,22,A3*%
%TO.N,unconnected-(A2-A3-Pad22)*%
X187240000Y-95280000D03*
%TO.P,A2,23,A4*%
%TO.N,unconnected-(A2-A4-Pad23)*%
X187240000Y-92740000D03*
%TO.P,A2,24,A5*%
%TO.N,unconnected-(A2-A5-Pad24)*%
X187240000Y-90200000D03*
%TO.P,A2,25,A6*%
%TO.N,unconnected-(A2-A6-Pad25)*%
X187240000Y-87660000D03*
%TO.P,A2,26,A7*%
%TO.N,unconnected-(A2-A7-Pad26)*%
X187240000Y-85120000D03*
%TO.P,A2,27,+5V*%
%TO.N,unconnected-(A2-+5V-Pad27)*%
X187240000Y-82580000D03*
%TO.P,A2,28,~{RESET}*%
%TO.N,unconnected-(A2-~{RESET}-Pad28)*%
X187240000Y-80040000D03*
%TO.P,A2,29,GND*%
%TO.N,unconnected-(A2-GND-Pad29)*%
X187240000Y-77500000D03*
%TO.P,A2,30,VIN*%
%TO.N,unconnected-(A2-VIN-Pad30)*%
X187240000Y-74960000D03*
%TD*%
D14*
%TO.N,DIR- 1*%
X158500000Y-67600000D02*
X160900000Y-65200000D01*
X160900000Y-65200000D02*
X174100000Y-65200000D01*
X174100000Y-65200000D02*
X176500000Y-67600000D01*
X156500000Y-67600000D02*
X156500000Y-77960000D01*
X156500000Y-77960000D02*
X151890000Y-82570000D01*
%TO.N,PUL+ 1*%
X162500000Y-92280000D02*
X151890000Y-102890000D01*
X162500000Y-67600000D02*
X162500000Y-92280000D01*
%TO.N,DIR+ 1*%
X160500000Y-76500000D02*
X160500000Y-67600000D01*
X160500000Y-76500000D02*
X151890000Y-85110000D01*
%TO.N,DIR- 1*%
X158500000Y-67600000D02*
X156500000Y-67600000D01*
X178500000Y-67600000D02*
X176500000Y-67600000D01*
X176500000Y-67600000D02*
X176500000Y-78080000D01*
X176500000Y-78080000D02*
X172000000Y-82580000D01*
%TO.N,PUL+ 2*%
X182500000Y-92400000D02*
X172000000Y-102900000D01*
X182500000Y-67600000D02*
X182500000Y-92400000D01*
%TO.N,DIR+ 2*%
X180500000Y-76620000D02*
X172000000Y-85120000D01*
X180500000Y-67600000D02*
X180500000Y-76620000D01*
%TD*%
%TA.AperFunction,Conductor*%
%TO.N,DIR- 1*%
G36*
X190942539Y-57020185D02*
G01*
X190988294Y-57072989D01*
X190999500Y-57124500D01*
X190999500Y-123875500D01*
X190979815Y-123942539D01*
X190927011Y-123988294D01*
X190875500Y-123999500D01*
X148124500Y-123999500D01*
X148057461Y-123979815D01*
X148011706Y-123927011D01*
X148000500Y-123875500D01*
X148000500Y-119893330D01*
X149644700Y-119893330D01*
X149644700Y-120106669D01*
X149678072Y-120317368D01*
X149743992Y-120520252D01*
X149743994Y-120520255D01*
X149840843Y-120710332D01*
X149966235Y-120882919D01*
X150117081Y-121033765D01*
X150289668Y-121159157D01*
X150479745Y-121256006D01*
X150479747Y-121256007D01*
X150581189Y-121288967D01*
X150682633Y-121321928D01*
X150780218Y-121337384D01*
X150893331Y-121355300D01*
X150893336Y-121355300D01*
X151106669Y-121355300D01*
X151208813Y-121339121D01*
X151317367Y-121321928D01*
X151520255Y-121256006D01*
X151710332Y-121159157D01*
X151882919Y-121033765D01*
X152033765Y-120882919D01*
X152159157Y-120710332D01*
X152256006Y-120520255D01*
X152321928Y-120317367D01*
X152339121Y-120208813D01*
X152355300Y-120106669D01*
X152355300Y-119893330D01*
X186644700Y-119893330D01*
X186644700Y-120106669D01*
X186678072Y-120317368D01*
X186743992Y-120520252D01*
X186743994Y-120520255D01*
X186840843Y-120710332D01*
X186966235Y-120882919D01*
X187117081Y-121033765D01*
X187289668Y-121159157D01*
X187479745Y-121256006D01*
X187479747Y-121256007D01*
X187581189Y-121288967D01*
X187682633Y-121321928D01*
X187780218Y-121337384D01*
X187893331Y-121355300D01*
X187893336Y-121355300D01*
X188106669Y-121355300D01*
X188208813Y-121339121D01*
X188317367Y-121321928D01*
X188520255Y-121256006D01*
X188710332Y-121159157D01*
X188882919Y-121033765D01*
X189033765Y-120882919D01*
X189159157Y-120710332D01*
X189256006Y-120520255D01*
X189321928Y-120317367D01*
X189339121Y-120208813D01*
X189355300Y-120106669D01*
X189355300Y-119893330D01*
X189335885Y-119770756D01*
X189321928Y-119682633D01*
X189256006Y-119479745D01*
X189159157Y-119289668D01*
X189033765Y-119117081D01*
X188882919Y-118966235D01*
X188710332Y-118840843D01*
X188520252Y-118743992D01*
X188317368Y-118678072D01*
X188106669Y-118644700D01*
X188106664Y-118644700D01*
X187893336Y-118644700D01*
X187893331Y-118644700D01*
X187682631Y-118678072D01*
X187479747Y-118743992D01*
X187289667Y-118840843D01*
X187191200Y-118912383D01*
X187117081Y-118966235D01*
X187117079Y-118966237D01*
X187117078Y-118966237D01*
X186966237Y-119117078D01*
X186966237Y-119117079D01*
X186966235Y-119117081D01*
X186912383Y-119191200D01*
X186840843Y-119289667D01*
X186743992Y-119479747D01*
X186678072Y-119682631D01*
X186644700Y-119893330D01*
X152355300Y-119893330D01*
X152335885Y-119770756D01*
X152321928Y-119682633D01*
X152256006Y-119479745D01*
X152159157Y-119289668D01*
X152033765Y-119117081D01*
X151882919Y-118966235D01*
X151710332Y-118840843D01*
X151520252Y-118743992D01*
X151317368Y-118678072D01*
X151106669Y-118644700D01*
X151106664Y-118644700D01*
X150893336Y-118644700D01*
X150893331Y-118644700D01*
X150682631Y-118678072D01*
X150479747Y-118743992D01*
X150289667Y-118840843D01*
X150191200Y-118912383D01*
X150117081Y-118966235D01*
X150117079Y-118966237D01*
X150117078Y-118966237D01*
X149966237Y-119117078D01*
X149966237Y-119117079D01*
X149966235Y-119117081D01*
X149912383Y-119191200D01*
X149840843Y-119289667D01*
X149743992Y-119479747D01*
X149678072Y-119682631D01*
X149644700Y-119893330D01*
X148000500Y-119893330D01*
X148000500Y-112955922D01*
X150694700Y-112955922D01*
X150694700Y-113144077D01*
X150724131Y-113329900D01*
X150782273Y-113508840D01*
X150867690Y-113676477D01*
X150978270Y-113828679D01*
X150978274Y-113828684D01*
X151111315Y-113961725D01*
X151111320Y-113961729D01*
X151244078Y-114058182D01*
X151263526Y-114072312D01*
X151370342Y-114126738D01*
X151431159Y-114157726D01*
X151431161Y-114157726D01*
X151431164Y-114157728D01*
X151527077Y-114188892D01*
X151610099Y-114215868D01*
X151795923Y-114245300D01*
X151795928Y-114245300D01*
X151984077Y-114245300D01*
X152169900Y-114215868D01*
X152348836Y-114157728D01*
X152516474Y-114072312D01*
X152668686Y-113961724D01*
X152801724Y-113828686D01*
X152912312Y-113676474D01*
X152997728Y-113508836D01*
X153055868Y-113329900D01*
X153085300Y-113144077D01*
X153085300Y-112955922D01*
X165934700Y-112955922D01*
X165934700Y-113144077D01*
X165964131Y-113329900D01*
X166022273Y-113508840D01*
X166107690Y-113676477D01*
X166218270Y-113828679D01*
X166218274Y-113828684D01*
X166351315Y-113961725D01*
X166351320Y-113961729D01*
X166484078Y-114058182D01*
X166503526Y-114072312D01*
X166610342Y-114126738D01*
X166671159Y-114157726D01*
X166671161Y-114157726D01*
X166671164Y-114157728D01*
X166767077Y-114188892D01*
X166850099Y-114215868D01*
X167035923Y-114245300D01*
X167035928Y-114245300D01*
X167224077Y-114245300D01*
X167409900Y-114215868D01*
X167588836Y-114157728D01*
X167756474Y-114072312D01*
X167908686Y-113961724D01*
X168041724Y-113828686D01*
X168152312Y-113676474D01*
X168237728Y-113508836D01*
X168295868Y-113329900D01*
X168325300Y-113144077D01*
X168325300Y-112965922D01*
X170804700Y-112965922D01*
X170804700Y-113154077D01*
X170834131Y-113339900D01*
X170892273Y-113518840D01*
X170951014Y-113634124D01*
X170972594Y-113676477D01*
X170977690Y-113686477D01*
X171088270Y-113838679D01*
X171088274Y-113838684D01*
X171221315Y-113971725D01*
X171221320Y-113971729D01*
X171354078Y-114068182D01*
X171373526Y-114082312D01*
X171480342Y-114136738D01*
X171541159Y-114167726D01*
X171541161Y-114167726D01*
X171541164Y-114167728D01*
X171637077Y-114198892D01*
X171720099Y-114225868D01*
X171905923Y-114255300D01*
X171905928Y-114255300D01*
X172094077Y-114255300D01*
X172279900Y-114225868D01*
X172458836Y-114167728D01*
X172626474Y-114082312D01*
X172778686Y-113971724D01*
X172911724Y-113838686D01*
X173022312Y-113686474D01*
X173107728Y-113518836D01*
X173165868Y-113339900D01*
X173167452Y-113329900D01*
X173195300Y-113154077D01*
X173195300Y-112965922D01*
X186044700Y-112965922D01*
X186044700Y-113154077D01*
X186074131Y-113339900D01*
X186132273Y-113518840D01*
X186191014Y-113634124D01*
X186212594Y-113676477D01*
X186217690Y-113686477D01*
X186328270Y-113838679D01*
X186328274Y-113838684D01*
X186461315Y-113971725D01*
X186461320Y-113971729D01*
X186594078Y-114068182D01*
X186613526Y-114082312D01*
X186720342Y-114136738D01*
X186781159Y-114167726D01*
X186781161Y-114167726D01*
X186781164Y-114167728D01*
X186877077Y-114198892D01*
X186960099Y-114225868D01*
X187145923Y-114255300D01*
X187145928Y-114255300D01*
X187334077Y-114255300D01*
X187519900Y-114225868D01*
X187698836Y-114167728D01*
X187866474Y-114082312D01*
X188018686Y-113971724D01*
X188151724Y-113838686D01*
X188262312Y-113686474D01*
X188347728Y-113518836D01*
X188405868Y-113339900D01*
X188407452Y-113329900D01*
X188435300Y-113154077D01*
X188435300Y-112965922D01*
X188405868Y-112780099D01*
X188347726Y-112601159D01*
X188316738Y-112540342D01*
X188262312Y-112433526D01*
X188248182Y-112414078D01*
X188151729Y-112281320D01*
X188151725Y-112281315D01*
X188018684Y-112148274D01*
X188018679Y-112148270D01*
X187866477Y-112037690D01*
X187866476Y-112037689D01*
X187866474Y-112037688D01*
X187814124Y-112011014D01*
X187698840Y-111952273D01*
X187519900Y-111894131D01*
X187348043Y-111866912D01*
X187284908Y-111836983D01*
X187247977Y-111777671D01*
X187248975Y-111707809D01*
X187287585Y-111649576D01*
X187348043Y-111621966D01*
X187498825Y-111598084D01*
X187664288Y-111544322D01*
X187819304Y-111465337D01*
X187960055Y-111363076D01*
X188083076Y-111240055D01*
X188185337Y-111099304D01*
X188264322Y-110944288D01*
X188318084Y-110778825D01*
X188319668Y-110768825D01*
X188345300Y-110606994D01*
X188345300Y-110433005D01*
X188318084Y-110261174D01*
X188305145Y-110221354D01*
X188264322Y-110095712D01*
X188185337Y-109940696D01*
X188172271Y-109922712D01*
X188083081Y-109799951D01*
X188083077Y-109799946D01*
X187960053Y-109676922D01*
X187960048Y-109676918D01*
X187819307Y-109574665D01*
X187819306Y-109574664D01*
X187819304Y-109574663D01*
X187664288Y-109495678D01*
X187621376Y-109481735D01*
X187498825Y-109441915D01*
X187326994Y-109414700D01*
X187326989Y-109414700D01*
X187153011Y-109414700D01*
X187153006Y-109414700D01*
X186981174Y-109441915D01*
X186815709Y-109495679D01*
X186660692Y-109574665D01*
X186519951Y-109676918D01*
X186519946Y-109676922D01*
X186396922Y-109799946D01*
X186396918Y-109799951D01*
X186294665Y-109940692D01*
X186215679Y-110095709D01*
X186161915Y-110261174D01*
X186134700Y-110433005D01*
X186134700Y-110606994D01*
X186161915Y-110778825D01*
X186201735Y-110901376D01*
X186215678Y-110944288D01*
X186289569Y-111089307D01*
X186294665Y-111099307D01*
X186396918Y-111240048D01*
X186396922Y-111240053D01*
X186519946Y-111363077D01*
X186519951Y-111363081D01*
X186642712Y-111452271D01*
X186660696Y-111465337D01*
X186815712Y-111544322D01*
X186941354Y-111585145D01*
X186981174Y-111598084D01*
X187131956Y-111621966D01*
X187195091Y-111651895D01*
X187232022Y-111711207D01*
X187231024Y-111781070D01*
X187192414Y-111839302D01*
X187131956Y-111866912D01*
X186960099Y-111894131D01*
X186781159Y-111952273D01*
X186613522Y-112037690D01*
X186461320Y-112148270D01*
X186461315Y-112148274D01*
X186328274Y-112281315D01*
X186328270Y-112281320D01*
X186217690Y-112433522D01*
X186132273Y-112601159D01*
X186074131Y-112780099D01*
X186044700Y-112965922D01*
X173195300Y-112965922D01*
X173165868Y-112780099D01*
X173107726Y-112601159D01*
X173076738Y-112540342D01*
X173022312Y-112433526D01*
X173008182Y-112414078D01*
X172911729Y-112281320D01*
X172911725Y-112281315D01*
X172778684Y-112148274D01*
X172778679Y-112148270D01*
X172626477Y-112037690D01*
X172626476Y-112037689D01*
X172626474Y-112037688D01*
X172574124Y-112011014D01*
X172458840Y-111952273D01*
X172279900Y-111894131D01*
X172108043Y-111866912D01*
X172044908Y-111836983D01*
X172007977Y-111777671D01*
X172008975Y-111707809D01*
X172047585Y-111649576D01*
X172108043Y-111621966D01*
X172258825Y-111598084D01*
X172424288Y-111544322D01*
X172579304Y-111465337D01*
X172720055Y-111363076D01*
X172843076Y-111240055D01*
X172945337Y-111099304D01*
X173024322Y-110944288D01*
X173078084Y-110778825D01*
X173079668Y-110768825D01*
X173105300Y-110606994D01*
X173105300Y-110433005D01*
X173078084Y-110261174D01*
X173065145Y-110221354D01*
X173024322Y-110095712D01*
X172945337Y-109940696D01*
X172932271Y-109922712D01*
X172843081Y-109799951D01*
X172843077Y-109799946D01*
X172720053Y-109676922D01*
X172720048Y-109676918D01*
X172579307Y-109574665D01*
X172579306Y-109574664D01*
X172579304Y-109574663D01*
X172424288Y-109495678D01*
X172381376Y-109481735D01*
X172258825Y-109441915D01*
X172086994Y-109414700D01*
X172086989Y-109414700D01*
X171913011Y-109414700D01*
X171913006Y-109414700D01*
X171741174Y-109441915D01*
X171575709Y-109495679D01*
X171420692Y-109574665D01*
X171279951Y-109676918D01*
X171279946Y-109676922D01*
X171156922Y-109799946D01*
X171156918Y-109799951D01*
X171054665Y-109940692D01*
X170975679Y-110095709D01*
X170921915Y-110261174D01*
X170894700Y-110433005D01*
X170894700Y-110606994D01*
X170921915Y-110778825D01*
X170961735Y-110901376D01*
X170975678Y-110944288D01*
X171049569Y-111089307D01*
X171054665Y-111099307D01*
X171156918Y-111240048D01*
X171156922Y-111240053D01*
X171279946Y-111363077D01*
X171279951Y-111363081D01*
X171402712Y-111452271D01*
X171420696Y-111465337D01*
X171575712Y-111544322D01*
X171701354Y-111585145D01*
X171741174Y-111598084D01*
X171891956Y-111621966D01*
X171955091Y-111651895D01*
X171992022Y-111711207D01*
X171991024Y-111781070D01*
X171952414Y-111839302D01*
X171891956Y-111866912D01*
X171720099Y-111894131D01*
X171541159Y-111952273D01*
X171373522Y-112037690D01*
X171221320Y-112148270D01*
X171221315Y-112148274D01*
X171088274Y-112281315D01*
X171088270Y-112281320D01*
X170977690Y-112433522D01*
X170892273Y-112601159D01*
X170834131Y-112780099D01*
X170804700Y-112965922D01*
X168325300Y-112965922D01*
X168325300Y-112955922D01*
X168295868Y-112770099D01*
X168240977Y-112601164D01*
X168237728Y-112591164D01*
X168237726Y-112591161D01*
X168237726Y-112591159D01*
X168206738Y-112530342D01*
X168152312Y-112423526D01*
X168048994Y-112281320D01*
X168041729Y-112271320D01*
X168041725Y-112271315D01*
X167908684Y-112138274D01*
X167908679Y-112138270D01*
X167756477Y-112027690D01*
X167756476Y-112027689D01*
X167756474Y-112027688D01*
X167704124Y-112001014D01*
X167588840Y-111942273D01*
X167409900Y-111884131D01*
X167238043Y-111856912D01*
X167174908Y-111826983D01*
X167137977Y-111767671D01*
X167138975Y-111697809D01*
X167177585Y-111639576D01*
X167238043Y-111611966D01*
X167388825Y-111588084D01*
X167554288Y-111534322D01*
X167709304Y-111455337D01*
X167850055Y-111353076D01*
X167973076Y-111230055D01*
X168075337Y-111089304D01*
X168154322Y-110934288D01*
X168208084Y-110768825D01*
X168235300Y-110596994D01*
X168235300Y-110423005D01*
X168208084Y-110251174D01*
X168195145Y-110211354D01*
X168154322Y-110085712D01*
X168075337Y-109930696D01*
X167980346Y-109799951D01*
X167973081Y-109789951D01*
X167973077Y-109789946D01*
X167850053Y-109666922D01*
X167850048Y-109666918D01*
X167709307Y-109564665D01*
X167709306Y-109564664D01*
X167709304Y-109564663D01*
X167554288Y-109485678D01*
X167511376Y-109471735D01*
X167388825Y-109431915D01*
X167216994Y-109404700D01*
X167216989Y-109404700D01*
X167043011Y-109404700D01*
X167043006Y-109404700D01*
X166871174Y-109431915D01*
X166705709Y-109485679D01*
X166550692Y-109564665D01*
X166409951Y-109666918D01*
X166409946Y-109666922D01*
X166286922Y-109789946D01*
X166286918Y-109789951D01*
X166184665Y-109930692D01*
X166105679Y-110085709D01*
X166051915Y-110251174D01*
X166024700Y-110423005D01*
X166024700Y-110596994D01*
X166051915Y-110768825D01*
X166105679Y-110934290D01*
X166184665Y-111089307D01*
X166286918Y-111230048D01*
X166286922Y-111230053D01*
X166409946Y-111353077D01*
X166409951Y-111353081D01*
X166532712Y-111442271D01*
X166550696Y-111455337D01*
X166705712Y-111534322D01*
X166831354Y-111575145D01*
X166871174Y-111588084D01*
X167021956Y-111611966D01*
X167085091Y-111641895D01*
X167122022Y-111701207D01*
X167121024Y-111771070D01*
X167082414Y-111829302D01*
X167021956Y-111856912D01*
X166850099Y-111884131D01*
X166671159Y-111942273D01*
X166503522Y-112027690D01*
X166351320Y-112138270D01*
X166351315Y-112138274D01*
X166218274Y-112271315D01*
X166218270Y-112271320D01*
X166107690Y-112423522D01*
X166022273Y-112591159D01*
X165964131Y-112770099D01*
X165934700Y-112955922D01*
X153085300Y-112955922D01*
X153055868Y-112770099D01*
X153000977Y-112601164D01*
X152997728Y-112591164D01*
X152997726Y-112591161D01*
X152997726Y-112591159D01*
X152966738Y-112530342D01*
X152912312Y-112423526D01*
X152808994Y-112281320D01*
X152801729Y-112271320D01*
X152801725Y-112271315D01*
X152668684Y-112138274D01*
X152668679Y-112138270D01*
X152516477Y-112027690D01*
X152516476Y-112027689D01*
X152516474Y-112027688D01*
X152464124Y-112001014D01*
X152348840Y-111942273D01*
X152169900Y-111884131D01*
X151998043Y-111856912D01*
X151934908Y-111826983D01*
X151897977Y-111767671D01*
X151898975Y-111697809D01*
X151937585Y-111639576D01*
X151998043Y-111611966D01*
X152148825Y-111588084D01*
X152314288Y-111534322D01*
X152469304Y-111455337D01*
X152610055Y-111353076D01*
X152733076Y-111230055D01*
X152835337Y-111089304D01*
X152914322Y-110934288D01*
X152968084Y-110768825D01*
X152995300Y-110596994D01*
X152995300Y-110423005D01*
X152968084Y-110251174D01*
X152955145Y-110211354D01*
X152914322Y-110085712D01*
X152835337Y-109930696D01*
X152740346Y-109799951D01*
X152733081Y-109789951D01*
X152733077Y-109789946D01*
X152610053Y-109666922D01*
X152610048Y-109666918D01*
X152469307Y-109564665D01*
X152469306Y-109564664D01*
X152469304Y-109564663D01*
X152314288Y-109485678D01*
X152271376Y-109471735D01*
X152148825Y-109431915D01*
X151976994Y-109404700D01*
X151976989Y-109404700D01*
X151803011Y-109404700D01*
X151803006Y-109404700D01*
X151631174Y-109431915D01*
X151465709Y-109485679D01*
X151310692Y-109564665D01*
X151169951Y-109666918D01*
X151169946Y-109666922D01*
X151046922Y-109789946D01*
X151046918Y-109789951D01*
X150944665Y-109930692D01*
X150865679Y-110085709D01*
X150811915Y-110251174D01*
X150784700Y-110423005D01*
X150784700Y-110596994D01*
X150811915Y-110768825D01*
X150865679Y-110934290D01*
X150944665Y-111089307D01*
X151046918Y-111230048D01*
X151046922Y-111230053D01*
X151169946Y-111353077D01*
X151169951Y-111353081D01*
X151292712Y-111442271D01*
X151310696Y-111455337D01*
X151465712Y-111534322D01*
X151591354Y-111575145D01*
X151631174Y-111588084D01*
X151781956Y-111611966D01*
X151845091Y-111641895D01*
X151882022Y-111701207D01*
X151881024Y-111771070D01*
X151842414Y-111829302D01*
X151781956Y-111856912D01*
X151610099Y-111884131D01*
X151431159Y-111942273D01*
X151263522Y-112027690D01*
X151111320Y-112138270D01*
X151111315Y-112138274D01*
X150978274Y-112271315D01*
X150978270Y-112271320D01*
X150867690Y-112423522D01*
X150782273Y-112591159D01*
X150724131Y-112770099D01*
X150694700Y-112955922D01*
X148000500Y-112955922D01*
X148000500Y-107883005D01*
X150784700Y-107883005D01*
X150784700Y-108056994D01*
X150811915Y-108228825D01*
X150865679Y-108394290D01*
X150944665Y-108549307D01*
X151046918Y-108690048D01*
X151046922Y-108690053D01*
X151169946Y-108813077D01*
X151169951Y-108813081D01*
X151292712Y-108902271D01*
X151310696Y-108915337D01*
X151465712Y-108994322D01*
X151591354Y-109035145D01*
X151631174Y-109048084D01*
X151803006Y-109075300D01*
X151803011Y-109075300D01*
X151976994Y-109075300D01*
X152148825Y-109048084D01*
X152314288Y-108994322D01*
X152469304Y-108915337D01*
X152610055Y-108813076D01*
X152733076Y-108690055D01*
X152835337Y-108549304D01*
X152914322Y-108394288D01*
X152968084Y-108228825D01*
X152995300Y-108056994D01*
X152995300Y-107883005D01*
X166024700Y-107883005D01*
X166024700Y-108056994D01*
X166051915Y-108228825D01*
X166105679Y-108394290D01*
X166184665Y-108549307D01*
X166286918Y-108690048D01*
X166286922Y-108690053D01*
X166409946Y-108813077D01*
X166409951Y-108813081D01*
X166532712Y-108902271D01*
X166550696Y-108915337D01*
X166705712Y-108994322D01*
X166831354Y-109035145D01*
X166871174Y-109048084D01*
X167043006Y-109075300D01*
X167043011Y-109075300D01*
X167216994Y-109075300D01*
X167388825Y-109048084D01*
X167554288Y-108994322D01*
X167709304Y-108915337D01*
X167850055Y-108813076D01*
X167973076Y-108690055D01*
X168075337Y-108549304D01*
X168154322Y-108394288D01*
X168208084Y-108228825D01*
X168235300Y-108056994D01*
X168235300Y-107893005D01*
X170894700Y-107893005D01*
X170894700Y-108066994D01*
X170921915Y-108238825D01*
X170961735Y-108361376D01*
X170975678Y-108404288D01*
X171049569Y-108549307D01*
X171054665Y-108559307D01*
X171156918Y-108700048D01*
X171156922Y-108700053D01*
X171279946Y-108823077D01*
X171279951Y-108823081D01*
X171402712Y-108912271D01*
X171420696Y-108925337D01*
X171575712Y-109004322D01*
X171701354Y-109045145D01*
X171741174Y-109058084D01*
X171913006Y-109085300D01*
X171913011Y-109085300D01*
X172086994Y-109085300D01*
X172258825Y-109058084D01*
X172424288Y-109004322D01*
X172579304Y-108925337D01*
X172720055Y-108823076D01*
X172843076Y-108700055D01*
X172945337Y-108559304D01*
X173024322Y-108404288D01*
X173078084Y-108238825D01*
X173079668Y-108228825D01*
X173105300Y-108066994D01*
X173105300Y-107893005D01*
X186134700Y-107893005D01*
X186134700Y-108066994D01*
X186161915Y-108238825D01*
X186201735Y-108361376D01*
X186215678Y-108404288D01*
X186289569Y-108549307D01*
X186294665Y-108559307D01*
X186396918Y-108700048D01*
X186396922Y-108700053D01*
X186519946Y-108823077D01*
X186519951Y-108823081D01*
X186642712Y-108912271D01*
X186660696Y-108925337D01*
X186815712Y-109004322D01*
X186941354Y-109045145D01*
X186981174Y-109058084D01*
X187153006Y-109085300D01*
X187153011Y-109085300D01*
X187326994Y-109085300D01*
X187498825Y-109058084D01*
X187664288Y-109004322D01*
X187819304Y-108925337D01*
X187960055Y-108823076D01*
X188083076Y-108700055D01*
X188185337Y-108559304D01*
X188264322Y-108404288D01*
X188318084Y-108238825D01*
X188319668Y-108228825D01*
X188345300Y-108066994D01*
X188345300Y-107893005D01*
X188318084Y-107721174D01*
X188305145Y-107681354D01*
X188264322Y-107555712D01*
X188185337Y-107400696D01*
X188172271Y-107382712D01*
X188083081Y-107259951D01*
X188083077Y-107259946D01*
X187960053Y-107136922D01*
X187960048Y-107136918D01*
X187819307Y-107034665D01*
X187819306Y-107034664D01*
X187819304Y-107034663D01*
X187664288Y-106955678D01*
X187621376Y-106941735D01*
X187498825Y-106901915D01*
X187326994Y-106874700D01*
X187326989Y-106874700D01*
X187153011Y-106874700D01*
X187153006Y-106874700D01*
X186981174Y-106901915D01*
X186815709Y-106955679D01*
X186660692Y-107034665D01*
X186519951Y-107136918D01*
X186519946Y-107136922D01*
X186396922Y-107259946D01*
X186396918Y-107259951D01*
X186294665Y-107400692D01*
X186215679Y-107555709D01*
X186161915Y-107721174D01*
X186134700Y-107893005D01*
X173105300Y-107893005D01*
X173078084Y-107721174D01*
X173065145Y-107681354D01*
X173024322Y-107555712D01*
X172945337Y-107400696D01*
X172932271Y-107382712D01*
X172843081Y-107259951D01*
X172843077Y-107259946D01*
X172720053Y-107136922D01*
X172720048Y-107136918D01*
X172579307Y-107034665D01*
X172579306Y-107034664D01*
X172579304Y-107034663D01*
X172424288Y-106955678D01*
X172381376Y-106941735D01*
X172258825Y-106901915D01*
X172086994Y-106874700D01*
X172086989Y-106874700D01*
X171913011Y-106874700D01*
X171913006Y-106874700D01*
X171741174Y-106901915D01*
X171575709Y-106955679D01*
X171420692Y-107034665D01*
X171279951Y-107136918D01*
X171279946Y-107136922D01*
X171156922Y-107259946D01*
X171156918Y-107259951D01*
X171054665Y-107400692D01*
X170975679Y-107555709D01*
X170921915Y-107721174D01*
X170894700Y-107893005D01*
X168235300Y-107893005D01*
X168235300Y-107883005D01*
X168208084Y-107711174D01*
X168195145Y-107671354D01*
X168154322Y-107545712D01*
X168075337Y-107390696D01*
X167980346Y-107259951D01*
X167973081Y-107249951D01*
X167973077Y-107249946D01*
X167850053Y-107126922D01*
X167850048Y-107126918D01*
X167709307Y-107024665D01*
X167709306Y-107024664D01*
X167709304Y-107024663D01*
X167554288Y-106945678D01*
X167511376Y-106931735D01*
X167388825Y-106891915D01*
X167216994Y-106864700D01*
X167216989Y-106864700D01*
X167043011Y-106864700D01*
X167043006Y-106864700D01*
X166871174Y-106891915D01*
X166705709Y-106945679D01*
X166550692Y-107024665D01*
X166409951Y-107126918D01*
X166409946Y-107126922D01*
X166286922Y-107249946D01*
X166286918Y-107249951D01*
X166184665Y-107390692D01*
X166105679Y-107545709D01*
X166051915Y-107711174D01*
X166024700Y-107883005D01*
X152995300Y-107883005D01*
X152968084Y-107711174D01*
X152955145Y-107671354D01*
X152914322Y-107545712D01*
X152835337Y-107390696D01*
X152740346Y-107259951D01*
X152733081Y-107249951D01*
X152733077Y-107249946D01*
X152610053Y-107126922D01*
X152610048Y-107126918D01*
X152469307Y-107024665D01*
X152469306Y-107024664D01*
X152469304Y-107024663D01*
X152314288Y-106945678D01*
X152271376Y-106931735D01*
X152148825Y-106891915D01*
X151976994Y-106864700D01*
X151976989Y-106864700D01*
X151803011Y-106864700D01*
X151803006Y-106864700D01*
X151631174Y-106891915D01*
X151465709Y-106945679D01*
X151310692Y-107024665D01*
X151169951Y-107126918D01*
X151169946Y-107126922D01*
X151046922Y-107249946D01*
X151046918Y-107249951D01*
X150944665Y-107390692D01*
X150865679Y-107545709D01*
X150811915Y-107711174D01*
X150784700Y-107883005D01*
X148000500Y-107883005D01*
X148000500Y-105343005D01*
X150784700Y-105343005D01*
X150784700Y-105516994D01*
X150811915Y-105688825D01*
X150865679Y-105854290D01*
X150944665Y-106009307D01*
X151046918Y-106150048D01*
X151046922Y-106150053D01*
X151169946Y-106273077D01*
X151169951Y-106273081D01*
X151292712Y-106362271D01*
X151310696Y-106375337D01*
X151465712Y-106454322D01*
X151591354Y-106495145D01*
X151631174Y-106508084D01*
X151803006Y-106535300D01*
X151803011Y-106535300D01*
X151976994Y-106535300D01*
X152148825Y-106508084D01*
X152314288Y-106454322D01*
X152469304Y-106375337D01*
X152610055Y-106273076D01*
X152733076Y-106150055D01*
X152835337Y-106009304D01*
X152914322Y-105854288D01*
X152968084Y-105688825D01*
X152995300Y-105516994D01*
X152995300Y-105343005D01*
X166024700Y-105343005D01*
X166024700Y-105516994D01*
X166051915Y-105688825D01*
X166105679Y-105854290D01*
X166184665Y-106009307D01*
X166286918Y-106150048D01*
X166286922Y-106150053D01*
X166409946Y-106273077D01*
X166409951Y-106273081D01*
X166532712Y-106362271D01*
X166550696Y-106375337D01*
X166705712Y-106454322D01*
X166831354Y-106495145D01*
X166871174Y-106508084D01*
X167043006Y-106535300D01*
X167043011Y-106535300D01*
X167216994Y-106535300D01*
X167388825Y-106508084D01*
X167554288Y-106454322D01*
X167709304Y-106375337D01*
X167850055Y-106273076D01*
X167973076Y-106150055D01*
X168075337Y-106009304D01*
X168154322Y-105854288D01*
X168208084Y-105688825D01*
X168235300Y-105516994D01*
X168235300Y-105353005D01*
X170894700Y-105353005D01*
X170894700Y-105526994D01*
X170921915Y-105698825D01*
X170961735Y-105821376D01*
X170975678Y-105864288D01*
X171049569Y-106009307D01*
X171054665Y-106019307D01*
X171156918Y-106160048D01*
X171156922Y-106160053D01*
X171279946Y-106283077D01*
X171279951Y-106283081D01*
X171402712Y-106372271D01*
X171420696Y-106385337D01*
X171575712Y-106464322D01*
X171701354Y-106505145D01*
X171741174Y-106518084D01*
X171913006Y-106545300D01*
X171913011Y-106545300D01*
X172086994Y-106545300D01*
X172258825Y-106518084D01*
X172424288Y-106464322D01*
X172579304Y-106385337D01*
X172720055Y-106283076D01*
X172843076Y-106160055D01*
X172945337Y-106019304D01*
X173024322Y-105864288D01*
X173078084Y-105698825D01*
X173079668Y-105688825D01*
X173105300Y-105526994D01*
X173105300Y-105353005D01*
X186134700Y-105353005D01*
X186134700Y-105526994D01*
X186161915Y-105698825D01*
X186201735Y-105821376D01*
X186215678Y-105864288D01*
X186289569Y-106009307D01*
X186294665Y-106019307D01*
X186396918Y-106160048D01*
X186396922Y-106160053D01*
X186519946Y-106283077D01*
X186519951Y-106283081D01*
X186642712Y-106372271D01*
X186660696Y-106385337D01*
X186815712Y-106464322D01*
X186941354Y-106505145D01*
X186981174Y-106518084D01*
X187153006Y-106545300D01*
X187153011Y-106545300D01*
X187326994Y-106545300D01*
X187498825Y-106518084D01*
X187664288Y-106464322D01*
X187819304Y-106385337D01*
X187960055Y-106283076D01*
X188083076Y-106160055D01*
X188185337Y-106019304D01*
X188264322Y-105864288D01*
X188318084Y-105698825D01*
X188319668Y-105688825D01*
X188345300Y-105526994D01*
X188345300Y-105353005D01*
X188318084Y-105181174D01*
X188305145Y-105141354D01*
X188264322Y-105015712D01*
X188185337Y-104860696D01*
X188172271Y-104842712D01*
X188083081Y-104719951D01*
X188083077Y-104719946D01*
X187960053Y-104596922D01*
X187960048Y-104596918D01*
X187819307Y-104494665D01*
X187819306Y-104494664D01*
X187819304Y-104494663D01*
X187664288Y-104415678D01*
X187621376Y-104401735D01*
X187498825Y-104361915D01*
X187326994Y-104334700D01*
X187326989Y-104334700D01*
X187153011Y-104334700D01*
X187153006Y-104334700D01*
X186981174Y-104361915D01*
X186815709Y-104415679D01*
X186660692Y-104494665D01*
X186519951Y-104596918D01*
X186519946Y-104596922D01*
X186396922Y-104719946D01*
X186396918Y-104719951D01*
X186294665Y-104860692D01*
X186215679Y-105015709D01*
X186161915Y-105181174D01*
X186134700Y-105353005D01*
X173105300Y-105353005D01*
X173078084Y-105181174D01*
X173065145Y-105141354D01*
X173024322Y-105015712D01*
X172945337Y-104860696D01*
X172932271Y-104842712D01*
X172843081Y-104719951D01*
X172843077Y-104719946D01*
X172720053Y-104596922D01*
X172720048Y-104596918D01*
X172579307Y-104494665D01*
X172579306Y-104494664D01*
X172579304Y-104494663D01*
X172424288Y-104415678D01*
X172381376Y-104401735D01*
X172258825Y-104361915D01*
X172086994Y-104334700D01*
X172086989Y-104334700D01*
X171913011Y-104334700D01*
X171913006Y-104334700D01*
X171741174Y-104361915D01*
X171575709Y-104415679D01*
X171420692Y-104494665D01*
X171279951Y-104596918D01*
X171279946Y-104596922D01*
X171156922Y-104719946D01*
X171156918Y-104719951D01*
X171054665Y-104860692D01*
X170975679Y-105015709D01*
X170921915Y-105181174D01*
X170894700Y-105353005D01*
X168235300Y-105353005D01*
X168235300Y-105343005D01*
X168208084Y-105171174D01*
X168195145Y-105131354D01*
X168154322Y-105005712D01*
X168075337Y-104850696D01*
X167980346Y-104719951D01*
X167973081Y-104709951D01*
X167973077Y-104709946D01*
X167850053Y-104586922D01*
X167850048Y-104586918D01*
X167709307Y-104484665D01*
X167709306Y-104484664D01*
X167709304Y-104484663D01*
X167554288Y-104405678D01*
X167511376Y-104391735D01*
X167388825Y-104351915D01*
X167216994Y-104324700D01*
X167216989Y-104324700D01*
X167043011Y-104324700D01*
X167043006Y-104324700D01*
X166871174Y-104351915D01*
X166705709Y-104405679D01*
X166550692Y-104484665D01*
X166409951Y-104586918D01*
X166409946Y-104586922D01*
X166286922Y-104709946D01*
X166286918Y-104709951D01*
X166184665Y-104850692D01*
X166105679Y-105005709D01*
X166051915Y-105171174D01*
X166024700Y-105343005D01*
X152995300Y-105343005D01*
X152968084Y-105171174D01*
X152955145Y-105131354D01*
X152914322Y-105005712D01*
X152835337Y-104850696D01*
X152740346Y-104719951D01*
X152733081Y-104709951D01*
X152733077Y-104709946D01*
X152610053Y-104586922D01*
X152610048Y-104586918D01*
X152469307Y-104484665D01*
X152469306Y-104484664D01*
X152469304Y-104484663D01*
X152314288Y-104405678D01*
X152271376Y-104391735D01*
X152148825Y-104351915D01*
X151976994Y-104324700D01*
X151976989Y-104324700D01*
X151803011Y-104324700D01*
X151803006Y-104324700D01*
X151631174Y-104351915D01*
X151465709Y-104405679D01*
X151310692Y-104484665D01*
X151169951Y-104586918D01*
X151169946Y-104586922D01*
X151046922Y-104709946D01*
X151046918Y-104709951D01*
X150944665Y-104850692D01*
X150865679Y-105005709D01*
X150811915Y-105171174D01*
X150784700Y-105343005D01*
X148000500Y-105343005D01*
X148000500Y-97723005D01*
X150784700Y-97723005D01*
X150784700Y-97896994D01*
X150811915Y-98068825D01*
X150865679Y-98234290D01*
X150944665Y-98389307D01*
X151046918Y-98530048D01*
X151046922Y-98530053D01*
X151169946Y-98653077D01*
X151169951Y-98653081D01*
X151292712Y-98742271D01*
X151310696Y-98755337D01*
X151465712Y-98834322D01*
X151591354Y-98875145D01*
X151631174Y-98888084D01*
X151803006Y-98915300D01*
X151803011Y-98915300D01*
X151976994Y-98915300D01*
X152148825Y-98888084D01*
X152314288Y-98834322D01*
X152469304Y-98755337D01*
X152610055Y-98653076D01*
X152733076Y-98530055D01*
X152835337Y-98389304D01*
X152914322Y-98234288D01*
X152968084Y-98068825D01*
X152995300Y-97896994D01*
X152995300Y-97723005D01*
X152968084Y-97551174D01*
X152955145Y-97511354D01*
X152914322Y-97385712D01*
X152835337Y-97230696D01*
X152740346Y-97099951D01*
X152733081Y-97089951D01*
X152733077Y-97089946D01*
X152610053Y-96966922D01*
X152610048Y-96966918D01*
X152469307Y-96864665D01*
X152469306Y-96864664D01*
X152469304Y-96864663D01*
X152314288Y-96785678D01*
X152271376Y-96771735D01*
X152148825Y-96731915D01*
X151976994Y-96704700D01*
X151976989Y-96704700D01*
X151803011Y-96704700D01*
X151803006Y-96704700D01*
X151631174Y-96731915D01*
X151465709Y-96785679D01*
X151310692Y-96864665D01*
X151169951Y-96966918D01*
X151169946Y-96966922D01*
X151046922Y-97089946D01*
X151046918Y-97089951D01*
X150944665Y-97230692D01*
X150865679Y-97385709D01*
X150811915Y-97551174D01*
X150784700Y-97723005D01*
X148000500Y-97723005D01*
X148000500Y-95183005D01*
X150784700Y-95183005D01*
X150784700Y-95356994D01*
X150811915Y-95528825D01*
X150865679Y-95694290D01*
X150944665Y-95849307D01*
X151046918Y-95990048D01*
X151046922Y-95990053D01*
X151169946Y-96113077D01*
X151169951Y-96113081D01*
X151292712Y-96202271D01*
X151310696Y-96215337D01*
X151465712Y-96294322D01*
X151591354Y-96335145D01*
X151631174Y-96348084D01*
X151803006Y-96375300D01*
X151803011Y-96375300D01*
X151976994Y-96375300D01*
X152148825Y-96348084D01*
X152314288Y-96294322D01*
X152469304Y-96215337D01*
X152610055Y-96113076D01*
X152733076Y-95990055D01*
X152835337Y-95849304D01*
X152914322Y-95694288D01*
X152968084Y-95528825D01*
X152995300Y-95356994D01*
X152995300Y-95183005D01*
X152968084Y-95011174D01*
X152955145Y-94971354D01*
X152914322Y-94845712D01*
X152835337Y-94690696D01*
X152740346Y-94559951D01*
X152733081Y-94549951D01*
X152733077Y-94549946D01*
X152610053Y-94426922D01*
X152610048Y-94426918D01*
X152469307Y-94324665D01*
X152469306Y-94324664D01*
X152469304Y-94324663D01*
X152314288Y-94245678D01*
X152271376Y-94231735D01*
X152148825Y-94191915D01*
X151976994Y-94164700D01*
X151976989Y-94164700D01*
X151803011Y-94164700D01*
X151803006Y-94164700D01*
X151631174Y-94191915D01*
X151465709Y-94245679D01*
X151310692Y-94324665D01*
X151169951Y-94426918D01*
X151169946Y-94426922D01*
X151046922Y-94549946D01*
X151046918Y-94549951D01*
X150944665Y-94690692D01*
X150865679Y-94845709D01*
X150811915Y-95011174D01*
X150784700Y-95183005D01*
X148000500Y-95183005D01*
X148000500Y-92643005D01*
X150784700Y-92643005D01*
X150784700Y-92816994D01*
X150811915Y-92988825D01*
X150865679Y-93154290D01*
X150944665Y-93309307D01*
X151046918Y-93450048D01*
X151046922Y-93450053D01*
X151169946Y-93573077D01*
X151169951Y-93573081D01*
X151292712Y-93662271D01*
X151310696Y-93675337D01*
X151465712Y-93754322D01*
X151591354Y-93795145D01*
X151631174Y-93808084D01*
X151803006Y-93835300D01*
X151803011Y-93835300D01*
X151976994Y-93835300D01*
X152148825Y-93808084D01*
X152314288Y-93754322D01*
X152469304Y-93675337D01*
X152610055Y-93573076D01*
X152733076Y-93450055D01*
X152835337Y-93309304D01*
X152914322Y-93154288D01*
X152968084Y-92988825D01*
X152995300Y-92816994D01*
X152995300Y-92643005D01*
X152968084Y-92471174D01*
X152955145Y-92431354D01*
X152914322Y-92305712D01*
X152835337Y-92150696D01*
X152788605Y-92086374D01*
X152733081Y-92009951D01*
X152733077Y-92009946D01*
X152610053Y-91886922D01*
X152610048Y-91886918D01*
X152469307Y-91784665D01*
X152469306Y-91784664D01*
X152469304Y-91784663D01*
X152314288Y-91705678D01*
X152271376Y-91691735D01*
X152148825Y-91651915D01*
X151976994Y-91624700D01*
X151976989Y-91624700D01*
X151803011Y-91624700D01*
X151803006Y-91624700D01*
X151631174Y-91651915D01*
X151465709Y-91705679D01*
X151310692Y-91784665D01*
X151169951Y-91886918D01*
X151169946Y-91886922D01*
X151046922Y-92009946D01*
X151046918Y-92009951D01*
X150944665Y-92150692D01*
X150865679Y-92305709D01*
X150811915Y-92471174D01*
X150784700Y-92643005D01*
X148000500Y-92643005D01*
X148000500Y-90103005D01*
X150784700Y-90103005D01*
X150784700Y-90276994D01*
X150811915Y-90448825D01*
X150865679Y-90614290D01*
X150944665Y-90769307D01*
X151046918Y-90910048D01*
X151046922Y-90910053D01*
X151169946Y-91033077D01*
X151169951Y-91033081D01*
X151292712Y-91122271D01*
X151310696Y-91135337D01*
X151465712Y-91214322D01*
X151591354Y-91255145D01*
X151631174Y-91268084D01*
X151803006Y-91295300D01*
X151803011Y-91295300D01*
X151976994Y-91295300D01*
X152148825Y-91268084D01*
X152314288Y-91214322D01*
X152469304Y-91135337D01*
X152610055Y-91033076D01*
X152733076Y-90910055D01*
X152835337Y-90769304D01*
X152914322Y-90614288D01*
X152968084Y-90448825D01*
X152995300Y-90276994D01*
X152995300Y-90103005D01*
X152968084Y-89931174D01*
X152955145Y-89891354D01*
X152914322Y-89765712D01*
X152835337Y-89610696D01*
X152740346Y-89479951D01*
X152733081Y-89469951D01*
X152733077Y-89469946D01*
X152610053Y-89346922D01*
X152610048Y-89346918D01*
X152469307Y-89244665D01*
X152469306Y-89244664D01*
X152469304Y-89244663D01*
X152314288Y-89165678D01*
X152271376Y-89151735D01*
X152148825Y-89111915D01*
X151976994Y-89084700D01*
X151976989Y-89084700D01*
X151803011Y-89084700D01*
X151803006Y-89084700D01*
X151631174Y-89111915D01*
X151465709Y-89165679D01*
X151310692Y-89244665D01*
X151169951Y-89346918D01*
X151169946Y-89346922D01*
X151046922Y-89469946D01*
X151046918Y-89469951D01*
X150944665Y-89610692D01*
X150865679Y-89765709D01*
X150811915Y-89931174D01*
X150784700Y-90103005D01*
X148000500Y-90103005D01*
X148000500Y-87563005D01*
X150784700Y-87563005D01*
X150784700Y-87736994D01*
X150811915Y-87908825D01*
X150865679Y-88074290D01*
X150944665Y-88229307D01*
X151046918Y-88370048D01*
X151046922Y-88370053D01*
X151169946Y-88493077D01*
X151169951Y-88493081D01*
X151292712Y-88582271D01*
X151310696Y-88595337D01*
X151465712Y-88674322D01*
X151591354Y-88715145D01*
X151631174Y-88728084D01*
X151803006Y-88755300D01*
X151803011Y-88755300D01*
X151976994Y-88755300D01*
X152148825Y-88728084D01*
X152314288Y-88674322D01*
X152469304Y-88595337D01*
X152610055Y-88493076D01*
X152733076Y-88370055D01*
X152835337Y-88229304D01*
X152914322Y-88074288D01*
X152968084Y-87908825D01*
X152995300Y-87736994D01*
X152995300Y-87563005D01*
X152968084Y-87391174D01*
X152955145Y-87351354D01*
X152914322Y-87225712D01*
X152835337Y-87070696D01*
X152740346Y-86939951D01*
X152733081Y-86929951D01*
X152733077Y-86929946D01*
X152610053Y-86806922D01*
X152610048Y-86806918D01*
X152469307Y-86704665D01*
X152469306Y-86704664D01*
X152469304Y-86704663D01*
X152314288Y-86625678D01*
X152271376Y-86611735D01*
X152148825Y-86571915D01*
X151976994Y-86544700D01*
X151976989Y-86544700D01*
X151803011Y-86544700D01*
X151803006Y-86544700D01*
X151631174Y-86571915D01*
X151465709Y-86625679D01*
X151310692Y-86704665D01*
X151169951Y-86806918D01*
X151169946Y-86806922D01*
X151046922Y-86929946D01*
X151046918Y-86929951D01*
X150944665Y-87070692D01*
X150865679Y-87225709D01*
X150811915Y-87391174D01*
X150784700Y-87563005D01*
X148000500Y-87563005D01*
X148000500Y-85023005D01*
X150784700Y-85023005D01*
X150784700Y-85196994D01*
X150811915Y-85368825D01*
X150865679Y-85534290D01*
X150944665Y-85689307D01*
X151046918Y-85830048D01*
X151046922Y-85830053D01*
X151169946Y-85953077D01*
X151169951Y-85953081D01*
X151292712Y-86042271D01*
X151310696Y-86055337D01*
X151465712Y-86134322D01*
X151591354Y-86175145D01*
X151631174Y-86188084D01*
X151803006Y-86215300D01*
X151803011Y-86215300D01*
X151976994Y-86215300D01*
X152148825Y-86188084D01*
X152314288Y-86134322D01*
X152469304Y-86055337D01*
X152610055Y-85953076D01*
X152733076Y-85830055D01*
X152835337Y-85689304D01*
X152914322Y-85534288D01*
X152968084Y-85368825D01*
X152995300Y-85196994D01*
X152995300Y-85023005D01*
X152979466Y-84923042D01*
X152968084Y-84851175D01*
X152965901Y-84844455D01*
X152963902Y-84774614D01*
X152996147Y-84718453D01*
X160904341Y-76810261D01*
X160970864Y-76695038D01*
X160983756Y-76646924D01*
X161005300Y-76566524D01*
X161005300Y-68507645D01*
X161024985Y-68440606D01*
X161060408Y-68404543D01*
X161124905Y-68361449D01*
X161261449Y-68224905D01*
X161368730Y-68064346D01*
X161379580Y-68038152D01*
X161385439Y-68024008D01*
X161429280Y-67969604D01*
X161495574Y-67947539D01*
X161563273Y-67964818D01*
X161610884Y-68015955D01*
X161614561Y-68024008D01*
X161631268Y-68064344D01*
X161631270Y-68064347D01*
X161738549Y-68224903D01*
X161738555Y-68224910D01*
X161875090Y-68361445D01*
X161875093Y-68361447D01*
X161875095Y-68361449D01*
X161939590Y-68404542D01*
X161984396Y-68458154D01*
X161994700Y-68507645D01*
X161994700Y-92019335D01*
X161975015Y-92086374D01*
X161958381Y-92107016D01*
X153076496Y-100988900D01*
X153015173Y-101022385D01*
X152945481Y-101017401D01*
X152889548Y-100975529D01*
X152865131Y-100910065D01*
X152878331Y-100844923D01*
X152914320Y-100774292D01*
X152914321Y-100774290D01*
X152914322Y-100774288D01*
X152968084Y-100608825D01*
X152995300Y-100436994D01*
X152995300Y-100263005D01*
X152968084Y-100091174D01*
X152955145Y-100051354D01*
X152914322Y-99925712D01*
X152835337Y-99770696D01*
X152740346Y-99639951D01*
X152733081Y-99629951D01*
X152733077Y-99629946D01*
X152610053Y-99506922D01*
X152610048Y-99506918D01*
X152469307Y-99404665D01*
X152469306Y-99404664D01*
X152469304Y-99404663D01*
X152314288Y-99325678D01*
X152271376Y-99311735D01*
X152148825Y-99271915D01*
X151976994Y-99244700D01*
X151976989Y-99244700D01*
X151803011Y-99244700D01*
X151803006Y-99244700D01*
X151631174Y-99271915D01*
X151465709Y-99325679D01*
X151310692Y-99404665D01*
X151169951Y-99506918D01*
X151169946Y-99506922D01*
X151046922Y-99629946D01*
X151046918Y-99629951D01*
X150944665Y-99770692D01*
X150865679Y-99925709D01*
X150811915Y-100091174D01*
X150784700Y-100263005D01*
X150784700Y-100436994D01*
X150811915Y-100608825D01*
X150851735Y-100731376D01*
X150865678Y-100774288D01*
X150939955Y-100920065D01*
X150944665Y-100929307D01*
X151046918Y-101070048D01*
X151046922Y-101070053D01*
X151169946Y-101193077D01*
X151169951Y-101193081D01*
X151292712Y-101282271D01*
X151310696Y-101295337D01*
X151465712Y-101374322D01*
X151571871Y-101408815D01*
X151631174Y-101428084D01*
X151803006Y-101455300D01*
X151803011Y-101455300D01*
X151976994Y-101455300D01*
X152148825Y-101428084D01*
X152177352Y-101418815D01*
X152314288Y-101374322D01*
X152384924Y-101338330D01*
X152453592Y-101325434D01*
X152518332Y-101351709D01*
X152558590Y-101408815D01*
X152561584Y-101478621D01*
X152528900Y-101536496D01*
X152281546Y-101783850D01*
X152220223Y-101817335D01*
X152155545Y-101814099D01*
X152148827Y-101811916D01*
X151976994Y-101784700D01*
X151976989Y-101784700D01*
X151803011Y-101784700D01*
X151803006Y-101784700D01*
X151631174Y-101811915D01*
X151465709Y-101865679D01*
X151310692Y-101944665D01*
X151169951Y-102046918D01*
X151169946Y-102046922D01*
X151046922Y-102169946D01*
X151046918Y-102169951D01*
X150944665Y-102310692D01*
X150865679Y-102465709D01*
X150811915Y-102631174D01*
X150784700Y-102803005D01*
X150784700Y-102976994D01*
X150811915Y-103148825D01*
X150865679Y-103314290D01*
X150944665Y-103469307D01*
X151046918Y-103610048D01*
X151046922Y-103610053D01*
X151169946Y-103733077D01*
X151169951Y-103733081D01*
X151292712Y-103822271D01*
X151310696Y-103835337D01*
X151465712Y-103914322D01*
X151591354Y-103955145D01*
X151631174Y-103968084D01*
X151803006Y-103995300D01*
X151803011Y-103995300D01*
X151976994Y-103995300D01*
X152148825Y-103968084D01*
X152314288Y-103914322D01*
X152469304Y-103835337D01*
X152610055Y-103733076D01*
X152733076Y-103610055D01*
X152835337Y-103469304D01*
X152914322Y-103314288D01*
X152968084Y-103148825D01*
X152995300Y-102976994D01*
X152995300Y-102808439D01*
X152995300Y-102803011D01*
X152995299Y-102803005D01*
X166024700Y-102803005D01*
X166024700Y-102976994D01*
X166051915Y-103148825D01*
X166105679Y-103314290D01*
X166184665Y-103469307D01*
X166286918Y-103610048D01*
X166286922Y-103610053D01*
X166409946Y-103733077D01*
X166409951Y-103733081D01*
X166532712Y-103822271D01*
X166550696Y-103835337D01*
X166705712Y-103914322D01*
X166831354Y-103955145D01*
X166871174Y-103968084D01*
X167043006Y-103995300D01*
X167043011Y-103995300D01*
X167216994Y-103995300D01*
X167388825Y-103968084D01*
X167554288Y-103914322D01*
X167709304Y-103835337D01*
X167850055Y-103733076D01*
X167973076Y-103610055D01*
X168075337Y-103469304D01*
X168154322Y-103314288D01*
X168208084Y-103148825D01*
X168235300Y-102976994D01*
X168235300Y-102803005D01*
X168208084Y-102631174D01*
X168180425Y-102546049D01*
X168154322Y-102465712D01*
X168075337Y-102310696D01*
X167980346Y-102179951D01*
X167973081Y-102169951D01*
X167973077Y-102169946D01*
X167850053Y-102046922D01*
X167850048Y-102046918D01*
X167709307Y-101944665D01*
X167709306Y-101944664D01*
X167709304Y-101944663D01*
X167554288Y-101865678D01*
X167498591Y-101847581D01*
X167388825Y-101811915D01*
X167216994Y-101784700D01*
X167216989Y-101784700D01*
X167043011Y-101784700D01*
X167043006Y-101784700D01*
X166871174Y-101811915D01*
X166705709Y-101865679D01*
X166550692Y-101944665D01*
X166409951Y-102046918D01*
X166409946Y-102046922D01*
X166286922Y-102169946D01*
X166286918Y-102169951D01*
X166184665Y-102310692D01*
X166105679Y-102465709D01*
X166051915Y-102631174D01*
X166024700Y-102803005D01*
X152995299Y-102803005D01*
X152968084Y-102631175D01*
X152963050Y-102615684D01*
X152961530Y-102606594D01*
X152964648Y-102580693D01*
X152963902Y-102554614D01*
X152968819Y-102546049D01*
X152969882Y-102537225D01*
X152982977Y-102521391D01*
X152996147Y-102498453D01*
X155231595Y-100263005D01*
X166024700Y-100263005D01*
X166024700Y-100436994D01*
X166051915Y-100608825D01*
X166091735Y-100731376D01*
X166105678Y-100774288D01*
X166179955Y-100920065D01*
X166184665Y-100929307D01*
X166286918Y-101070048D01*
X166286922Y-101070053D01*
X166409946Y-101193077D01*
X166409951Y-101193081D01*
X166532712Y-101282271D01*
X166550696Y-101295337D01*
X166705712Y-101374322D01*
X166811871Y-101408815D01*
X166871174Y-101428084D01*
X167043006Y-101455300D01*
X167043011Y-101455300D01*
X167216994Y-101455300D01*
X167388825Y-101428084D01*
X167554288Y-101374322D01*
X167709304Y-101295337D01*
X167850055Y-101193076D01*
X167973076Y-101070055D01*
X168075337Y-100929304D01*
X168154322Y-100774288D01*
X168208084Y-100608825D01*
X168235300Y-100436994D01*
X168235300Y-100263005D01*
X168208084Y-100091174D01*
X168195145Y-100051354D01*
X168154322Y-99925712D01*
X168075337Y-99770696D01*
X167980346Y-99639951D01*
X167973081Y-99629951D01*
X167973077Y-99629946D01*
X167850053Y-99506922D01*
X167850048Y-99506918D01*
X167709307Y-99404665D01*
X167709306Y-99404664D01*
X167709304Y-99404663D01*
X167554288Y-99325678D01*
X167511376Y-99311735D01*
X167388825Y-99271915D01*
X167216994Y-99244700D01*
X167216989Y-99244700D01*
X167043011Y-99244700D01*
X167043006Y-99244700D01*
X166871174Y-99271915D01*
X166705709Y-99325679D01*
X166550692Y-99404665D01*
X166409951Y-99506918D01*
X166409946Y-99506922D01*
X166286922Y-99629946D01*
X166286918Y-99629951D01*
X166184665Y-99770692D01*
X166105679Y-99925709D01*
X166051915Y-100091174D01*
X166024700Y-100263005D01*
X155231595Y-100263005D01*
X157771596Y-97723005D01*
X166024700Y-97723005D01*
X166024700Y-97896994D01*
X166051915Y-98068825D01*
X166105679Y-98234290D01*
X166184665Y-98389307D01*
X166286918Y-98530048D01*
X166286922Y-98530053D01*
X166409946Y-98653077D01*
X166409951Y-98653081D01*
X166532712Y-98742271D01*
X166550696Y-98755337D01*
X166705712Y-98834322D01*
X166831354Y-98875145D01*
X166871174Y-98888084D01*
X167043006Y-98915300D01*
X167043011Y-98915300D01*
X167216994Y-98915300D01*
X167388825Y-98888084D01*
X167554288Y-98834322D01*
X167709304Y-98755337D01*
X167850055Y-98653076D01*
X167973076Y-98530055D01*
X168075337Y-98389304D01*
X168154322Y-98234288D01*
X168208084Y-98068825D01*
X168235300Y-97896994D01*
X168235300Y-97733005D01*
X170894700Y-97733005D01*
X170894700Y-97906994D01*
X170921915Y-98078825D01*
X170961735Y-98201376D01*
X170975678Y-98244288D01*
X171049569Y-98389307D01*
X171054665Y-98399307D01*
X171156918Y-98540048D01*
X171156922Y-98540053D01*
X171279946Y-98663077D01*
X171279951Y-98663081D01*
X171402712Y-98752271D01*
X171420696Y-98765337D01*
X171575712Y-98844322D01*
X171701354Y-98885145D01*
X171741174Y-98898084D01*
X171913006Y-98925300D01*
X171913011Y-98925300D01*
X172086994Y-98925300D01*
X172258825Y-98898084D01*
X172424288Y-98844322D01*
X172579304Y-98765337D01*
X172720055Y-98663076D01*
X172843076Y-98540055D01*
X172945337Y-98399304D01*
X173024322Y-98244288D01*
X173078084Y-98078825D01*
X173079668Y-98068825D01*
X173105300Y-97906994D01*
X173105300Y-97733005D01*
X173078084Y-97561174D01*
X173065145Y-97521354D01*
X173024322Y-97395712D01*
X172945337Y-97240696D01*
X172932271Y-97222712D01*
X172843081Y-97099951D01*
X172843077Y-97099946D01*
X172720053Y-96976922D01*
X172720048Y-96976918D01*
X172579307Y-96874665D01*
X172579306Y-96874664D01*
X172579304Y-96874663D01*
X172424288Y-96795678D01*
X172381376Y-96781735D01*
X172258825Y-96741915D01*
X172086994Y-96714700D01*
X172086989Y-96714700D01*
X171913011Y-96714700D01*
X171913006Y-96714700D01*
X171741174Y-96741915D01*
X171575709Y-96795679D01*
X171420692Y-96874665D01*
X171279951Y-96976918D01*
X171279946Y-96976922D01*
X171156922Y-97099946D01*
X171156918Y-97099951D01*
X171054665Y-97240692D01*
X170975679Y-97395709D01*
X170921915Y-97561174D01*
X170894700Y-97733005D01*
X168235300Y-97733005D01*
X168235300Y-97723005D01*
X168208084Y-97551174D01*
X168195145Y-97511354D01*
X168154322Y-97385712D01*
X168075337Y-97230696D01*
X167980346Y-97099951D01*
X167973081Y-97089951D01*
X167973077Y-97089946D01*
X167850053Y-96966922D01*
X167850048Y-96966918D01*
X167709307Y-96864665D01*
X167709306Y-96864664D01*
X167709304Y-96864663D01*
X167554288Y-96785678D01*
X167511376Y-96771735D01*
X167388825Y-96731915D01*
X167216994Y-96704700D01*
X167216989Y-96704700D01*
X167043011Y-96704700D01*
X167043006Y-96704700D01*
X166871174Y-96731915D01*
X166705709Y-96785679D01*
X166550692Y-96864665D01*
X166409951Y-96966918D01*
X166409946Y-96966922D01*
X166286922Y-97089946D01*
X166286918Y-97089951D01*
X166184665Y-97230692D01*
X166105679Y-97385709D01*
X166051915Y-97551174D01*
X166024700Y-97723005D01*
X157771596Y-97723005D01*
X160311596Y-95183005D01*
X166024700Y-95183005D01*
X166024700Y-95356994D01*
X166051915Y-95528825D01*
X166105679Y-95694290D01*
X166184665Y-95849307D01*
X166286918Y-95990048D01*
X166286922Y-95990053D01*
X166409946Y-96113077D01*
X166409951Y-96113081D01*
X166532712Y-96202271D01*
X166550696Y-96215337D01*
X166705712Y-96294322D01*
X166831354Y-96335145D01*
X166871174Y-96348084D01*
X167043006Y-96375300D01*
X167043011Y-96375300D01*
X167216994Y-96375300D01*
X167388825Y-96348084D01*
X167554288Y-96294322D01*
X167709304Y-96215337D01*
X167850055Y-96113076D01*
X167973076Y-95990055D01*
X168075337Y-95849304D01*
X168154322Y-95694288D01*
X168208084Y-95528825D01*
X168235300Y-95356994D01*
X168235300Y-95193005D01*
X170894700Y-95193005D01*
X170894700Y-95366994D01*
X170921915Y-95538825D01*
X170961735Y-95661376D01*
X170975678Y-95704288D01*
X171049569Y-95849307D01*
X171054665Y-95859307D01*
X171156918Y-96000048D01*
X171156922Y-96000053D01*
X171279946Y-96123077D01*
X171279951Y-96123081D01*
X171402712Y-96212271D01*
X171420696Y-96225337D01*
X171575712Y-96304322D01*
X171701354Y-96345145D01*
X171741174Y-96358084D01*
X171913006Y-96385300D01*
X171913011Y-96385300D01*
X172086994Y-96385300D01*
X172258825Y-96358084D01*
X172424288Y-96304322D01*
X172579304Y-96225337D01*
X172720055Y-96123076D01*
X172843076Y-96000055D01*
X172945337Y-95859304D01*
X173024322Y-95704288D01*
X173078084Y-95538825D01*
X173079668Y-95528825D01*
X173105300Y-95366994D01*
X173105300Y-95193005D01*
X173078084Y-95021174D01*
X173065145Y-94981354D01*
X173024322Y-94855712D01*
X172945337Y-94700696D01*
X172932271Y-94682712D01*
X172843081Y-94559951D01*
X172843077Y-94559946D01*
X172720053Y-94436922D01*
X172720048Y-94436918D01*
X172579307Y-94334665D01*
X172579306Y-94334664D01*
X172579304Y-94334663D01*
X172424288Y-94255678D01*
X172381376Y-94241735D01*
X172258825Y-94201915D01*
X172086994Y-94174700D01*
X172086989Y-94174700D01*
X171913011Y-94174700D01*
X171913006Y-94174700D01*
X171741174Y-94201915D01*
X171575709Y-94255679D01*
X171420692Y-94334665D01*
X171279951Y-94436918D01*
X171279946Y-94436922D01*
X171156922Y-94559946D01*
X171156918Y-94559951D01*
X171054665Y-94700692D01*
X170975679Y-94855709D01*
X170921915Y-95021174D01*
X170894700Y-95193005D01*
X168235300Y-95193005D01*
X168235300Y-95183005D01*
X168208084Y-95011174D01*
X168195145Y-94971354D01*
X168154322Y-94845712D01*
X168075337Y-94690696D01*
X167980346Y-94559951D01*
X167973081Y-94549951D01*
X167973077Y-94549946D01*
X167850053Y-94426922D01*
X167850048Y-94426918D01*
X167709307Y-94324665D01*
X167709306Y-94324664D01*
X167709304Y-94324663D01*
X167554288Y-94245678D01*
X167511376Y-94231735D01*
X167388825Y-94191915D01*
X167216994Y-94164700D01*
X167216989Y-94164700D01*
X167043011Y-94164700D01*
X167043006Y-94164700D01*
X166871174Y-94191915D01*
X166705709Y-94245679D01*
X166550692Y-94324665D01*
X166409951Y-94426918D01*
X166409946Y-94426922D01*
X166286922Y-94549946D01*
X166286918Y-94549951D01*
X166184665Y-94690692D01*
X166105679Y-94845709D01*
X166051915Y-95011174D01*
X166024700Y-95183005D01*
X160311596Y-95183005D01*
X162851597Y-92643005D01*
X166024700Y-92643005D01*
X166024700Y-92816994D01*
X166051915Y-92988825D01*
X166105679Y-93154290D01*
X166184665Y-93309307D01*
X166286918Y-93450048D01*
X166286922Y-93450053D01*
X166409946Y-93573077D01*
X166409951Y-93573081D01*
X166532712Y-93662271D01*
X166550696Y-93675337D01*
X166705712Y-93754322D01*
X166831354Y-93795145D01*
X166871174Y-93808084D01*
X167043006Y-93835300D01*
X167043011Y-93835300D01*
X167216994Y-93835300D01*
X167388825Y-93808084D01*
X167554288Y-93754322D01*
X167709304Y-93675337D01*
X167850055Y-93573076D01*
X167973076Y-93450055D01*
X168075337Y-93309304D01*
X168154322Y-93154288D01*
X168208084Y-92988825D01*
X168235300Y-92816994D01*
X168235300Y-92653005D01*
X170894700Y-92653005D01*
X170894700Y-92826994D01*
X170921915Y-92998825D01*
X170961735Y-93121376D01*
X170975678Y-93164288D01*
X171049569Y-93309307D01*
X171054665Y-93319307D01*
X171156918Y-93460048D01*
X171156922Y-93460053D01*
X171279946Y-93583077D01*
X171279951Y-93583081D01*
X171402712Y-93672271D01*
X171420696Y-93685337D01*
X171575712Y-93764322D01*
X171701354Y-93805145D01*
X171741174Y-93818084D01*
X171913006Y-93845300D01*
X171913011Y-93845300D01*
X172086994Y-93845300D01*
X172258825Y-93818084D01*
X172424288Y-93764322D01*
X172579304Y-93685337D01*
X172720055Y-93583076D01*
X172843076Y-93460055D01*
X172945337Y-93319304D01*
X173024322Y-93164288D01*
X173078084Y-92998825D01*
X173079668Y-92988825D01*
X173105300Y-92826994D01*
X173105300Y-92653005D01*
X173078084Y-92481174D01*
X173034333Y-92346524D01*
X173024322Y-92315712D01*
X172945337Y-92160696D01*
X172929817Y-92139335D01*
X172843081Y-92019951D01*
X172843077Y-92019946D01*
X172720053Y-91896922D01*
X172720048Y-91896918D01*
X172579307Y-91794665D01*
X172579306Y-91794664D01*
X172579304Y-91794663D01*
X172424288Y-91715678D01*
X172381376Y-91701735D01*
X172258825Y-91661915D01*
X172086994Y-91634700D01*
X172086989Y-91634700D01*
X171913011Y-91634700D01*
X171913006Y-91634700D01*
X171741174Y-91661915D01*
X171575709Y-91715679D01*
X171420692Y-91794665D01*
X171279951Y-91896918D01*
X171279946Y-91896922D01*
X171156922Y-92019946D01*
X171156918Y-92019951D01*
X171054665Y-92160692D01*
X170975679Y-92315709D01*
X170921915Y-92481174D01*
X170894700Y-92653005D01*
X168235300Y-92653005D01*
X168235300Y-92643005D01*
X168208084Y-92471174D01*
X168195145Y-92431354D01*
X168154322Y-92305712D01*
X168075337Y-92150696D01*
X168028605Y-92086374D01*
X167973081Y-92009951D01*
X167973077Y-92009946D01*
X167850053Y-91886922D01*
X167850048Y-91886918D01*
X167709307Y-91784665D01*
X167709306Y-91784664D01*
X167709304Y-91784663D01*
X167554288Y-91705678D01*
X167511376Y-91691735D01*
X167388825Y-91651915D01*
X167216994Y-91624700D01*
X167216989Y-91624700D01*
X167043011Y-91624700D01*
X167043006Y-91624700D01*
X166871174Y-91651915D01*
X166705709Y-91705679D01*
X166550692Y-91784665D01*
X166409951Y-91886918D01*
X166409946Y-91886922D01*
X166286922Y-92009946D01*
X166286918Y-92009951D01*
X166184665Y-92150692D01*
X166105679Y-92305709D01*
X166051915Y-92471174D01*
X166024700Y-92643005D01*
X162851597Y-92643005D01*
X162904341Y-92590261D01*
X162970864Y-92475038D01*
X162973145Y-92466524D01*
X163005300Y-92346524D01*
X163005300Y-90103005D01*
X166024700Y-90103005D01*
X166024700Y-90276994D01*
X166051915Y-90448825D01*
X166105679Y-90614290D01*
X166184665Y-90769307D01*
X166286918Y-90910048D01*
X166286922Y-90910053D01*
X166409946Y-91033077D01*
X166409951Y-91033081D01*
X166532712Y-91122271D01*
X166550696Y-91135337D01*
X166705712Y-91214322D01*
X166831354Y-91255145D01*
X166871174Y-91268084D01*
X167043006Y-91295300D01*
X167043011Y-91295300D01*
X167216994Y-91295300D01*
X167388825Y-91268084D01*
X167554288Y-91214322D01*
X167709304Y-91135337D01*
X167850055Y-91033076D01*
X167973076Y-90910055D01*
X168075337Y-90769304D01*
X168154322Y-90614288D01*
X168208084Y-90448825D01*
X168235300Y-90276994D01*
X168235300Y-90113005D01*
X170894700Y-90113005D01*
X170894700Y-90286994D01*
X170921915Y-90458825D01*
X170961735Y-90581376D01*
X170975678Y-90624288D01*
X171049569Y-90769307D01*
X171054665Y-90779307D01*
X171156918Y-90920048D01*
X171156922Y-90920053D01*
X171279946Y-91043077D01*
X171279951Y-91043081D01*
X171402712Y-91132271D01*
X171420696Y-91145337D01*
X171575712Y-91224322D01*
X171701354Y-91265145D01*
X171741174Y-91278084D01*
X171913006Y-91305300D01*
X171913011Y-91305300D01*
X172086994Y-91305300D01*
X172258825Y-91278084D01*
X172424288Y-91224322D01*
X172579304Y-91145337D01*
X172720055Y-91043076D01*
X172843076Y-90920055D01*
X172945337Y-90779304D01*
X173024322Y-90624288D01*
X173078084Y-90458825D01*
X173079668Y-90448825D01*
X173105300Y-90286994D01*
X173105300Y-90113005D01*
X173078084Y-89941174D01*
X173065145Y-89901354D01*
X173024322Y-89775712D01*
X172945337Y-89620696D01*
X172932271Y-89602712D01*
X172843081Y-89479951D01*
X172843077Y-89479946D01*
X172720053Y-89356922D01*
X172720048Y-89356918D01*
X172579307Y-89254665D01*
X172579306Y-89254664D01*
X172579304Y-89254663D01*
X172424288Y-89175678D01*
X172381376Y-89161735D01*
X172258825Y-89121915D01*
X172086994Y-89094700D01*
X172086989Y-89094700D01*
X171913011Y-89094700D01*
X171913006Y-89094700D01*
X171741174Y-89121915D01*
X171575709Y-89175679D01*
X171420692Y-89254665D01*
X171279951Y-89356918D01*
X171279946Y-89356922D01*
X171156922Y-89479946D01*
X171156918Y-89479951D01*
X171054665Y-89620692D01*
X170975679Y-89775709D01*
X170921915Y-89941174D01*
X170894700Y-90113005D01*
X168235300Y-90113005D01*
X168235300Y-90103005D01*
X168208084Y-89931174D01*
X168195145Y-89891354D01*
X168154322Y-89765712D01*
X168075337Y-89610696D01*
X167980346Y-89479951D01*
X167973081Y-89469951D01*
X167973077Y-89469946D01*
X167850053Y-89346922D01*
X167850048Y-89346918D01*
X167709307Y-89244665D01*
X167709306Y-89244664D01*
X167709304Y-89244663D01*
X167554288Y-89165678D01*
X167511376Y-89151735D01*
X167388825Y-89111915D01*
X167216994Y-89084700D01*
X167216989Y-89084700D01*
X167043011Y-89084700D01*
X167043006Y-89084700D01*
X166871174Y-89111915D01*
X166705709Y-89165679D01*
X166550692Y-89244665D01*
X166409951Y-89346918D01*
X166409946Y-89346922D01*
X166286922Y-89469946D01*
X166286918Y-89469951D01*
X166184665Y-89610692D01*
X166105679Y-89765709D01*
X166051915Y-89931174D01*
X166024700Y-90103005D01*
X163005300Y-90103005D01*
X163005300Y-87563005D01*
X166024700Y-87563005D01*
X166024700Y-87736994D01*
X166051915Y-87908825D01*
X166105679Y-88074290D01*
X166184665Y-88229307D01*
X166286918Y-88370048D01*
X166286922Y-88370053D01*
X166409946Y-88493077D01*
X166409951Y-88493081D01*
X166532712Y-88582271D01*
X166550696Y-88595337D01*
X166705712Y-88674322D01*
X166831354Y-88715145D01*
X166871174Y-88728084D01*
X167043006Y-88755300D01*
X167043011Y-88755300D01*
X167216994Y-88755300D01*
X167388825Y-88728084D01*
X167554288Y-88674322D01*
X167709304Y-88595337D01*
X167850055Y-88493076D01*
X167973076Y-88370055D01*
X168075337Y-88229304D01*
X168154322Y-88074288D01*
X168208084Y-87908825D01*
X168235300Y-87736994D01*
X168235300Y-87573005D01*
X170894700Y-87573005D01*
X170894700Y-87746994D01*
X170921915Y-87918825D01*
X170961735Y-88041376D01*
X170975678Y-88084288D01*
X171049569Y-88229307D01*
X171054665Y-88239307D01*
X171156918Y-88380048D01*
X171156922Y-88380053D01*
X171279946Y-88503077D01*
X171279951Y-88503081D01*
X171402712Y-88592271D01*
X171420696Y-88605337D01*
X171575712Y-88684322D01*
X171701354Y-88725145D01*
X171741174Y-88738084D01*
X171913006Y-88765300D01*
X171913011Y-88765300D01*
X172086994Y-88765300D01*
X172258825Y-88738084D01*
X172424288Y-88684322D01*
X172579304Y-88605337D01*
X172720055Y-88503076D01*
X172843076Y-88380055D01*
X172945337Y-88239304D01*
X173024322Y-88084288D01*
X173078084Y-87918825D01*
X173079668Y-87908825D01*
X173105300Y-87746994D01*
X173105300Y-87573005D01*
X173078084Y-87401174D01*
X173065145Y-87361354D01*
X173024322Y-87235712D01*
X172945337Y-87080696D01*
X172932271Y-87062712D01*
X172843081Y-86939951D01*
X172843077Y-86939946D01*
X172720053Y-86816922D01*
X172720048Y-86816918D01*
X172579307Y-86714665D01*
X172579306Y-86714664D01*
X172579304Y-86714663D01*
X172424288Y-86635678D01*
X172381376Y-86621735D01*
X172258825Y-86581915D01*
X172086994Y-86554700D01*
X172086989Y-86554700D01*
X171913011Y-86554700D01*
X171913006Y-86554700D01*
X171741174Y-86581915D01*
X171575709Y-86635679D01*
X171420692Y-86714665D01*
X171279951Y-86816918D01*
X171279946Y-86816922D01*
X171156922Y-86939946D01*
X171156918Y-86939951D01*
X171054665Y-87080692D01*
X170975679Y-87235709D01*
X170921915Y-87401174D01*
X170894700Y-87573005D01*
X168235300Y-87573005D01*
X168235300Y-87563005D01*
X168208084Y-87391174D01*
X168195145Y-87351354D01*
X168154322Y-87225712D01*
X168075337Y-87070696D01*
X167980346Y-86939951D01*
X167973081Y-86929951D01*
X167973077Y-86929946D01*
X167850053Y-86806922D01*
X167850048Y-86806918D01*
X167709307Y-86704665D01*
X167709306Y-86704664D01*
X167709304Y-86704663D01*
X167554288Y-86625678D01*
X167511376Y-86611735D01*
X167388825Y-86571915D01*
X167216994Y-86544700D01*
X167216989Y-86544700D01*
X167043011Y-86544700D01*
X167043006Y-86544700D01*
X166871174Y-86571915D01*
X166705709Y-86625679D01*
X166550692Y-86704665D01*
X166409951Y-86806918D01*
X166409946Y-86806922D01*
X166286922Y-86929946D01*
X166286918Y-86929951D01*
X166184665Y-87070692D01*
X166105679Y-87225709D01*
X166051915Y-87391174D01*
X166024700Y-87563005D01*
X163005300Y-87563005D01*
X163005300Y-85023005D01*
X166024700Y-85023005D01*
X166024700Y-85196994D01*
X166051915Y-85368825D01*
X166105679Y-85534290D01*
X166184665Y-85689307D01*
X166286918Y-85830048D01*
X166286922Y-85830053D01*
X166409946Y-85953077D01*
X166409951Y-85953081D01*
X166532712Y-86042271D01*
X166550696Y-86055337D01*
X166705712Y-86134322D01*
X166831354Y-86175145D01*
X166871174Y-86188084D01*
X167043006Y-86215300D01*
X167043011Y-86215300D01*
X167216994Y-86215300D01*
X167388825Y-86188084D01*
X167554288Y-86134322D01*
X167709304Y-86055337D01*
X167850055Y-85953076D01*
X167973076Y-85830055D01*
X168075337Y-85689304D01*
X168154322Y-85534288D01*
X168208084Y-85368825D01*
X168235300Y-85196994D01*
X168235300Y-85033005D01*
X170894700Y-85033005D01*
X170894700Y-85206994D01*
X170921915Y-85378825D01*
X170961735Y-85501376D01*
X170975678Y-85544288D01*
X171049569Y-85689307D01*
X171054665Y-85699307D01*
X171156918Y-85840048D01*
X171156922Y-85840053D01*
X171279946Y-85963077D01*
X171279951Y-85963081D01*
X171402712Y-86052271D01*
X171420696Y-86065337D01*
X171575712Y-86144322D01*
X171701354Y-86185145D01*
X171741174Y-86198084D01*
X171913006Y-86225300D01*
X171913011Y-86225300D01*
X172086994Y-86225300D01*
X172258825Y-86198084D01*
X172424288Y-86144322D01*
X172579304Y-86065337D01*
X172720055Y-85963076D01*
X172843076Y-85840055D01*
X172945337Y-85699304D01*
X173024322Y-85544288D01*
X173078084Y-85378825D01*
X173079668Y-85368825D01*
X173105300Y-85206994D01*
X173105300Y-85033005D01*
X173089466Y-84933042D01*
X173078084Y-84861175D01*
X173075901Y-84854455D01*
X173073902Y-84784614D01*
X173106147Y-84728453D01*
X180904340Y-76930262D01*
X180970864Y-76815039D01*
X180982947Y-76769945D01*
X181005300Y-76686524D01*
X181005300Y-68507645D01*
X181024985Y-68440606D01*
X181060408Y-68404543D01*
X181124905Y-68361449D01*
X181261449Y-68224905D01*
X181368730Y-68064346D01*
X181379580Y-68038152D01*
X181385439Y-68024008D01*
X181429280Y-67969604D01*
X181495574Y-67947539D01*
X181563273Y-67964818D01*
X181610884Y-68015955D01*
X181614561Y-68024008D01*
X181631268Y-68064344D01*
X181631270Y-68064347D01*
X181738549Y-68224903D01*
X181738555Y-68224910D01*
X181875090Y-68361445D01*
X181875093Y-68361447D01*
X181875095Y-68361449D01*
X181939590Y-68404542D01*
X181984396Y-68458154D01*
X181994700Y-68507645D01*
X181994700Y-92139335D01*
X181975015Y-92206374D01*
X181958381Y-92227016D01*
X173186496Y-100998900D01*
X173125173Y-101032385D01*
X173055481Y-101027401D01*
X172999548Y-100985529D01*
X172975131Y-100920065D01*
X172988331Y-100854923D01*
X172993427Y-100844923D01*
X173024322Y-100784288D01*
X173078084Y-100618825D01*
X173079668Y-100608825D01*
X173105300Y-100446994D01*
X173105300Y-100273005D01*
X173078084Y-100101174D01*
X173065145Y-100061354D01*
X173024322Y-99935712D01*
X172945337Y-99780696D01*
X172932271Y-99762712D01*
X172843081Y-99639951D01*
X172843077Y-99639946D01*
X172720053Y-99516922D01*
X172720048Y-99516918D01*
X172579307Y-99414665D01*
X172579306Y-99414664D01*
X172579304Y-99414663D01*
X172424288Y-99335678D01*
X172381376Y-99321735D01*
X172258825Y-99281915D01*
X172086994Y-99254700D01*
X172086989Y-99254700D01*
X171913011Y-99254700D01*
X171913006Y-99254700D01*
X171741174Y-99281915D01*
X171575709Y-99335679D01*
X171420692Y-99414665D01*
X171279951Y-99516918D01*
X171279946Y-99516922D01*
X171156922Y-99639946D01*
X171156918Y-99639951D01*
X171054665Y-99780692D01*
X170975679Y-99935709D01*
X170921915Y-100101174D01*
X170894700Y-100273005D01*
X170894700Y-100446994D01*
X170921915Y-100618825D01*
X170961735Y-100741376D01*
X170975678Y-100784288D01*
X171049569Y-100929307D01*
X171054665Y-100939307D01*
X171156918Y-101080048D01*
X171156922Y-101080053D01*
X171279946Y-101203077D01*
X171279951Y-101203081D01*
X171402712Y-101292271D01*
X171420696Y-101305337D01*
X171575712Y-101384322D01*
X171681871Y-101418815D01*
X171741174Y-101438084D01*
X171913006Y-101465300D01*
X171913011Y-101465300D01*
X172086994Y-101465300D01*
X172258825Y-101438084D01*
X172289602Y-101428084D01*
X172424288Y-101384322D01*
X172494924Y-101348330D01*
X172563592Y-101335434D01*
X172628332Y-101361709D01*
X172668590Y-101418815D01*
X172671584Y-101488621D01*
X172638900Y-101546496D01*
X172391546Y-101793850D01*
X172330223Y-101827335D01*
X172265545Y-101824099D01*
X172258827Y-101821916D01*
X172086994Y-101794700D01*
X172086989Y-101794700D01*
X171913011Y-101794700D01*
X171913006Y-101794700D01*
X171741174Y-101821915D01*
X171575709Y-101875679D01*
X171420692Y-101954665D01*
X171279951Y-102056918D01*
X171279946Y-102056922D01*
X171156922Y-102179946D01*
X171156918Y-102179951D01*
X171054665Y-102320692D01*
X170975679Y-102475709D01*
X170921915Y-102641174D01*
X170894700Y-102813005D01*
X170894700Y-102986994D01*
X170921915Y-103158825D01*
X170961735Y-103281376D01*
X170975678Y-103324288D01*
X171049569Y-103469307D01*
X171054665Y-103479307D01*
X171156918Y-103620048D01*
X171156922Y-103620053D01*
X171279946Y-103743077D01*
X171279951Y-103743081D01*
X171402712Y-103832271D01*
X171420696Y-103845337D01*
X171575712Y-103924322D01*
X171701354Y-103965145D01*
X171741174Y-103978084D01*
X171913006Y-104005300D01*
X171913011Y-104005300D01*
X172086994Y-104005300D01*
X172258825Y-103978084D01*
X172424288Y-103924322D01*
X172579304Y-103845337D01*
X172720055Y-103743076D01*
X172843076Y-103620055D01*
X172945337Y-103479304D01*
X173024322Y-103324288D01*
X173078084Y-103158825D01*
X173079668Y-103148825D01*
X173105300Y-102986994D01*
X173105300Y-102818439D01*
X173105300Y-102813011D01*
X173105299Y-102813005D01*
X186134700Y-102813005D01*
X186134700Y-102986994D01*
X186161915Y-103158825D01*
X186201735Y-103281376D01*
X186215678Y-103324288D01*
X186289569Y-103469307D01*
X186294665Y-103479307D01*
X186396918Y-103620048D01*
X186396922Y-103620053D01*
X186519946Y-103743077D01*
X186519951Y-103743081D01*
X186642712Y-103832271D01*
X186660696Y-103845337D01*
X186815712Y-103924322D01*
X186941354Y-103965145D01*
X186981174Y-103978084D01*
X187153006Y-104005300D01*
X187153011Y-104005300D01*
X187326994Y-104005300D01*
X187498825Y-103978084D01*
X187664288Y-103924322D01*
X187819304Y-103845337D01*
X187960055Y-103743076D01*
X188083076Y-103620055D01*
X188185337Y-103479304D01*
X188264322Y-103324288D01*
X188318084Y-103158825D01*
X188319668Y-103148825D01*
X188345300Y-102986994D01*
X188345300Y-102813005D01*
X188318084Y-102641174D01*
X188290425Y-102556049D01*
X188264322Y-102475712D01*
X188185337Y-102320696D01*
X188172271Y-102302712D01*
X188083081Y-102179951D01*
X188083077Y-102179946D01*
X187960053Y-102056922D01*
X187960048Y-102056918D01*
X187819307Y-101954665D01*
X187819306Y-101954664D01*
X187819304Y-101954663D01*
X187664288Y-101875678D01*
X187621376Y-101861735D01*
X187498825Y-101821915D01*
X187326994Y-101794700D01*
X187326989Y-101794700D01*
X187153011Y-101794700D01*
X187153006Y-101794700D01*
X186981174Y-101821915D01*
X186815709Y-101875679D01*
X186660692Y-101954665D01*
X186519951Y-102056918D01*
X186519946Y-102056922D01*
X186396922Y-102179946D01*
X186396918Y-102179951D01*
X186294665Y-102320692D01*
X186215679Y-102475709D01*
X186161915Y-102641174D01*
X186134700Y-102813005D01*
X173105299Y-102813005D01*
X173078084Y-102641175D01*
X173073050Y-102625684D01*
X173071530Y-102616594D01*
X173074648Y-102590693D01*
X173073902Y-102564614D01*
X173078819Y-102556049D01*
X173079882Y-102547225D01*
X173092977Y-102531391D01*
X173106147Y-102508453D01*
X175341595Y-100273005D01*
X186134700Y-100273005D01*
X186134700Y-100446994D01*
X186161915Y-100618825D01*
X186201735Y-100741376D01*
X186215678Y-100784288D01*
X186289569Y-100929307D01*
X186294665Y-100939307D01*
X186396918Y-101080048D01*
X186396922Y-101080053D01*
X186519946Y-101203077D01*
X186519951Y-101203081D01*
X186642712Y-101292271D01*
X186660696Y-101305337D01*
X186815712Y-101384322D01*
X186921871Y-101418815D01*
X186981174Y-101438084D01*
X187153006Y-101465300D01*
X187153011Y-101465300D01*
X187326994Y-101465300D01*
X187498825Y-101438084D01*
X187664288Y-101384322D01*
X187819304Y-101305337D01*
X187960055Y-101203076D01*
X188083076Y-101080055D01*
X188185337Y-100939304D01*
X188264322Y-100784288D01*
X188318084Y-100618825D01*
X188319668Y-100608825D01*
X188345300Y-100446994D01*
X188345300Y-100273005D01*
X188318084Y-100101174D01*
X188305145Y-100061354D01*
X188264322Y-99935712D01*
X188185337Y-99780696D01*
X188172271Y-99762712D01*
X188083081Y-99639951D01*
X188083077Y-99639946D01*
X187960053Y-99516922D01*
X187960048Y-99516918D01*
X187819307Y-99414665D01*
X187819306Y-99414664D01*
X187819304Y-99414663D01*
X187664288Y-99335678D01*
X187621376Y-99321735D01*
X187498825Y-99281915D01*
X187326994Y-99254700D01*
X187326989Y-99254700D01*
X187153011Y-99254700D01*
X187153006Y-99254700D01*
X186981174Y-99281915D01*
X186815709Y-99335679D01*
X186660692Y-99414665D01*
X186519951Y-99516918D01*
X186519946Y-99516922D01*
X186396922Y-99639946D01*
X186396918Y-99639951D01*
X186294665Y-99780692D01*
X186215679Y-99935709D01*
X186161915Y-100101174D01*
X186134700Y-100273005D01*
X175341595Y-100273005D01*
X177881596Y-97733005D01*
X186134700Y-97733005D01*
X186134700Y-97906994D01*
X186161915Y-98078825D01*
X186201735Y-98201376D01*
X186215678Y-98244288D01*
X186289569Y-98389307D01*
X186294665Y-98399307D01*
X186396918Y-98540048D01*
X186396922Y-98540053D01*
X186519946Y-98663077D01*
X186519951Y-98663081D01*
X186642712Y-98752271D01*
X186660696Y-98765337D01*
X186815712Y-98844322D01*
X186941354Y-98885145D01*
X186981174Y-98898084D01*
X187153006Y-98925300D01*
X187153011Y-98925300D01*
X187326994Y-98925300D01*
X187498825Y-98898084D01*
X187664288Y-98844322D01*
X187819304Y-98765337D01*
X187960055Y-98663076D01*
X188083076Y-98540055D01*
X188185337Y-98399304D01*
X188264322Y-98244288D01*
X188318084Y-98078825D01*
X188319668Y-98068825D01*
X188345300Y-97906994D01*
X188345300Y-97733005D01*
X188318084Y-97561174D01*
X188305145Y-97521354D01*
X188264322Y-97395712D01*
X188185337Y-97240696D01*
X188172271Y-97222712D01*
X188083081Y-97099951D01*
X188083077Y-97099946D01*
X187960053Y-96976922D01*
X187960048Y-96976918D01*
X187819307Y-96874665D01*
X187819306Y-96874664D01*
X187819304Y-96874663D01*
X187664288Y-96795678D01*
X187621376Y-96781735D01*
X187498825Y-96741915D01*
X187326994Y-96714700D01*
X187326989Y-96714700D01*
X187153011Y-96714700D01*
X187153006Y-96714700D01*
X186981174Y-96741915D01*
X186815709Y-96795679D01*
X186660692Y-96874665D01*
X186519951Y-96976918D01*
X186519946Y-96976922D01*
X186396922Y-97099946D01*
X186396918Y-97099951D01*
X186294665Y-97240692D01*
X186215679Y-97395709D01*
X186161915Y-97561174D01*
X186134700Y-97733005D01*
X177881596Y-97733005D01*
X180421596Y-95193005D01*
X186134700Y-95193005D01*
X186134700Y-95366994D01*
X186161915Y-95538825D01*
X186201735Y-95661376D01*
X186215678Y-95704288D01*
X186289569Y-95849307D01*
X186294665Y-95859307D01*
X186396918Y-96000048D01*
X186396922Y-96000053D01*
X186519946Y-96123077D01*
X186519951Y-96123081D01*
X186642712Y-96212271D01*
X186660696Y-96225337D01*
X186815712Y-96304322D01*
X186941354Y-96345145D01*
X186981174Y-96358084D01*
X187153006Y-96385300D01*
X187153011Y-96385300D01*
X187326994Y-96385300D01*
X187498825Y-96358084D01*
X187664288Y-96304322D01*
X187819304Y-96225337D01*
X187960055Y-96123076D01*
X188083076Y-96000055D01*
X188185337Y-95859304D01*
X188264322Y-95704288D01*
X188318084Y-95538825D01*
X188319668Y-95528825D01*
X188345300Y-95366994D01*
X188345300Y-95193005D01*
X188318084Y-95021174D01*
X188305145Y-94981354D01*
X188264322Y-94855712D01*
X188185337Y-94700696D01*
X188172271Y-94682712D01*
X188083081Y-94559951D01*
X188083077Y-94559946D01*
X187960053Y-94436922D01*
X187960048Y-94436918D01*
X187819307Y-94334665D01*
X187819306Y-94334664D01*
X187819304Y-94334663D01*
X187664288Y-94255678D01*
X187621376Y-94241735D01*
X187498825Y-94201915D01*
X187326994Y-94174700D01*
X187326989Y-94174700D01*
X187153011Y-94174700D01*
X187153006Y-94174700D01*
X186981174Y-94201915D01*
X186815709Y-94255679D01*
X186660692Y-94334665D01*
X186519951Y-94436918D01*
X186519946Y-94436922D01*
X186396922Y-94559946D01*
X186396918Y-94559951D01*
X186294665Y-94700692D01*
X186215679Y-94855709D01*
X186161915Y-95021174D01*
X186134700Y-95193005D01*
X180421596Y-95193005D01*
X182904340Y-92710262D01*
X182937397Y-92653005D01*
X186134700Y-92653005D01*
X186134700Y-92826994D01*
X186161915Y-92998825D01*
X186201735Y-93121376D01*
X186215678Y-93164288D01*
X186289569Y-93309307D01*
X186294665Y-93319307D01*
X186396918Y-93460048D01*
X186396922Y-93460053D01*
X186519946Y-93583077D01*
X186519951Y-93583081D01*
X186642712Y-93672271D01*
X186660696Y-93685337D01*
X186815712Y-93764322D01*
X186941354Y-93805145D01*
X186981174Y-93818084D01*
X187153006Y-93845300D01*
X187153011Y-93845300D01*
X187326994Y-93845300D01*
X187498825Y-93818084D01*
X187664288Y-93764322D01*
X187819304Y-93685337D01*
X187960055Y-93583076D01*
X188083076Y-93460055D01*
X188185337Y-93319304D01*
X188264322Y-93164288D01*
X188318084Y-92998825D01*
X188319668Y-92988825D01*
X188345300Y-92826994D01*
X188345300Y-92653005D01*
X188318084Y-92481174D01*
X188274333Y-92346524D01*
X188264322Y-92315712D01*
X188185337Y-92160696D01*
X188169817Y-92139335D01*
X188083081Y-92019951D01*
X188083077Y-92019946D01*
X187960053Y-91896922D01*
X187960048Y-91896918D01*
X187819307Y-91794665D01*
X187819306Y-91794664D01*
X187819304Y-91794663D01*
X187664288Y-91715678D01*
X187621376Y-91701735D01*
X187498825Y-91661915D01*
X187326994Y-91634700D01*
X187326989Y-91634700D01*
X187153011Y-91634700D01*
X187153006Y-91634700D01*
X186981174Y-91661915D01*
X186815709Y-91715679D01*
X186660692Y-91794665D01*
X186519951Y-91896918D01*
X186519946Y-91896922D01*
X186396922Y-92019946D01*
X186396918Y-92019951D01*
X186294665Y-92160692D01*
X186215679Y-92315709D01*
X186161915Y-92481174D01*
X186134700Y-92653005D01*
X182937397Y-92653005D01*
X182970864Y-92595039D01*
X182978141Y-92567880D01*
X183005300Y-92466524D01*
X183005300Y-90113005D01*
X186134700Y-90113005D01*
X186134700Y-90286994D01*
X186161915Y-90458825D01*
X186201735Y-90581376D01*
X186215678Y-90624288D01*
X186289569Y-90769307D01*
X186294665Y-90779307D01*
X186396918Y-90920048D01*
X186396922Y-90920053D01*
X186519946Y-91043077D01*
X186519951Y-91043081D01*
X186642712Y-91132271D01*
X186660696Y-91145337D01*
X186815712Y-91224322D01*
X186941354Y-91265145D01*
X186981174Y-91278084D01*
X187153006Y-91305300D01*
X187153011Y-91305300D01*
X187326994Y-91305300D01*
X187498825Y-91278084D01*
X187664288Y-91224322D01*
X187819304Y-91145337D01*
X187960055Y-91043076D01*
X188083076Y-90920055D01*
X188185337Y-90779304D01*
X188264322Y-90624288D01*
X188318084Y-90458825D01*
X188319668Y-90448825D01*
X188345300Y-90286994D01*
X188345300Y-90113005D01*
X188318084Y-89941174D01*
X188305145Y-89901354D01*
X188264322Y-89775712D01*
X188185337Y-89620696D01*
X188172271Y-89602712D01*
X188083081Y-89479951D01*
X188083077Y-89479946D01*
X187960053Y-89356922D01*
X187960048Y-89356918D01*
X187819307Y-89254665D01*
X187819306Y-89254664D01*
X187819304Y-89254663D01*
X187664288Y-89175678D01*
X187621376Y-89161735D01*
X187498825Y-89121915D01*
X187326994Y-89094700D01*
X187326989Y-89094700D01*
X187153011Y-89094700D01*
X187153006Y-89094700D01*
X186981174Y-89121915D01*
X186815709Y-89175679D01*
X186660692Y-89254665D01*
X186519951Y-89356918D01*
X186519946Y-89356922D01*
X186396922Y-89479946D01*
X186396918Y-89479951D01*
X186294665Y-89620692D01*
X186215679Y-89775709D01*
X186161915Y-89941174D01*
X186134700Y-90113005D01*
X183005300Y-90113005D01*
X183005300Y-87573005D01*
X186134700Y-87573005D01*
X186134700Y-87746994D01*
X186161915Y-87918825D01*
X186201735Y-88041376D01*
X186215678Y-88084288D01*
X186289569Y-88229307D01*
X186294665Y-88239307D01*
X186396918Y-88380048D01*
X186396922Y-88380053D01*
X186519946Y-88503077D01*
X186519951Y-88503081D01*
X186642712Y-88592271D01*
X186660696Y-88605337D01*
X186815712Y-88684322D01*
X186941354Y-88725145D01*
X186981174Y-88738084D01*
X187153006Y-88765300D01*
X187153011Y-88765300D01*
X187326994Y-88765300D01*
X187498825Y-88738084D01*
X187664288Y-88684322D01*
X187819304Y-88605337D01*
X187960055Y-88503076D01*
X188083076Y-88380055D01*
X188185337Y-88239304D01*
X188264322Y-88084288D01*
X188318084Y-87918825D01*
X188319668Y-87908825D01*
X188345300Y-87746994D01*
X188345300Y-87573005D01*
X188318084Y-87401174D01*
X188305145Y-87361354D01*
X188264322Y-87235712D01*
X188185337Y-87080696D01*
X188172271Y-87062712D01*
X188083081Y-86939951D01*
X188083077Y-86939946D01*
X187960053Y-86816922D01*
X187960048Y-86816918D01*
X187819307Y-86714665D01*
X187819306Y-86714664D01*
X187819304Y-86714663D01*
X187664288Y-86635678D01*
X187621376Y-86621735D01*
X187498825Y-86581915D01*
X187326994Y-86554700D01*
X187326989Y-86554700D01*
X187153011Y-86554700D01*
X187153006Y-86554700D01*
X186981174Y-86581915D01*
X186815709Y-86635679D01*
X186660692Y-86714665D01*
X186519951Y-86816918D01*
X186519946Y-86816922D01*
X186396922Y-86939946D01*
X186396918Y-86939951D01*
X186294665Y-87080692D01*
X186215679Y-87235709D01*
X186161915Y-87401174D01*
X186134700Y-87573005D01*
X183005300Y-87573005D01*
X183005300Y-85033005D01*
X186134700Y-85033005D01*
X186134700Y-85206994D01*
X186161915Y-85378825D01*
X186201735Y-85501376D01*
X186215678Y-85544288D01*
X186289569Y-85689307D01*
X186294665Y-85699307D01*
X186396918Y-85840048D01*
X186396922Y-85840053D01*
X186519946Y-85963077D01*
X186519951Y-85963081D01*
X186642712Y-86052271D01*
X186660696Y-86065337D01*
X186815712Y-86144322D01*
X186941354Y-86185145D01*
X186981174Y-86198084D01*
X187153006Y-86225300D01*
X187153011Y-86225300D01*
X187326994Y-86225300D01*
X187498825Y-86198084D01*
X187664288Y-86144322D01*
X187819304Y-86065337D01*
X187960055Y-85963076D01*
X188083076Y-85840055D01*
X188185337Y-85699304D01*
X188264322Y-85544288D01*
X188318084Y-85378825D01*
X188319668Y-85368825D01*
X188345300Y-85206994D01*
X188345300Y-85033005D01*
X188318084Y-84861174D01*
X188292418Y-84782183D01*
X188264322Y-84695712D01*
X188185337Y-84540696D01*
X188172271Y-84522712D01*
X188083081Y-84399951D01*
X188083077Y-84399946D01*
X187960053Y-84276922D01*
X187960048Y-84276918D01*
X187819307Y-84174665D01*
X187819306Y-84174664D01*
X187819304Y-84174663D01*
X187664288Y-84095678D01*
X187621376Y-84081735D01*
X187498825Y-84041915D01*
X187326994Y-84014700D01*
X187326989Y-84014700D01*
X187153011Y-84014700D01*
X187153006Y-84014700D01*
X186981174Y-84041915D01*
X186815709Y-84095679D01*
X186660692Y-84174665D01*
X186519951Y-84276918D01*
X186519946Y-84276922D01*
X186396922Y-84399946D01*
X186396918Y-84399951D01*
X186294665Y-84540692D01*
X186215679Y-84695709D01*
X186161915Y-84861174D01*
X186134700Y-85033005D01*
X183005300Y-85033005D01*
X183005300Y-82493005D01*
X186134700Y-82493005D01*
X186134700Y-82666994D01*
X186161915Y-82838825D01*
X186177571Y-82887007D01*
X186215678Y-83004288D01*
X186289569Y-83149307D01*
X186294665Y-83159307D01*
X186396918Y-83300048D01*
X186396922Y-83300053D01*
X186519946Y-83423077D01*
X186519951Y-83423081D01*
X186555673Y-83449034D01*
X186660696Y-83525337D01*
X186815712Y-83604322D01*
X186941354Y-83645145D01*
X186981174Y-83658084D01*
X187153006Y-83685300D01*
X187153011Y-83685300D01*
X187326994Y-83685300D01*
X187498825Y-83658084D01*
X187664288Y-83604322D01*
X187819304Y-83525337D01*
X187960055Y-83423076D01*
X188083076Y-83300055D01*
X188185337Y-83159304D01*
X188264322Y-83004288D01*
X188318084Y-82838825D01*
X188330095Y-82762993D01*
X188345300Y-82666994D01*
X188345300Y-82493005D01*
X188318084Y-82321174D01*
X188299417Y-82263725D01*
X188264322Y-82155712D01*
X188185337Y-82000696D01*
X188172271Y-81982712D01*
X188083081Y-81859951D01*
X188083077Y-81859946D01*
X187960053Y-81736922D01*
X187960048Y-81736918D01*
X187819307Y-81634665D01*
X187819306Y-81634664D01*
X187819304Y-81634663D01*
X187664288Y-81555678D01*
X187621376Y-81541735D01*
X187498825Y-81501915D01*
X187326994Y-81474700D01*
X187326989Y-81474700D01*
X187153011Y-81474700D01*
X187153006Y-81474700D01*
X186981174Y-81501915D01*
X186815709Y-81555679D01*
X186660692Y-81634665D01*
X186519951Y-81736918D01*
X186519946Y-81736922D01*
X186396922Y-81859946D01*
X186396918Y-81859951D01*
X186294665Y-82000692D01*
X186215679Y-82155709D01*
X186161915Y-82321174D01*
X186134700Y-82493005D01*
X183005300Y-82493005D01*
X183005300Y-79953005D01*
X186134700Y-79953005D01*
X186134700Y-80126994D01*
X186161915Y-80298825D01*
X186201735Y-80421376D01*
X186215678Y-80464288D01*
X186289569Y-80609307D01*
X186294665Y-80619307D01*
X186396918Y-80760048D01*
X186396922Y-80760053D01*
X186519946Y-80883077D01*
X186519951Y-80883081D01*
X186642712Y-80972271D01*
X186660696Y-80985337D01*
X186815712Y-81064322D01*
X186941354Y-81105145D01*
X186981174Y-81118084D01*
X187153006Y-81145300D01*
X187153011Y-81145300D01*
X187326994Y-81145300D01*
X187498825Y-81118084D01*
X187664288Y-81064322D01*
X187819304Y-80985337D01*
X187960055Y-80883076D01*
X188083076Y-80760055D01*
X188185337Y-80619304D01*
X188264322Y-80464288D01*
X188318084Y-80298825D01*
X188319668Y-80288825D01*
X188345300Y-80126994D01*
X188345300Y-79953005D01*
X188318084Y-79781174D01*
X188305145Y-79741354D01*
X188264322Y-79615712D01*
X188185337Y-79460696D01*
X188172271Y-79442712D01*
X188083081Y-79319951D01*
X188083077Y-79319946D01*
X187960053Y-79196922D01*
X187960048Y-79196918D01*
X187819307Y-79094665D01*
X187819306Y-79094664D01*
X187819304Y-79094663D01*
X187664288Y-79015678D01*
X187621376Y-79001735D01*
X187498825Y-78961915D01*
X187326994Y-78934700D01*
X187326989Y-78934700D01*
X187153011Y-78934700D01*
X187153006Y-78934700D01*
X186981174Y-78961915D01*
X186815709Y-79015679D01*
X186660692Y-79094665D01*
X186519951Y-79196918D01*
X186519946Y-79196922D01*
X186396922Y-79319946D01*
X186396918Y-79319951D01*
X186294665Y-79460692D01*
X186215679Y-79615709D01*
X186161915Y-79781174D01*
X186134700Y-79953005D01*
X183005300Y-79953005D01*
X183005300Y-77413005D01*
X186134700Y-77413005D01*
X186134700Y-77586994D01*
X186161915Y-77758825D01*
X186201735Y-77881376D01*
X186215678Y-77924288D01*
X186289569Y-78069307D01*
X186294665Y-78079307D01*
X186396918Y-78220048D01*
X186396922Y-78220053D01*
X186519946Y-78343077D01*
X186519951Y-78343081D01*
X186642712Y-78432271D01*
X186660696Y-78445337D01*
X186815712Y-78524322D01*
X186941354Y-78565145D01*
X186981174Y-78578084D01*
X187153006Y-78605300D01*
X187153011Y-78605300D01*
X187326994Y-78605300D01*
X187498825Y-78578084D01*
X187664288Y-78524322D01*
X187819304Y-78445337D01*
X187960055Y-78343076D01*
X188083076Y-78220055D01*
X188185337Y-78079304D01*
X188264322Y-77924288D01*
X188318084Y-77758825D01*
X188319668Y-77748825D01*
X188345300Y-77586994D01*
X188345300Y-77413005D01*
X188318084Y-77241174D01*
X188305145Y-77201354D01*
X188264322Y-77075712D01*
X188185337Y-76920696D01*
X188172271Y-76902712D01*
X188083081Y-76779951D01*
X188083077Y-76779946D01*
X187960053Y-76656922D01*
X187960048Y-76656918D01*
X187819307Y-76554665D01*
X187819306Y-76554664D01*
X187819304Y-76554663D01*
X187664288Y-76475678D01*
X187621376Y-76461735D01*
X187498825Y-76421915D01*
X187326994Y-76394700D01*
X187326989Y-76394700D01*
X187153011Y-76394700D01*
X187153006Y-76394700D01*
X186981174Y-76421915D01*
X186815709Y-76475679D01*
X186660692Y-76554665D01*
X186519951Y-76656918D01*
X186519946Y-76656922D01*
X186396922Y-76779946D01*
X186396918Y-76779951D01*
X186294665Y-76920692D01*
X186215679Y-77075709D01*
X186161915Y-77241174D01*
X186134700Y-77413005D01*
X183005300Y-77413005D01*
X183005300Y-72325922D01*
X186044700Y-72325922D01*
X186044700Y-72514077D01*
X186074131Y-72699900D01*
X186132273Y-72878840D01*
X186191014Y-72994124D01*
X186212594Y-73036477D01*
X186217690Y-73046477D01*
X186328270Y-73198679D01*
X186328274Y-73198684D01*
X186461315Y-73331725D01*
X186461320Y-73331729D01*
X186594078Y-73428182D01*
X186613526Y-73442312D01*
X186720342Y-73496738D01*
X186781159Y-73527726D01*
X186781161Y-73527726D01*
X186781164Y-73527728D01*
X186960100Y-73585868D01*
X187123344Y-73611723D01*
X187131956Y-73613087D01*
X187195090Y-73643016D01*
X187232022Y-73702327D01*
X187231024Y-73772190D01*
X187192415Y-73830423D01*
X187131957Y-73858033D01*
X186981173Y-73881916D01*
X186815709Y-73935679D01*
X186660692Y-74014665D01*
X186519951Y-74116918D01*
X186519946Y-74116922D01*
X186396922Y-74239946D01*
X186396918Y-74239951D01*
X186294665Y-74380692D01*
X186215679Y-74535709D01*
X186161915Y-74701174D01*
X186134700Y-74873005D01*
X186134700Y-75046994D01*
X186161915Y-75218825D01*
X186201735Y-75341376D01*
X186215678Y-75384288D01*
X186289569Y-75529307D01*
X186294665Y-75539307D01*
X186396918Y-75680048D01*
X186396922Y-75680053D01*
X186519946Y-75803077D01*
X186519951Y-75803081D01*
X186642712Y-75892271D01*
X186660696Y-75905337D01*
X186815712Y-75984322D01*
X186941354Y-76025145D01*
X186981174Y-76038084D01*
X187153006Y-76065300D01*
X187153011Y-76065300D01*
X187326994Y-76065300D01*
X187498825Y-76038084D01*
X187664288Y-75984322D01*
X187819304Y-75905337D01*
X187960055Y-75803076D01*
X188083076Y-75680055D01*
X188185337Y-75539304D01*
X188264322Y-75384288D01*
X188318084Y-75218825D01*
X188319668Y-75208825D01*
X188345300Y-75046994D01*
X188345300Y-74873005D01*
X188318084Y-74701174D01*
X188305145Y-74661354D01*
X188264322Y-74535712D01*
X188185337Y-74380696D01*
X188172271Y-74362712D01*
X188083081Y-74239951D01*
X188083077Y-74239946D01*
X187960053Y-74116922D01*
X187960048Y-74116918D01*
X187819307Y-74014665D01*
X187819306Y-74014664D01*
X187819304Y-74014663D01*
X187664288Y-73935678D01*
X187535293Y-73893765D01*
X187498826Y-73881916D01*
X187348042Y-73858033D01*
X187284908Y-73828103D01*
X187247977Y-73768791D01*
X187248975Y-73698929D01*
X187287586Y-73640696D01*
X187348044Y-73613087D01*
X187356656Y-73611723D01*
X187519900Y-73585868D01*
X187698836Y-73527728D01*
X187866474Y-73442312D01*
X188018686Y-73331724D01*
X188151724Y-73198686D01*
X188262312Y-73046474D01*
X188347728Y-72878836D01*
X188405868Y-72699900D01*
X188407452Y-72689900D01*
X188435300Y-72514077D01*
X188435300Y-72325922D01*
X188405868Y-72140099D01*
X188347726Y-71961159D01*
X188316738Y-71900342D01*
X188262312Y-71793526D01*
X188248182Y-71774078D01*
X188151729Y-71641320D01*
X188151725Y-71641315D01*
X188018684Y-71508274D01*
X188018679Y-71508270D01*
X187866477Y-71397690D01*
X187866476Y-71397689D01*
X187866474Y-71397688D01*
X187814124Y-71371014D01*
X187698840Y-71312273D01*
X187519900Y-71254131D01*
X187334077Y-71224700D01*
X187334072Y-71224700D01*
X187145928Y-71224700D01*
X187145923Y-71224700D01*
X186960099Y-71254131D01*
X186781159Y-71312273D01*
X186613522Y-71397690D01*
X186461320Y-71508270D01*
X186461315Y-71508274D01*
X186328274Y-71641315D01*
X186328270Y-71641320D01*
X186217690Y-71793522D01*
X186132273Y-71961159D01*
X186074131Y-72140099D01*
X186044700Y-72325922D01*
X183005300Y-72325922D01*
X183005300Y-68507645D01*
X183024985Y-68440606D01*
X183060408Y-68404543D01*
X183124905Y-68361449D01*
X183261449Y-68224905D01*
X183368730Y-68064346D01*
X183442627Y-67885943D01*
X183468794Y-67754394D01*
X183480300Y-67696553D01*
X183480300Y-67503446D01*
X183442628Y-67314062D01*
X183442627Y-67314061D01*
X183442627Y-67314057D01*
X183385439Y-67175992D01*
X183368729Y-67135651D01*
X183261450Y-66975096D01*
X183261444Y-66975089D01*
X183124910Y-66838555D01*
X183124903Y-66838549D01*
X182964347Y-66731270D01*
X182964348Y-66731270D01*
X182785943Y-66657373D01*
X182785937Y-66657371D01*
X182596553Y-66619700D01*
X182596551Y-66619700D01*
X182403449Y-66619700D01*
X182403447Y-66619700D01*
X182214062Y-66657371D01*
X182214056Y-66657373D01*
X182035651Y-66731270D01*
X181875096Y-66838549D01*
X181875089Y-66838555D01*
X181738555Y-66975089D01*
X181738549Y-66975096D01*
X181631270Y-67135652D01*
X181614561Y-67175992D01*
X181570720Y-67230396D01*
X181504425Y-67252460D01*
X181436726Y-67235180D01*
X181389116Y-67184043D01*
X181385439Y-67175992D01*
X181368729Y-67135652D01*
X181261450Y-66975096D01*
X181261444Y-66975089D01*
X181124910Y-66838555D01*
X181124903Y-66838549D01*
X180964347Y-66731270D01*
X180964348Y-66731270D01*
X180785943Y-66657373D01*
X180785937Y-66657371D01*
X180596553Y-66619700D01*
X180596551Y-66619700D01*
X180403449Y-66619700D01*
X180403447Y-66619700D01*
X180214062Y-66657371D01*
X180214056Y-66657373D01*
X180035651Y-66731270D01*
X179875096Y-66838549D01*
X179875089Y-66838555D01*
X179738555Y-66975089D01*
X179738549Y-66975096D01*
X179631270Y-67135652D01*
X179584633Y-67248244D01*
X179540792Y-67302647D01*
X179474497Y-67324712D01*
X179406798Y-67307433D01*
X179359188Y-67256295D01*
X179355511Y-67248243D01*
X179319727Y-67161852D01*
X179319726Y-67161850D01*
X179238827Y-67040776D01*
X178858560Y-67421043D01*
X178820080Y-67354394D01*
X178745606Y-67279920D01*
X178678955Y-67241439D01*
X179059222Y-66861171D01*
X178938149Y-66780273D01*
X178938147Y-66780272D01*
X178769817Y-66710548D01*
X178769805Y-66710545D01*
X178591109Y-66675000D01*
X178408890Y-66675000D01*
X178230194Y-66710545D01*
X178230182Y-66710548D01*
X178061854Y-66780271D01*
X178061841Y-66780278D01*
X177940777Y-66861171D01*
X177940777Y-66861172D01*
X178321044Y-67241439D01*
X178254394Y-67279920D01*
X178179920Y-67354394D01*
X178141439Y-67421044D01*
X177761172Y-67040777D01*
X177761171Y-67040777D01*
X177680278Y-67161841D01*
X177680271Y-67161854D01*
X177663561Y-67202198D01*
X177656489Y-67210972D01*
X177653315Y-67221785D01*
X177634960Y-67237688D01*
X177619720Y-67256602D01*
X177609026Y-67260161D01*
X177600511Y-67267540D01*
X177576471Y-67270996D01*
X177553426Y-67278667D01*
X177542507Y-67275880D01*
X177531353Y-67277484D01*
X177509259Y-67267394D01*
X177485727Y-67261388D01*
X177478048Y-67253140D01*
X177467797Y-67248459D01*
X177454666Y-67228026D01*
X177438116Y-67210251D01*
X177435134Y-67197635D01*
X177430023Y-67189681D01*
X177425000Y-67154746D01*
X177425000Y-66900373D01*
X177424999Y-66900371D01*
X177410496Y-66827459D01*
X177410494Y-66827455D01*
X177355239Y-66744760D01*
X177272544Y-66689505D01*
X177272540Y-66689503D01*
X177199627Y-66675000D01*
X176627000Y-66675000D01*
X176627000Y-67219918D01*
X176552661Y-67200000D01*
X176447339Y-67200000D01*
X176373000Y-67219918D01*
X176373000Y-66675000D01*
X175800373Y-66675000D01*
X175727459Y-66689503D01*
X175727455Y-66689505D01*
X175644760Y-66744760D01*
X175589505Y-66827455D01*
X175589503Y-66827459D01*
X175575000Y-66900371D01*
X175575000Y-67473000D01*
X176119919Y-67473000D01*
X176100000Y-67547339D01*
X176100000Y-67652661D01*
X176119919Y-67727000D01*
X175575000Y-67727000D01*
X175575000Y-68299628D01*
X175589503Y-68372540D01*
X175589505Y-68372544D01*
X175644760Y-68455239D01*
X175727455Y-68510494D01*
X175727459Y-68510496D01*
X175800371Y-68524999D01*
X175800374Y-68525000D01*
X176373000Y-68525000D01*
X176373000Y-67980081D01*
X176447339Y-68000000D01*
X176552661Y-68000000D01*
X176627000Y-67980081D01*
X176627000Y-68525000D01*
X177199626Y-68525000D01*
X177199628Y-68524999D01*
X177272540Y-68510496D01*
X177272544Y-68510494D01*
X177355239Y-68455239D01*
X177410494Y-68372544D01*
X177410496Y-68372540D01*
X177424999Y-68299628D01*
X177425000Y-68299626D01*
X177425000Y-68045253D01*
X177444685Y-67978214D01*
X177497489Y-67932459D01*
X177566647Y-67922515D01*
X177630203Y-67951540D01*
X177663562Y-67997801D01*
X177680275Y-68038152D01*
X177761171Y-68159222D01*
X178141439Y-67778954D01*
X178179920Y-67845606D01*
X178254394Y-67920080D01*
X178321044Y-67958560D01*
X177940776Y-68338827D01*
X178061850Y-68419726D01*
X178061852Y-68419727D01*
X178230182Y-68489451D01*
X178230194Y-68489454D01*
X178408890Y-68524999D01*
X178408894Y-68525000D01*
X178591106Y-68525000D01*
X178591109Y-68524999D01*
X178769805Y-68489454D01*
X178769817Y-68489451D01*
X178938145Y-68419728D01*
X179059221Y-68338826D01*
X178678955Y-67958560D01*
X178745606Y-67920080D01*
X178820080Y-67845606D01*
X178858560Y-67778955D01*
X179238826Y-68159221D01*
X179319725Y-68038149D01*
X179355510Y-67951756D01*
X179399351Y-67897352D01*
X179465645Y-67875287D01*
X179533344Y-67892566D01*
X179580955Y-67943702D01*
X179584633Y-67951755D01*
X179631270Y-68064347D01*
X179738549Y-68224903D01*
X179738555Y-68224910D01*
X179875090Y-68361445D01*
X179875093Y-68361447D01*
X179875095Y-68361449D01*
X179939590Y-68404542D01*
X179984396Y-68458154D01*
X179994700Y-68507645D01*
X179994700Y-76359335D01*
X179975015Y-76426374D01*
X179958381Y-76447016D01*
X173020232Y-83385164D01*
X172958909Y-83418649D01*
X172889217Y-83413665D01*
X172833284Y-83371793D01*
X172808867Y-83306329D01*
X172823719Y-83238056D01*
X172829449Y-83228592D01*
X172930494Y-83077368D01*
X172930499Y-83077358D01*
X173009649Y-82886274D01*
X173009651Y-82886266D01*
X173045309Y-82707000D01*
X172483608Y-82707000D01*
X172500000Y-82645826D01*
X172500000Y-82514174D01*
X172483608Y-82453000D01*
X173045309Y-82453000D01*
X173045309Y-82452999D01*
X173009651Y-82273733D01*
X173009649Y-82273725D01*
X172930499Y-82082641D01*
X172930494Y-82082631D01*
X172815589Y-81910664D01*
X172815586Y-81910660D01*
X172669339Y-81764413D01*
X172669335Y-81764410D01*
X172497368Y-81649505D01*
X172497358Y-81649500D01*
X172306274Y-81570350D01*
X172306266Y-81570348D01*
X172127000Y-81534690D01*
X172127000Y-82096391D01*
X172065826Y-82080000D01*
X171934174Y-82080000D01*
X171873000Y-82096391D01*
X171873000Y-81534691D01*
X171872999Y-81534690D01*
X171693733Y-81570348D01*
X171693725Y-81570350D01*
X171502641Y-81649500D01*
X171502631Y-81649505D01*
X171330664Y-81764410D01*
X171330660Y-81764413D01*
X171184413Y-81910660D01*
X171184410Y-81910664D01*
X171069505Y-82082631D01*
X171069500Y-82082641D01*
X170990350Y-82273725D01*
X170990348Y-82273733D01*
X170954690Y-82452999D01*
X170954691Y-82453000D01*
X171516392Y-82453000D01*
X171500000Y-82514174D01*
X171500000Y-82645826D01*
X171516392Y-82707000D01*
X170954690Y-82707000D01*
X170990348Y-82886266D01*
X170990350Y-82886274D01*
X171069500Y-83077358D01*
X171069505Y-83077368D01*
X171184410Y-83249335D01*
X171184413Y-83249339D01*
X171330660Y-83395586D01*
X171330664Y-83395589D01*
X171502631Y-83510494D01*
X171502641Y-83510499D01*
X171693723Y-83589648D01*
X171693725Y-83589649D01*
X171873000Y-83625307D01*
X171873000Y-83063608D01*
X171934174Y-83080000D01*
X172065826Y-83080000D01*
X172127000Y-83063608D01*
X172127000Y-83625307D01*
X172306274Y-83589649D01*
X172306276Y-83589648D01*
X172497358Y-83510499D01*
X172497368Y-83510494D01*
X172648592Y-83409449D01*
X172715269Y-83388571D01*
X172782649Y-83407055D01*
X172829340Y-83459034D01*
X172840516Y-83528004D01*
X172812631Y-83592068D01*
X172805164Y-83600232D01*
X172391546Y-84013850D01*
X172330223Y-84047335D01*
X172265545Y-84044099D01*
X172258827Y-84041916D01*
X172086994Y-84014700D01*
X172086989Y-84014700D01*
X171913011Y-84014700D01*
X171913006Y-84014700D01*
X171741174Y-84041915D01*
X171575709Y-84095679D01*
X171420692Y-84174665D01*
X171279951Y-84276918D01*
X171279946Y-84276922D01*
X171156922Y-84399946D01*
X171156918Y-84399951D01*
X171054665Y-84540692D01*
X170975679Y-84695709D01*
X170921915Y-84861174D01*
X170894700Y-85033005D01*
X168235300Y-85033005D01*
X168235300Y-85023005D01*
X168208084Y-84851174D01*
X168182418Y-84772183D01*
X168154322Y-84685712D01*
X168075337Y-84530696D01*
X167980346Y-84399951D01*
X167973081Y-84389951D01*
X167973077Y-84389946D01*
X167850053Y-84266922D01*
X167850048Y-84266918D01*
X167709307Y-84164665D01*
X167709306Y-84164664D01*
X167709304Y-84164663D01*
X167554288Y-84085678D01*
X167498591Y-84067581D01*
X167388825Y-84031915D01*
X167216994Y-84004700D01*
X167216989Y-84004700D01*
X167043011Y-84004700D01*
X167043006Y-84004700D01*
X166871174Y-84031915D01*
X166705709Y-84085679D01*
X166550692Y-84164665D01*
X166409951Y-84266918D01*
X166409946Y-84266922D01*
X166286922Y-84389946D01*
X166286918Y-84389951D01*
X166184665Y-84530692D01*
X166105679Y-84685709D01*
X166051915Y-84851174D01*
X166024700Y-85023005D01*
X163005300Y-85023005D01*
X163005300Y-82483005D01*
X166024700Y-82483005D01*
X166024700Y-82656994D01*
X166051915Y-82828825D01*
X166070582Y-82886274D01*
X166105678Y-82994288D01*
X166148004Y-83077358D01*
X166184665Y-83149307D01*
X166286918Y-83290048D01*
X166286922Y-83290053D01*
X166409946Y-83413077D01*
X166409951Y-83413081D01*
X166459437Y-83449034D01*
X166550696Y-83515337D01*
X166705712Y-83594322D01*
X166831354Y-83635145D01*
X166871174Y-83648084D01*
X167043006Y-83675300D01*
X167043011Y-83675300D01*
X167216994Y-83675300D01*
X167388825Y-83648084D01*
X167554288Y-83594322D01*
X167709304Y-83515337D01*
X167850055Y-83413076D01*
X167973076Y-83290055D01*
X168075337Y-83149304D01*
X168154322Y-82994288D01*
X168208084Y-82828825D01*
X168235300Y-82656989D01*
X168235300Y-82483011D01*
X168235300Y-82483005D01*
X168208084Y-82311174D01*
X168192429Y-82262993D01*
X168154322Y-82145712D01*
X168075337Y-81990696D01*
X168017188Y-81910660D01*
X167973081Y-81849951D01*
X167973077Y-81849946D01*
X167850053Y-81726922D01*
X167850048Y-81726918D01*
X167709307Y-81624665D01*
X167709306Y-81624664D01*
X167709304Y-81624663D01*
X167554288Y-81545678D01*
X167511376Y-81531735D01*
X167388825Y-81491915D01*
X167216994Y-81464700D01*
X167216989Y-81464700D01*
X167043011Y-81464700D01*
X167043006Y-81464700D01*
X166871174Y-81491915D01*
X166705709Y-81545679D01*
X166550692Y-81624665D01*
X166409951Y-81726918D01*
X166409946Y-81726922D01*
X166286922Y-81849946D01*
X166286918Y-81849951D01*
X166184665Y-81990692D01*
X166105679Y-82145709D01*
X166051915Y-82311174D01*
X166024700Y-82483005D01*
X163005300Y-82483005D01*
X163005300Y-79943005D01*
X166024700Y-79943005D01*
X166024700Y-80116994D01*
X166051915Y-80288825D01*
X166105679Y-80454290D01*
X166184665Y-80609307D01*
X166286918Y-80750048D01*
X166286922Y-80750053D01*
X166409946Y-80873077D01*
X166409951Y-80873081D01*
X166532712Y-80962271D01*
X166550696Y-80975337D01*
X166705712Y-81054322D01*
X166831354Y-81095145D01*
X166871174Y-81108084D01*
X167043006Y-81135300D01*
X167043011Y-81135300D01*
X167216994Y-81135300D01*
X167388825Y-81108084D01*
X167554288Y-81054322D01*
X167709304Y-80975337D01*
X167850055Y-80873076D01*
X167973076Y-80750055D01*
X168075337Y-80609304D01*
X168154322Y-80454288D01*
X168208084Y-80288825D01*
X168235300Y-80116994D01*
X168235300Y-79953005D01*
X170894700Y-79953005D01*
X170894700Y-80126994D01*
X170921915Y-80298825D01*
X170961735Y-80421376D01*
X170975678Y-80464288D01*
X171049569Y-80609307D01*
X171054665Y-80619307D01*
X171156918Y-80760048D01*
X171156922Y-80760053D01*
X171279946Y-80883077D01*
X171279951Y-80883081D01*
X171402712Y-80972271D01*
X171420696Y-80985337D01*
X171575712Y-81064322D01*
X171701354Y-81105145D01*
X171741174Y-81118084D01*
X171913006Y-81145300D01*
X171913011Y-81145300D01*
X172086994Y-81145300D01*
X172258825Y-81118084D01*
X172424288Y-81064322D01*
X172579304Y-80985337D01*
X172720055Y-80883076D01*
X172843076Y-80760055D01*
X172945337Y-80619304D01*
X173024322Y-80464288D01*
X173078084Y-80298825D01*
X173079668Y-80288825D01*
X173105300Y-80126994D01*
X173105300Y-79953005D01*
X173078084Y-79781174D01*
X173065145Y-79741354D01*
X173024322Y-79615712D01*
X172945337Y-79460696D01*
X172932271Y-79442712D01*
X172843081Y-79319951D01*
X172843077Y-79319946D01*
X172720053Y-79196922D01*
X172720048Y-79196918D01*
X172579307Y-79094665D01*
X172579306Y-79094664D01*
X172579304Y-79094663D01*
X172424288Y-79015678D01*
X172381376Y-79001735D01*
X172258825Y-78961915D01*
X172086994Y-78934700D01*
X172086989Y-78934700D01*
X171913011Y-78934700D01*
X171913006Y-78934700D01*
X171741174Y-78961915D01*
X171575709Y-79015679D01*
X171420692Y-79094665D01*
X171279951Y-79196918D01*
X171279946Y-79196922D01*
X171156922Y-79319946D01*
X171156918Y-79319951D01*
X171054665Y-79460692D01*
X170975679Y-79615709D01*
X170921915Y-79781174D01*
X170894700Y-79953005D01*
X168235300Y-79953005D01*
X168235300Y-79943005D01*
X168208084Y-79771174D01*
X168195145Y-79731354D01*
X168154322Y-79605712D01*
X168075337Y-79450696D01*
X167980346Y-79319951D01*
X167973081Y-79309951D01*
X167973077Y-79309946D01*
X167850053Y-79186922D01*
X167850048Y-79186918D01*
X167709307Y-79084665D01*
X167709306Y-79084664D01*
X167709304Y-79084663D01*
X167554288Y-79005678D01*
X167511376Y-78991735D01*
X167388825Y-78951915D01*
X167216994Y-78924700D01*
X167216989Y-78924700D01*
X167043011Y-78924700D01*
X167043006Y-78924700D01*
X166871174Y-78951915D01*
X166705709Y-79005679D01*
X166550692Y-79084665D01*
X166409951Y-79186918D01*
X166409946Y-79186922D01*
X166286922Y-79309946D01*
X166286918Y-79309951D01*
X166184665Y-79450692D01*
X166105679Y-79605709D01*
X166051915Y-79771174D01*
X166024700Y-79943005D01*
X163005300Y-79943005D01*
X163005300Y-77403005D01*
X166024700Y-77403005D01*
X166024700Y-77576994D01*
X166051915Y-77748825D01*
X166105679Y-77914290D01*
X166184665Y-78069307D01*
X166286918Y-78210048D01*
X166286922Y-78210053D01*
X166409946Y-78333077D01*
X166409951Y-78333081D01*
X166532712Y-78422271D01*
X166550696Y-78435337D01*
X166705712Y-78514322D01*
X166831354Y-78555145D01*
X166871174Y-78568084D01*
X167043006Y-78595300D01*
X167043011Y-78595300D01*
X167216994Y-78595300D01*
X167388825Y-78568084D01*
X167554288Y-78514322D01*
X167709304Y-78435337D01*
X167850055Y-78333076D01*
X167973076Y-78210055D01*
X168075337Y-78069304D01*
X168154322Y-77914288D01*
X168208084Y-77748825D01*
X168235300Y-77576994D01*
X168235300Y-77413005D01*
X170894700Y-77413005D01*
X170894700Y-77586994D01*
X170921915Y-77758825D01*
X170961735Y-77881376D01*
X170975678Y-77924288D01*
X171049569Y-78069307D01*
X171054665Y-78079307D01*
X171156918Y-78220048D01*
X171156922Y-78220053D01*
X171279946Y-78343077D01*
X171279951Y-78343081D01*
X171402712Y-78432271D01*
X171420696Y-78445337D01*
X171575712Y-78524322D01*
X171701354Y-78565145D01*
X171741174Y-78578084D01*
X171913006Y-78605300D01*
X171913011Y-78605300D01*
X172086994Y-78605300D01*
X172258825Y-78578084D01*
X172424288Y-78524322D01*
X172579304Y-78445337D01*
X172720055Y-78343076D01*
X172843076Y-78220055D01*
X172945337Y-78079304D01*
X173024322Y-77924288D01*
X173078084Y-77758825D01*
X173079668Y-77748825D01*
X173105300Y-77586994D01*
X173105300Y-77413005D01*
X173078084Y-77241174D01*
X173065145Y-77201354D01*
X173024322Y-77075712D01*
X172945337Y-76920696D01*
X172932271Y-76902712D01*
X172843081Y-76779951D01*
X172843077Y-76779946D01*
X172720053Y-76656922D01*
X172720048Y-76656918D01*
X172579307Y-76554665D01*
X172579306Y-76554664D01*
X172579304Y-76554663D01*
X172424288Y-76475678D01*
X172381376Y-76461735D01*
X172258825Y-76421915D01*
X172086994Y-76394700D01*
X172086989Y-76394700D01*
X171913011Y-76394700D01*
X171913006Y-76394700D01*
X171741174Y-76421915D01*
X171575709Y-76475679D01*
X171420692Y-76554665D01*
X171279951Y-76656918D01*
X171279946Y-76656922D01*
X171156922Y-76779946D01*
X171156918Y-76779951D01*
X171054665Y-76920692D01*
X170975679Y-77075709D01*
X170921915Y-77241174D01*
X170894700Y-77413005D01*
X168235300Y-77413005D01*
X168235300Y-77403005D01*
X168208084Y-77231174D01*
X168195145Y-77191354D01*
X168154322Y-77065712D01*
X168075337Y-76910696D01*
X168002368Y-76810262D01*
X167973081Y-76769951D01*
X167973075Y-76769944D01*
X167850051Y-76646920D01*
X167850048Y-76646918D01*
X167709307Y-76544665D01*
X167709306Y-76544664D01*
X167709304Y-76544663D01*
X167554288Y-76465678D01*
X167496852Y-76447016D01*
X167388825Y-76411915D01*
X167216994Y-76384700D01*
X167216989Y-76384700D01*
X167043011Y-76384700D01*
X167043006Y-76384700D01*
X166871174Y-76411915D01*
X166705709Y-76465679D01*
X166550692Y-76544665D01*
X166409951Y-76646918D01*
X166286918Y-76769951D01*
X166184665Y-76910692D01*
X166105679Y-77065709D01*
X166051915Y-77231174D01*
X166024700Y-77403005D01*
X163005300Y-77403005D01*
X163005300Y-72315922D01*
X165934700Y-72315922D01*
X165934700Y-72504077D01*
X165964131Y-72689900D01*
X166022273Y-72868840D01*
X166107690Y-73036477D01*
X166218270Y-73188679D01*
X166218274Y-73188684D01*
X166351315Y-73321725D01*
X166351320Y-73321729D01*
X166484078Y-73418182D01*
X166503526Y-73432312D01*
X166610342Y-73486738D01*
X166671159Y-73517726D01*
X166671161Y-73517726D01*
X166671164Y-73517728D01*
X166850100Y-73575868D01*
X167013344Y-73601723D01*
X167021956Y-73603087D01*
X167085090Y-73633016D01*
X167122022Y-73692327D01*
X167121024Y-73762190D01*
X167082415Y-73820423D01*
X167021957Y-73848033D01*
X166871173Y-73871916D01*
X166705709Y-73925679D01*
X166550692Y-74004665D01*
X166409951Y-74106918D01*
X166409946Y-74106922D01*
X166286922Y-74229946D01*
X166286918Y-74229951D01*
X166184665Y-74370692D01*
X166105679Y-74525709D01*
X166051915Y-74691174D01*
X166024700Y-74863005D01*
X166024700Y-75036994D01*
X166051915Y-75208825D01*
X166105679Y-75374290D01*
X166184665Y-75529307D01*
X166286918Y-75670048D01*
X166286922Y-75670053D01*
X166409946Y-75793077D01*
X166409951Y-75793081D01*
X166532712Y-75882271D01*
X166550696Y-75895337D01*
X166705712Y-75974322D01*
X166831354Y-76015145D01*
X166871174Y-76028084D01*
X167043006Y-76055300D01*
X167043011Y-76055300D01*
X167216994Y-76055300D01*
X167388825Y-76028084D01*
X167554288Y-75974322D01*
X167709304Y-75895337D01*
X167850055Y-75793076D01*
X167973076Y-75670055D01*
X168075337Y-75529304D01*
X168154322Y-75374288D01*
X168208084Y-75208825D01*
X168235300Y-75036994D01*
X168235300Y-74863005D01*
X168208084Y-74691174D01*
X168195145Y-74651354D01*
X168154322Y-74525712D01*
X168075337Y-74370696D01*
X167980346Y-74239951D01*
X167973081Y-74229951D01*
X167973077Y-74229946D01*
X167850053Y-74106922D01*
X167850048Y-74106918D01*
X167709307Y-74004665D01*
X167709306Y-74004664D01*
X167709304Y-74004663D01*
X167554288Y-73925678D01*
X167456070Y-73893765D01*
X167388826Y-73871916D01*
X167238042Y-73848033D01*
X167174908Y-73818103D01*
X167137977Y-73758791D01*
X167138975Y-73688929D01*
X167177586Y-73630696D01*
X167238044Y-73603087D01*
X167246656Y-73601723D01*
X167409900Y-73575868D01*
X167588836Y-73517728D01*
X167756474Y-73432312D01*
X167908686Y-73321724D01*
X168041724Y-73188686D01*
X168152312Y-73036474D01*
X168237728Y-72868836D01*
X168295868Y-72689900D01*
X168325300Y-72504077D01*
X168325300Y-72325922D01*
X170804700Y-72325922D01*
X170804700Y-72514077D01*
X170834131Y-72699900D01*
X170892273Y-72878840D01*
X170951014Y-72994124D01*
X170972594Y-73036477D01*
X170977690Y-73046477D01*
X171088270Y-73198679D01*
X171088274Y-73198684D01*
X171221315Y-73331725D01*
X171221320Y-73331729D01*
X171354078Y-73428182D01*
X171373526Y-73442312D01*
X171480342Y-73496738D01*
X171541159Y-73527726D01*
X171541161Y-73527726D01*
X171541164Y-73527728D01*
X171720100Y-73585868D01*
X171831246Y-73603471D01*
X171861269Y-73608227D01*
X171924404Y-73638156D01*
X171961335Y-73697468D01*
X171960337Y-73767330D01*
X171921727Y-73825563D01*
X171857764Y-73853677D01*
X171841871Y-73854700D01*
X171154428Y-73854700D01*
X171154405Y-73854702D01*
X171128893Y-73857661D01*
X171128890Y-73857662D01*
X171024475Y-73903765D01*
X170943766Y-73984474D01*
X170897662Y-74088888D01*
X170897662Y-74088890D01*
X170894700Y-74114419D01*
X170894700Y-75805571D01*
X170894702Y-75805594D01*
X170897661Y-75831106D01*
X170897662Y-75831109D01*
X170943765Y-75935524D01*
X170943766Y-75935525D01*
X171024475Y-76016234D01*
X171128891Y-76062338D01*
X171154421Y-76065300D01*
X172845578Y-76065299D01*
X172871109Y-76062338D01*
X172975525Y-76016234D01*
X173056234Y-75935525D01*
X173102338Y-75831109D01*
X173105300Y-75805579D01*
X173105299Y-74114422D01*
X173102338Y-74088891D01*
X173056234Y-73984475D01*
X172975525Y-73903766D01*
X172952875Y-73893765D01*
X172871110Y-73857662D01*
X172845580Y-73854700D01*
X172158129Y-73854700D01*
X172091090Y-73835015D01*
X172045335Y-73782211D01*
X172035391Y-73713053D01*
X172064416Y-73649497D01*
X172123194Y-73611723D01*
X172138731Y-73608227D01*
X172164878Y-73604085D01*
X172279900Y-73585868D01*
X172458836Y-73527728D01*
X172626474Y-73442312D01*
X172778686Y-73331724D01*
X172911724Y-73198686D01*
X173022312Y-73046474D01*
X173107728Y-72878836D01*
X173165868Y-72699900D01*
X173167452Y-72689900D01*
X173195300Y-72514077D01*
X173195300Y-72325922D01*
X173165868Y-72140099D01*
X173107726Y-71961159D01*
X173076738Y-71900342D01*
X173022312Y-71793526D01*
X173008182Y-71774078D01*
X172911729Y-71641320D01*
X172911725Y-71641315D01*
X172778684Y-71508274D01*
X172778679Y-71508270D01*
X172626477Y-71397690D01*
X172626476Y-71397689D01*
X172626474Y-71397688D01*
X172574124Y-71371014D01*
X172458840Y-71312273D01*
X172279900Y-71254131D01*
X172094077Y-71224700D01*
X172094072Y-71224700D01*
X171905928Y-71224700D01*
X171905923Y-71224700D01*
X171720099Y-71254131D01*
X171541159Y-71312273D01*
X171373522Y-71397690D01*
X171221320Y-71508270D01*
X171221315Y-71508274D01*
X171088274Y-71641315D01*
X171088270Y-71641320D01*
X170977690Y-71793522D01*
X170892273Y-71961159D01*
X170834131Y-72140099D01*
X170804700Y-72325922D01*
X168325300Y-72325922D01*
X168325300Y-72315922D01*
X168295868Y-72130099D01*
X168240977Y-71961164D01*
X168237728Y-71951164D01*
X168237726Y-71951161D01*
X168237726Y-71951159D01*
X168206738Y-71890342D01*
X168152312Y-71783526D01*
X168048994Y-71641320D01*
X168041729Y-71631320D01*
X168041725Y-71631315D01*
X167908684Y-71498274D01*
X167908679Y-71498270D01*
X167756477Y-71387690D01*
X167756476Y-71387689D01*
X167756474Y-71387688D01*
X167704124Y-71361014D01*
X167588840Y-71302273D01*
X167409900Y-71244131D01*
X167224077Y-71214700D01*
X167224072Y-71214700D01*
X167035928Y-71214700D01*
X167035923Y-71214700D01*
X166850099Y-71244131D01*
X166671159Y-71302273D01*
X166503522Y-71387690D01*
X166351320Y-71498270D01*
X166351315Y-71498274D01*
X166218274Y-71631315D01*
X166218270Y-71631320D01*
X166107690Y-71783522D01*
X166022273Y-71951159D01*
X165964131Y-72130099D01*
X165934700Y-72315922D01*
X163005300Y-72315922D01*
X163005300Y-68507645D01*
X163024985Y-68440606D01*
X163060408Y-68404543D01*
X163124905Y-68361449D01*
X163261449Y-68224905D01*
X163368730Y-68064346D01*
X163442627Y-67885943D01*
X163468794Y-67754394D01*
X163480300Y-67696553D01*
X163480300Y-67503446D01*
X163442628Y-67314062D01*
X163442627Y-67314061D01*
X163442627Y-67314057D01*
X163385439Y-67175992D01*
X163368729Y-67135651D01*
X163261450Y-66975096D01*
X163261444Y-66975089D01*
X163124910Y-66838555D01*
X163124903Y-66838549D01*
X162964347Y-66731270D01*
X162964348Y-66731270D01*
X162785943Y-66657373D01*
X162785937Y-66657371D01*
X162596553Y-66619700D01*
X162596551Y-66619700D01*
X162403449Y-66619700D01*
X162403447Y-66619700D01*
X162214062Y-66657371D01*
X162214056Y-66657373D01*
X162035651Y-66731270D01*
X161875096Y-66838549D01*
X161875089Y-66838555D01*
X161738555Y-66975089D01*
X161738549Y-66975096D01*
X161631270Y-67135652D01*
X161614561Y-67175992D01*
X161570720Y-67230396D01*
X161504425Y-67252460D01*
X161436726Y-67235180D01*
X161389116Y-67184043D01*
X161385439Y-67175992D01*
X161368729Y-67135652D01*
X161261450Y-66975096D01*
X161261444Y-66975089D01*
X161124910Y-66838555D01*
X161124903Y-66838549D01*
X160964347Y-66731270D01*
X160964348Y-66731270D01*
X160785943Y-66657373D01*
X160785937Y-66657371D01*
X160596553Y-66619700D01*
X160596551Y-66619700D01*
X160403449Y-66619700D01*
X160403447Y-66619700D01*
X160214062Y-66657371D01*
X160214056Y-66657373D01*
X160035651Y-66731270D01*
X159875096Y-66838549D01*
X159875089Y-66838555D01*
X159738555Y-66975089D01*
X159738549Y-66975096D01*
X159631270Y-67135652D01*
X159584633Y-67248244D01*
X159540792Y-67302647D01*
X159474497Y-67324712D01*
X159406798Y-67307433D01*
X159359188Y-67256295D01*
X159355511Y-67248243D01*
X159319727Y-67161852D01*
X159319726Y-67161850D01*
X159238827Y-67040776D01*
X158858560Y-67421043D01*
X158820080Y-67354394D01*
X158745606Y-67279920D01*
X158678955Y-67241439D01*
X159059222Y-66861171D01*
X158938149Y-66780273D01*
X158938147Y-66780272D01*
X158769817Y-66710548D01*
X158769805Y-66710545D01*
X158591109Y-66675000D01*
X158408890Y-66675000D01*
X158230194Y-66710545D01*
X158230182Y-66710548D01*
X158061854Y-66780271D01*
X158061841Y-66780278D01*
X157940777Y-66861171D01*
X157940777Y-66861172D01*
X158321044Y-67241439D01*
X158254394Y-67279920D01*
X158179920Y-67354394D01*
X158141439Y-67421044D01*
X157761172Y-67040777D01*
X157761171Y-67040777D01*
X157680278Y-67161841D01*
X157680271Y-67161854D01*
X157663561Y-67202198D01*
X157656489Y-67210972D01*
X157653315Y-67221785D01*
X157634960Y-67237688D01*
X157619720Y-67256602D01*
X157609026Y-67260161D01*
X157600511Y-67267540D01*
X157576471Y-67270996D01*
X157553426Y-67278667D01*
X157542507Y-67275880D01*
X157531353Y-67277484D01*
X157509259Y-67267394D01*
X157485727Y-67261388D01*
X157478048Y-67253140D01*
X157467797Y-67248459D01*
X157454666Y-67228026D01*
X157438116Y-67210251D01*
X157435134Y-67197635D01*
X157430023Y-67189681D01*
X157425000Y-67154746D01*
X157425000Y-66900373D01*
X157424999Y-66900371D01*
X157410496Y-66827459D01*
X157410494Y-66827455D01*
X157355239Y-66744760D01*
X157272544Y-66689505D01*
X157272540Y-66689503D01*
X157199627Y-66675000D01*
X156627000Y-66675000D01*
X156627000Y-67219918D01*
X156552661Y-67200000D01*
X156447339Y-67200000D01*
X156373000Y-67219918D01*
X156373000Y-66675000D01*
X155800373Y-66675000D01*
X155727459Y-66689503D01*
X155727455Y-66689505D01*
X155644760Y-66744760D01*
X155589505Y-66827455D01*
X155589503Y-66827459D01*
X155575000Y-66900371D01*
X155575000Y-67473000D01*
X156119919Y-67473000D01*
X156100000Y-67547339D01*
X156100000Y-67652661D01*
X156119919Y-67727000D01*
X155575000Y-67727000D01*
X155575000Y-68299628D01*
X155589503Y-68372540D01*
X155589505Y-68372544D01*
X155644760Y-68455239D01*
X155727455Y-68510494D01*
X155727459Y-68510496D01*
X155800371Y-68524999D01*
X155800374Y-68525000D01*
X156373000Y-68525000D01*
X156373000Y-67980081D01*
X156447339Y-68000000D01*
X156552661Y-68000000D01*
X156627000Y-67980081D01*
X156627000Y-68525000D01*
X157199626Y-68525000D01*
X157199628Y-68524999D01*
X157272540Y-68510496D01*
X157272544Y-68510494D01*
X157355239Y-68455239D01*
X157410494Y-68372544D01*
X157410496Y-68372540D01*
X157424999Y-68299628D01*
X157425000Y-68299626D01*
X157425000Y-68045253D01*
X157444685Y-67978214D01*
X157497489Y-67932459D01*
X157566647Y-67922515D01*
X157630203Y-67951540D01*
X157663562Y-67997801D01*
X157680275Y-68038152D01*
X157761171Y-68159222D01*
X158141439Y-67778954D01*
X158179920Y-67845606D01*
X158254394Y-67920080D01*
X158321044Y-67958560D01*
X157940776Y-68338827D01*
X158061850Y-68419726D01*
X158061852Y-68419727D01*
X158230182Y-68489451D01*
X158230194Y-68489454D01*
X158408890Y-68524999D01*
X158408894Y-68525000D01*
X158591106Y-68525000D01*
X158591109Y-68524999D01*
X158769805Y-68489454D01*
X158769817Y-68489451D01*
X158938145Y-68419728D01*
X159059221Y-68338826D01*
X158678955Y-67958560D01*
X158745606Y-67920080D01*
X158820080Y-67845606D01*
X158858560Y-67778955D01*
X159238826Y-68159221D01*
X159319725Y-68038149D01*
X159355510Y-67951756D01*
X159399351Y-67897352D01*
X159465645Y-67875287D01*
X159533344Y-67892566D01*
X159580955Y-67943702D01*
X159584633Y-67951755D01*
X159631270Y-68064347D01*
X159738549Y-68224903D01*
X159738555Y-68224910D01*
X159875090Y-68361445D01*
X159875093Y-68361447D01*
X159875095Y-68361449D01*
X159939590Y-68404542D01*
X159984396Y-68458154D01*
X159994700Y-68507645D01*
X159994700Y-76239335D01*
X159975015Y-76306374D01*
X159958381Y-76327016D01*
X152910232Y-83375164D01*
X152848909Y-83408649D01*
X152779217Y-83403665D01*
X152723284Y-83361793D01*
X152698867Y-83296329D01*
X152713719Y-83228056D01*
X152719449Y-83218592D01*
X152820494Y-83067368D01*
X152820499Y-83067358D01*
X152899649Y-82876274D01*
X152899651Y-82876266D01*
X152935309Y-82697000D01*
X152373608Y-82697000D01*
X152390000Y-82635826D01*
X152390000Y-82504174D01*
X152373608Y-82443000D01*
X152935309Y-82443000D01*
X152935309Y-82442999D01*
X152899651Y-82263733D01*
X152899649Y-82263725D01*
X152820499Y-82072641D01*
X152820494Y-82072631D01*
X152705589Y-81900664D01*
X152705586Y-81900660D01*
X152559339Y-81754413D01*
X152559335Y-81754410D01*
X152387368Y-81639505D01*
X152387358Y-81639500D01*
X152196274Y-81560350D01*
X152196266Y-81560348D01*
X152017000Y-81524690D01*
X152017000Y-82086391D01*
X151955826Y-82070000D01*
X151824174Y-82070000D01*
X151763000Y-82086391D01*
X151763000Y-81524691D01*
X151762999Y-81524690D01*
X151583733Y-81560348D01*
X151583725Y-81560350D01*
X151392641Y-81639500D01*
X151392631Y-81639505D01*
X151220664Y-81754410D01*
X151220660Y-81754413D01*
X151074413Y-81900660D01*
X151074410Y-81900664D01*
X150959505Y-82072631D01*
X150959500Y-82072641D01*
X150880350Y-82263725D01*
X150880348Y-82263733D01*
X150844690Y-82442999D01*
X150844691Y-82443000D01*
X151406392Y-82443000D01*
X151390000Y-82504174D01*
X151390000Y-82635826D01*
X151406392Y-82697000D01*
X150844690Y-82697000D01*
X150880348Y-82876266D01*
X150880350Y-82876274D01*
X150959500Y-83067358D01*
X150959505Y-83067368D01*
X151074410Y-83239335D01*
X151074413Y-83239339D01*
X151220660Y-83385586D01*
X151220664Y-83385589D01*
X151392631Y-83500494D01*
X151392641Y-83500499D01*
X151583723Y-83579648D01*
X151583725Y-83579649D01*
X151763000Y-83615307D01*
X151763000Y-83053608D01*
X151824174Y-83070000D01*
X151955826Y-83070000D01*
X152017000Y-83053608D01*
X152017000Y-83615307D01*
X152196274Y-83579649D01*
X152196276Y-83579648D01*
X152387358Y-83500499D01*
X152387368Y-83500494D01*
X152538592Y-83399449D01*
X152605269Y-83378571D01*
X152672649Y-83397055D01*
X152719340Y-83449034D01*
X152730516Y-83518004D01*
X152702631Y-83582068D01*
X152695164Y-83590232D01*
X152281546Y-84003850D01*
X152220223Y-84037335D01*
X152155545Y-84034099D01*
X152148827Y-84031916D01*
X151976994Y-84004700D01*
X151976989Y-84004700D01*
X151803011Y-84004700D01*
X151803006Y-84004700D01*
X151631174Y-84031915D01*
X151465709Y-84085679D01*
X151310692Y-84164665D01*
X151169951Y-84266918D01*
X151169946Y-84266922D01*
X151046922Y-84389946D01*
X151046918Y-84389951D01*
X150944665Y-84530692D01*
X150865679Y-84685709D01*
X150811915Y-84851174D01*
X150784700Y-85023005D01*
X148000500Y-85023005D01*
X148000500Y-79943005D01*
X150784700Y-79943005D01*
X150784700Y-80116994D01*
X150811915Y-80288825D01*
X150865679Y-80454290D01*
X150944665Y-80609307D01*
X151046918Y-80750048D01*
X151046922Y-80750053D01*
X151169946Y-80873077D01*
X151169951Y-80873081D01*
X151292712Y-80962271D01*
X151310696Y-80975337D01*
X151465712Y-81054322D01*
X151591354Y-81095145D01*
X151631174Y-81108084D01*
X151803006Y-81135300D01*
X151803011Y-81135300D01*
X151976994Y-81135300D01*
X152148825Y-81108084D01*
X152314288Y-81054322D01*
X152469304Y-80975337D01*
X152610055Y-80873076D01*
X152733076Y-80750055D01*
X152835337Y-80609304D01*
X152914322Y-80454288D01*
X152968084Y-80288825D01*
X152995300Y-80116994D01*
X152995300Y-79943005D01*
X152968084Y-79771174D01*
X152955145Y-79731354D01*
X152914322Y-79605712D01*
X152835337Y-79450696D01*
X152740346Y-79319951D01*
X152733081Y-79309951D01*
X152733077Y-79309946D01*
X152610053Y-79186922D01*
X152610048Y-79186918D01*
X152469307Y-79084665D01*
X152469306Y-79084664D01*
X152469304Y-79084663D01*
X152314288Y-79005678D01*
X152271376Y-78991735D01*
X152148825Y-78951915D01*
X151976994Y-78924700D01*
X151976989Y-78924700D01*
X151803011Y-78924700D01*
X151803006Y-78924700D01*
X151631174Y-78951915D01*
X151465709Y-79005679D01*
X151310692Y-79084665D01*
X151169951Y-79186918D01*
X151169946Y-79186922D01*
X151046922Y-79309946D01*
X151046918Y-79309951D01*
X150944665Y-79450692D01*
X150865679Y-79605709D01*
X150811915Y-79771174D01*
X150784700Y-79943005D01*
X148000500Y-79943005D01*
X148000500Y-77403005D01*
X150784700Y-77403005D01*
X150784700Y-77576994D01*
X150811915Y-77748825D01*
X150865679Y-77914290D01*
X150944665Y-78069307D01*
X151046918Y-78210048D01*
X151046922Y-78210053D01*
X151169946Y-78333077D01*
X151169951Y-78333081D01*
X151292712Y-78422271D01*
X151310696Y-78435337D01*
X151465712Y-78514322D01*
X151591354Y-78555145D01*
X151631174Y-78568084D01*
X151803006Y-78595300D01*
X151803011Y-78595300D01*
X151976994Y-78595300D01*
X152148825Y-78568084D01*
X152314288Y-78514322D01*
X152469304Y-78435337D01*
X152610055Y-78333076D01*
X152733076Y-78210055D01*
X152835337Y-78069304D01*
X152914322Y-77914288D01*
X152968084Y-77748825D01*
X152995300Y-77576994D01*
X152995300Y-77403005D01*
X152968084Y-77231174D01*
X152955145Y-77191354D01*
X152914322Y-77065712D01*
X152835337Y-76910696D01*
X152762368Y-76810262D01*
X152733081Y-76769951D01*
X152733075Y-76769944D01*
X152610051Y-76646920D01*
X152610048Y-76646918D01*
X152469307Y-76544665D01*
X152469306Y-76544664D01*
X152469304Y-76544663D01*
X152314288Y-76465678D01*
X152256852Y-76447016D01*
X152148825Y-76411915D01*
X151976994Y-76384700D01*
X151976989Y-76384700D01*
X151803011Y-76384700D01*
X151803006Y-76384700D01*
X151631174Y-76411915D01*
X151465709Y-76465679D01*
X151310692Y-76544665D01*
X151169951Y-76646918D01*
X151046918Y-76769951D01*
X150944665Y-76910692D01*
X150865679Y-77065709D01*
X150811915Y-77231174D01*
X150784700Y-77403005D01*
X148000500Y-77403005D01*
X148000500Y-72315922D01*
X150694700Y-72315922D01*
X150694700Y-72504077D01*
X150724131Y-72689900D01*
X150782273Y-72868840D01*
X150867690Y-73036477D01*
X150978270Y-73188679D01*
X150978274Y-73188684D01*
X151111315Y-73321725D01*
X151111320Y-73321729D01*
X151244078Y-73418182D01*
X151263526Y-73432312D01*
X151370342Y-73486738D01*
X151431159Y-73517726D01*
X151431161Y-73517726D01*
X151431164Y-73517728D01*
X151610100Y-73575868D01*
X151721246Y-73593471D01*
X151751269Y-73598227D01*
X151814404Y-73628156D01*
X151851335Y-73687468D01*
X151850337Y-73757330D01*
X151811727Y-73815563D01*
X151747764Y-73843677D01*
X151731871Y-73844700D01*
X151044428Y-73844700D01*
X151044405Y-73844702D01*
X151018893Y-73847661D01*
X151018890Y-73847662D01*
X150914475Y-73893765D01*
X150833766Y-73974474D01*
X150787662Y-74078888D01*
X150787662Y-74078890D01*
X150784700Y-74104419D01*
X150784700Y-75795571D01*
X150784702Y-75795594D01*
X150787661Y-75821106D01*
X150787662Y-75821109D01*
X150833765Y-75925524D01*
X150833766Y-75925525D01*
X150914475Y-76006234D01*
X151018891Y-76052338D01*
X151044421Y-76055300D01*
X152735578Y-76055299D01*
X152761109Y-76052338D01*
X152865525Y-76006234D01*
X152946234Y-75925525D01*
X152992338Y-75821109D01*
X152995300Y-75795579D01*
X152995299Y-74104422D01*
X152992338Y-74078891D01*
X152946234Y-73974475D01*
X152865525Y-73893766D01*
X152838687Y-73881916D01*
X152761110Y-73847662D01*
X152735580Y-73844700D01*
X152048129Y-73844700D01*
X151981090Y-73825015D01*
X151935335Y-73772211D01*
X151925391Y-73703053D01*
X151954416Y-73639497D01*
X152013194Y-73601723D01*
X152028731Y-73598227D01*
X152054878Y-73594085D01*
X152169900Y-73575868D01*
X152348836Y-73517728D01*
X152516474Y-73432312D01*
X152668686Y-73321724D01*
X152801724Y-73188686D01*
X152912312Y-73036474D01*
X152997728Y-72868836D01*
X153055868Y-72689900D01*
X153085300Y-72504077D01*
X153085300Y-72315922D01*
X153055868Y-72130099D01*
X153000977Y-71961164D01*
X152997728Y-71951164D01*
X152997726Y-71951161D01*
X152997726Y-71951159D01*
X152966738Y-71890342D01*
X152912312Y-71783526D01*
X152808994Y-71641320D01*
X152801729Y-71631320D01*
X152801725Y-71631315D01*
X152668684Y-71498274D01*
X152668679Y-71498270D01*
X152516477Y-71387690D01*
X152516476Y-71387689D01*
X152516474Y-71387688D01*
X152464124Y-71361014D01*
X152348840Y-71302273D01*
X152169900Y-71244131D01*
X151984077Y-71214700D01*
X151984072Y-71214700D01*
X151795928Y-71214700D01*
X151795923Y-71214700D01*
X151610099Y-71244131D01*
X151431159Y-71302273D01*
X151263522Y-71387690D01*
X151111320Y-71498270D01*
X151111315Y-71498274D01*
X150978274Y-71631315D01*
X150978270Y-71631320D01*
X150867690Y-71783522D01*
X150782273Y-71951159D01*
X150724131Y-72130099D01*
X150694700Y-72315922D01*
X148000500Y-72315922D01*
X148000500Y-60893330D01*
X149644700Y-60893330D01*
X149644700Y-61106669D01*
X149678072Y-61317368D01*
X149743992Y-61520252D01*
X149743994Y-61520255D01*
X149840843Y-61710332D01*
X149966235Y-61882919D01*
X150117081Y-62033765D01*
X150289668Y-62159157D01*
X150479745Y-62256006D01*
X150479747Y-62256007D01*
X150581189Y-62288967D01*
X150682633Y-62321928D01*
X150780218Y-62337384D01*
X150893331Y-62355300D01*
X150893336Y-62355300D01*
X151106669Y-62355300D01*
X151208813Y-62339121D01*
X151317367Y-62321928D01*
X151520255Y-62256006D01*
X151710332Y-62159157D01*
X151882919Y-62033765D01*
X152033765Y-61882919D01*
X152159157Y-61710332D01*
X152256006Y-61520255D01*
X152321928Y-61317367D01*
X152339121Y-61208813D01*
X152355300Y-61106669D01*
X152355300Y-60893330D01*
X186644700Y-60893330D01*
X186644700Y-61106669D01*
X186678072Y-61317368D01*
X186743992Y-61520252D01*
X186743994Y-61520255D01*
X186840843Y-61710332D01*
X186966235Y-61882919D01*
X187117081Y-62033765D01*
X187289668Y-62159157D01*
X187479745Y-62256006D01*
X187479747Y-62256007D01*
X187581189Y-62288967D01*
X187682633Y-62321928D01*
X187780218Y-62337384D01*
X187893331Y-62355300D01*
X187893336Y-62355300D01*
X188106669Y-62355300D01*
X188208813Y-62339121D01*
X188317367Y-62321928D01*
X188520255Y-62256006D01*
X188710332Y-62159157D01*
X188882919Y-62033765D01*
X189033765Y-61882919D01*
X189159157Y-61710332D01*
X189256006Y-61520255D01*
X189321928Y-61317367D01*
X189339121Y-61208813D01*
X189355300Y-61106669D01*
X189355300Y-60893330D01*
X189335885Y-60770756D01*
X189321928Y-60682633D01*
X189256006Y-60479745D01*
X189159157Y-60289668D01*
X189033765Y-60117081D01*
X188882919Y-59966235D01*
X188710332Y-59840843D01*
X188520252Y-59743992D01*
X188317368Y-59678072D01*
X188106669Y-59644700D01*
X188106664Y-59644700D01*
X187893336Y-59644700D01*
X187893331Y-59644700D01*
X187682631Y-59678072D01*
X187479747Y-59743992D01*
X187289667Y-59840843D01*
X187191200Y-59912383D01*
X187117081Y-59966235D01*
X187117079Y-59966237D01*
X187117078Y-59966237D01*
X186966237Y-60117078D01*
X186966237Y-60117079D01*
X186966235Y-60117081D01*
X186912383Y-60191200D01*
X186840843Y-60289667D01*
X186743992Y-60479747D01*
X186678072Y-60682631D01*
X186644700Y-60893330D01*
X152355300Y-60893330D01*
X152335885Y-60770756D01*
X152321928Y-60682633D01*
X152256006Y-60479745D01*
X152159157Y-60289668D01*
X152033765Y-60117081D01*
X151882919Y-59966235D01*
X151710332Y-59840843D01*
X151520252Y-59743992D01*
X151317368Y-59678072D01*
X151106669Y-59644700D01*
X151106664Y-59644700D01*
X150893336Y-59644700D01*
X150893331Y-59644700D01*
X150682631Y-59678072D01*
X150479747Y-59743992D01*
X150289667Y-59840843D01*
X150191200Y-59912383D01*
X150117081Y-59966235D01*
X150117079Y-59966237D01*
X150117078Y-59966237D01*
X149966237Y-60117078D01*
X149966237Y-60117079D01*
X149966235Y-60117081D01*
X149912383Y-60191200D01*
X149840843Y-60289667D01*
X149743992Y-60479747D01*
X149678072Y-60682631D01*
X149644700Y-60893330D01*
X148000500Y-60893330D01*
X148000500Y-57124500D01*
X148020185Y-57057461D01*
X148072989Y-57011706D01*
X148124500Y-57000500D01*
X190875500Y-57000500D01*
X190942539Y-57020185D01*
G37*
%TD.AperFunction*%
%TD*%
M02*
